Scheherazade.sfdir
StartChar: numbersign
Encoding: 35 35 7
Width: 772
GlyphClass: 2
Flags: W
LayerCount: 2
Fore
SplineSet
539 322 m 1,0,-1
 469 -23 l 1,1,-1
 408 -23 l 1,2,-1
 477 322 l 1,3,-1
 221 322 l 1,4,-1
 150 -23 l 1,5,-1
 86 -23 l 1,6,-1
 156 322 l 1,7,-1
 27 322 l 1,8,-1
 27 385 l 1,9,-1
 168 385 l 1,10,-1
 221 643 l 1,11,-1
 27 643 l 1,12,-1
 27 702 l 1,13,-1
 236 702 l 1,14,-1
 305 1044 l 1,15,-1
 365 1044 l 1,16,-1
 299 702 l 1,17,-1
 553 702 l 1,18,-1
 625 1044 l 1,19,-1
 688 1044 l 1,20,-1
 616 702 l 1,21,-1
 745 702 l 1,22,-1
 745 643 l 1,23,-1
 606 643 l 1,24,-1
 553 385 l 1,25,-1
 745 385 l 1,26,-1
 745 322 l 1,27,-1
 539 322 l 1,0,-1
285 643 m 1,28,-1
 231 385 l 1,29,-1
 489 385 l 1,30,-1
 543 643 l 1,31,-1
 285 643 l 1,28,-1
EndSplineSet
EndChar
StartChar: dollar
Encoding: 36 36 8
Width: 772
GlyphClass: 2
Flags: W
LayerCount: 2
Fore
SplineSet
694 254 m 0,0,1
 694 192 694 192 669.5 142.5 c 128,-1,2
 645 93 645 93 603.5 57.5 c 128,-1,3
 562 22 562 22 508.5 1.5 c 128,-1,4
 455 -19 455 -19 397 -23 c 1,5,-1
 397 -117 l 1,6,-1
 348 -117 l 1,7,-1
 348 -23 l 1,8,9
 280 -19 280 -19 212.5 -4 c 128,-1,10
 145 11 145 11 82 39 c 1,11,-1
 82 252 l 1,12,-1
 115 252 l 1,13,14
 123 146 123 146 184 92 c 128,-1,15
 245 38 245 38 348 29 c 1,16,-1
 348 467 l 1,17,18
 302 497 302 497 254.5 528.5 c 128,-1,19
 207 560 207 560 169 598.5 c 128,-1,20
 131 637 131 637 106.5 685 c 128,-1,21
 82 733 82 733 82 795 c 0,22,23
 82 851 82 851 104.5 895 c 128,-1,24
 127 939 127 939 164 970 c 128,-1,25
 201 1001 201 1001 249 1018.5 c 128,-1,26
 297 1036 297 1036 348 1040 c 1,27,-1
 348 1110 l 1,28,-1
 397 1110 l 1,29,-1
 397 1040 l 1,30,31
 431 1039 431 1039 462 1032.5 c 128,-1,32
 493 1026 493 1026 523 1016.5 c 128,-1,33
 553 1007 553 1007 583.5 996 c 128,-1,34
 614 985 614 985 645 973 c 1,35,-1
 645 748 l 1,36,-1
 616 748 l 1,37,38
 607 851 607 851 555.5 914.5 c 128,-1,39
 504 978 504 978 397 989 c 1,40,-1
 397 606 l 1,41,42
 442 574 442 574 494 538.5 c 128,-1,43
 546 503 546 503 590.5 461 c 128,-1,44
 635 419 635 419 664.5 368 c 128,-1,45
 694 317 694 317 694 254 c 0,0,1
348 989 m 1,46,47
 317 985 317 985 289.5 974.5 c 128,-1,48
 262 964 262 964 242 946.5 c 128,-1,49
 222 929 222 929 210.5 903 c 128,-1,50
 199 877 199 877 199 842 c 0,51,52
 199 808 199 808 212.5 778 c 128,-1,53
 226 748 226 748 247.5 722.5 c 128,-1,54
 269 697 269 697 295.5 676 c 128,-1,55
 322 655 322 655 348 639 c 1,56,-1
 348 989 l 1,46,47
575 217 m 0,57,58
 575 255 575 255 557.5 286.5 c 128,-1,59
 540 318 540 318 513.5 344.5 c 128,-1,60
 487 371 487 371 456 393 c 128,-1,61
 425 415 425 415 397 434 c 1,62,-1
 397 29 l 1,63,64
 435 31 435 31 467.5 46.5 c 128,-1,65
 500 62 500 62 524 87.5 c 128,-1,66
 548 113 548 113 561.5 146.5 c 128,-1,67
 575 180 575 180 575 217 c 0,57,58
EndSplineSet
EndChar
StartChar: ampersand
Encoding: 38 38 10
Width: 1202
GlyphClass: 2
Flags: W
LayerCount: 2
Fore
SplineSet
1153 184 m 1,0,1
 1144 140 1144 140 1124 101.5 c 128,-1,2
 1104 63 1104 63 1075 35 c 128,-1,3
 1046 7 1046 7 1007.5 -9 c 128,-1,4
 969 -25 969 -25 922 -25 c 0,5,6
 882 -25 882 -25 845 -12.5 c 128,-1,7
 808 0 808 0 774.5 21 c 128,-1,8
 741 42 741 42 711 68.5 c 128,-1,9
 681 95 681 95 655 123 c 1,10,11
 618 91 618 91 581.5 63.5 c 128,-1,12
 545 36 545 36 506 16.5 c 128,-1,13
 467 -3 467 -3 423 -14 c 128,-1,14
 379 -25 379 -25 328 -25 c 256,15,16
 277 -25 277 -25 228.5 -10.5 c 128,-1,17
 180 4 180 4 142 32.5 c 128,-1,18
 104 61 104 61 80.5 104 c 128,-1,19
 57 147 57 147 57 203 c 0,20,21
 57 268 57 268 86.5 323.5 c 128,-1,22
 116 379 116 379 161.5 425 c 128,-1,23
 207 471 207 471 263 507.5 c 128,-1,24
 319 544 319 544 371 571 c 1,25,26
 346 622 346 622 326.5 681 c 128,-1,27
 307 740 307 740 307 797 c 256,28,29
 307 854 307 854 327 900 c 128,-1,30
 347 946 347 946 382 978 c 128,-1,31
 417 1010 417 1010 465 1027 c 128,-1,32
 513 1044 513 1044 569 1044 c 0,33,34
 611 1044 611 1044 648 1032 c 128,-1,35
 685 1020 685 1020 713 997 c 128,-1,36
 741 974 741 974 757.5 940 c 128,-1,37
 774 906 774 906 774 862 c 0,38,39
 774 809 774 809 750.5 767.5 c 128,-1,40
 727 726 727 726 690.5 693.5 c 128,-1,41
 654 661 654 661 610 636 c 128,-1,42
 566 611 566 611 526 590 c 1,43,44
 571 508 571 508 620.5 430.5 c 128,-1,45
 670 353 670 353 727 279 c 1,46,47
 748 305 748 305 771.5 336.5 c 128,-1,48
 795 368 795 368 814 402.5 c 128,-1,49
 833 437 833 437 845.5 473.5 c 128,-1,50
 858 510 858 510 858 545 c 0,51,52
 858 560 858 560 853.5 575 c 128,-1,53
 849 590 849 590 840 602 c 128,-1,54
 831 614 831 614 817.5 621.5 c 128,-1,55
 804 629 804 629 786 629 c 1,56,-1
 786 657 l 1,57,-1
 1104 657 l 1,58,-1
 1104 629 l 1,59,60
 1095 629 1095 629 1083 627 c 128,-1,61
 1071 625 1071 625 1058 622 c 128,-1,62
 1045 619 1045 619 1032.5 613.5 c 128,-1,63
 1020 608 1020 608 1010 600 c 0,64,65
 998 590 998 590 984 572 c 128,-1,66
 970 554 970 554 957 533.5 c 128,-1,67
 944 513 944 513 932.5 493 c 128,-1,68
 921 473 921 473 913 459 c 0,69,70
 879 399 879 399 842 343 c 128,-1,71
 805 287 805 287 762 233 c 1,72,73
 783 210 783 210 808 185 c 128,-1,74
 833 160 833 160 862 139.5 c 128,-1,75
 891 119 891 119 922.5 105.5 c 128,-1,76
 954 92 954 92 987 92 c 0,77,78
 1044 92 1044 92 1078 120.5 c 128,-1,79
 1112 149 1112 149 1126 203 c 1,80,-1
 1153 184 l 1,0,1
686 864 m 0,81,82
 686 890 686 890 678 913 c 128,-1,83
 670 936 670 936 654.5 953 c 128,-1,84
 639 970 639 970 617.5 980.5 c 128,-1,85
 596 991 596 991 569 991 c 0,86,87
 541 991 541 991 516.5 980.5 c 128,-1,88
 492 970 492 970 474 952 c 128,-1,89
 456 934 456 934 446 909.5 c 128,-1,90
 436 885 436 885 436 856 c 0,91,92
 436 830 436 830 442 801.5 c 128,-1,93
 448 773 448 773 457 745 c 128,-1,94
 466 717 466 717 477.5 690 c 128,-1,95
 489 663 489 663 500 639 c 1,96,97
 535 655 535 655 568.5 676.5 c 128,-1,98
 602 698 602 698 628 725.5 c 128,-1,99
 654 753 654 753 670 787.5 c 128,-1,100
 686 822 686 822 686 864 c 0,81,82
616 166 m 1,101,102
 551 254 551 254 497.5 339 c 128,-1,103
 444 424 444 424 393 520 c 1,104,105
 357 500 357 500 324.5 475 c 128,-1,106
 292 450 292 450 267 419 c 128,-1,107
 242 388 242 388 227.5 351 c 128,-1,108
 213 314 213 314 213 270 c 0,109,110
 213 229 213 229 226.5 192 c 128,-1,111
 240 155 240 155 265 127.5 c 128,-1,112
 290 100 290 100 325 84 c 128,-1,113
 360 68 360 68 403 68 c 0,114,115
 433 68 433 68 461.5 76.5 c 128,-1,116
 490 85 490 85 517 99 c 128,-1,117
 544 113 544 113 569 130.5 c 128,-1,118
 594 148 594 148 616 166 c 1,101,102
EndSplineSet
EndChar
StartChar: quotesingle
Encoding: 39 39 11
Width: 279
GlyphClass: 2
Flags: W
LayerCount: 2
Fore
SplineSet
215 965 m 0,0,1
 215 954 215 954 210.5 919 c 128,-1,2
 206 884 206 884 195 827 c 2,3,-1
 154 606 l 1,4,-1
 121 606 l 1,5,-1
 80 829 l 2,6,7
 72 874 72 874 67.5 905.5 c 128,-1,8
 63 937 63 937 63 954 c 0,9,10
 63 1001 63 1001 81.5 1022.5 c 128,-1,11
 100 1044 100 1044 135 1044 c 0,12,13
 173 1044 173 1044 195 1020 c 0,14,15
 215 997 215 997 215 965 c 0,0,1
EndSplineSet
EndChar
StartChar: parenleft
Encoding: 40 40 12
Width: 547
GlyphClass: 2
Flags: W
LayerCount: 2
Fore
SplineSet
489 -375 m 1,0,1
 470 -366 470 -366 443 -349 c 128,-1,2
 416 -332 416 -332 385 -309 c 128,-1,3
 354 -286 354 -286 322.5 -258.5 c 128,-1,4
 291 -231 291 -231 262 -201 c 0,5,6
 225 -160 225 -160 191 -114 c 128,-1,7
 157 -68 157 -68 131.5 -13.5 c 128,-1,8
 106 41 106 41 91 105 c 128,-1,9
 76 169 76 169 76 246 c 256,10,11
 76 323 76 323 91 386.5 c 128,-1,12
 106 450 106 450 131.5 504 c 128,-1,13
 157 558 157 558 191 604 c 128,-1,14
 225 650 225 650 262 690 c 0,15,16
 291 720 291 720 322.5 748 c 128,-1,17
 354 776 354 776 385 799 c 128,-1,18
 416 822 416 822 443 839 c 128,-1,19
 470 856 470 856 489 864 c 1,20,-1
 502 852 l 1,21,22
 437 789 437 789 387.5 729.5 c 128,-1,23
 338 670 338 670 303 602 c 0,24,25
 285 568 285 568 267.5 529.5 c 128,-1,26
 250 491 250 491 236 447 c 128,-1,27
 222 403 222 403 213.5 353 c 128,-1,28
 205 303 205 303 205 246 c 0,29,30
 205 188 205 188 213.5 137.5 c 128,-1,31
 222 87 222 87 236 42.5 c 128,-1,32
 250 -2 250 -2 267.5 -40.5 c 128,-1,33
 285 -79 285 -79 303 -113 c 0,34,35
 338 -181 338 -181 387.5 -239 c 128,-1,36
 437 -297 437 -297 502 -362 c 1,37,-1
 489 -375 l 1,0,1
EndSplineSet
EndChar
StartChar: comma
Encoding: 44 44 16
Width: 387
GlyphClass: 2
Flags: W
LayerCount: 2
Fore
SplineSet
307 -8 m 0,0,1
 307 -182 307 -182 84 -258 c 1,2,-1
 84 -223 l 1,3,4
 146 -205 146 -205 193 -156 c 0,5,6
 219 -128 219 -128 232.5 -96.5 c 128,-1,7
 246 -65 246 -65 246 -31 c 0,8,9
 246 0 246 0 229 0 c 0,10,11
 217 0 217 0 197 -10 c 0,12,13
 186 -16 186 -16 178 -19.5 c 128,-1,14
 170 -23 170 -23 164 -23 c 0,15,16
 84 -23 84 -23 84 61 c 0,17,18
 84 81 84 81 90.5 97 c 128,-1,19
 97 113 97 113 113 125 c 0,20,21
 141 150 141 150 180 150 c 0,22,23
 230 150 230 150 266 111 c 0,24,25
 307 64 307 64 307 -8 c 0,0,1
EndSplineSet
EndChar
StartChar: period
Encoding: 46 46 18
Width: 641
GlyphClass: 2
Flags: W
LayerCount: 2
Fore
SplineSet
365 66 m 0,0,1
 365 28 365 28 339.5 2.5 c 128,-1,2
 314 -23 314 -23 276 -23 c 0,3,4
 258 -23 258 -23 242.5 -16 c 128,-1,5
 227 -9 227 -9 215.5 3 c 128,-1,6
 204 15 204 15 197 31 c 128,-1,7
 190 47 190 47 190 66 c 0,8,9
 190 84 190 84 197 99.5 c 128,-1,10
 204 115 204 115 215.5 126.5 c 128,-1,11
 227 138 227 138 242.5 145 c 128,-1,12
 258 152 258 152 276 152 c 0,13,14
 295 152 295 152 311 145 c 128,-1,15
 327 138 327 138 339 126.5 c 128,-1,16
 351 115 351 115 358 99.5 c 128,-1,17
 365 84 365 84 365 66 c 0,0,1
EndSplineSet
EndChar
StartChar: slash
Encoding: 47 47 19
Width: 543
GlyphClass: 2
Flags: W
LayerCount: 2
Fore
SplineSet
127 -260 m 1,0,-1
 66 -260 l 1,1,-1
 416 1243 l 1,2,-1
 479 1245 l 1,3,-1
 127 -260 l 1,0,-1
EndSplineSet
EndChar
StartChar: two
Encoding: 50 50 22
Width: 772
GlyphClass: 2
Flags: W
LayerCount: 2
Fore
SplineSet
635 0 m 1,0,-1
 35 0 l 1,1,-1
 35 29 l 1,2,3
 77 68 77 68 129 116 c 128,-1,4
 181 164 181 164 234.5 219 c 128,-1,5
 288 274 288 274 338.5 334 c 128,-1,6
 389 394 389 394 428.5 456 c 128,-1,7
 468 518 468 518 492 581 c 128,-1,8
 516 644 516 644 516 705 c 0,9,10
 516 749 516 749 502 789.5 c 128,-1,11
 488 830 488 830 462 861 c 128,-1,12
 436 892 436 892 399 910 c 128,-1,13
 362 928 362 928 315 928 c 0,14,15
 227 928 227 928 172.5 882 c 128,-1,16
 118 836 118 836 90 756 c 1,17,-1
 63 756 l 1,18,19
 71 818 71 818 92.5 870.5 c 128,-1,20
 114 923 114 923 150 961.5 c 128,-1,21
 186 1000 186 1000 237 1022 c 128,-1,22
 288 1044 288 1044 354 1044 c 0,23,24
 412 1044 412 1044 464.5 1024.5 c 128,-1,25
 517 1005 517 1005 557 969.5 c 128,-1,26
 597 934 597 934 621 884.5 c 128,-1,27
 645 835 645 835 645 774 c 0,28,29
 645 717 645 717 625 660.5 c 128,-1,30
 605 604 605 604 573.5 550.5 c 128,-1,31
 542 497 542 497 503.5 448.5 c 128,-1,32
 465 400 465 400 428 360 c 0,33,34
 371 299 371 299 313.5 235.5 c 128,-1,35
 256 172 256 172 195 115 c 1,36,-1
 461 115 l 2,37,38
 498 115 498 115 528 115.5 c 128,-1,39
 558 116 558 116 584 123 c 128,-1,40
 610 130 610 130 633.5 147 c 128,-1,41
 657 164 657 164 680 197 c 1,42,-1
 709 197 l 1,43,-1
 635 0 l 1,0,-1
EndSplineSet
Substitution2: "Single Substitution lookup 22 subtable" twoSmall
Substitution2: "Single Substitution lookup 21 subtable" twoMedium
EndChar
StartChar: six
Encoding: 54 54 26
Width: 772
GlyphClass: 2
Flags: W
LayerCount: 2
Fore
SplineSet
713 344 m 0,0,1
 713 275 713 275 690 210 c 128,-1,2
 667 145 667 145 624 94 c 128,-1,3
 581 43 581 43 521 12.5 c 128,-1,4
 461 -18 461 -18 387 -18 c 0,5,6
 333 -18 333 -18 288 0 c 128,-1,7
 243 18 243 18 207.5 49 c 128,-1,8
 172 80 172 80 146 121 c 128,-1,9
 120 162 120 162 102.5 208.5 c 128,-1,10
 85 255 85 255 76.5 304.5 c 128,-1,11
 68 354 68 354 68 401 c 0,12,13
 68 479 68 479 88 557 c 128,-1,14
 108 635 108 635 145 706.5 c 128,-1,15
 182 778 182 778 234.5 839.5 c 128,-1,16
 287 901 287 901 351.5 946.5 c 128,-1,17
 416 992 416 992 491.5 1018 c 128,-1,18
 567 1044 567 1044 649 1044 c 2,19,-1
 692 1044 l 1,20,-1
 692 1016 l 1,21,22
 599 1010 599 1010 523.5 971.5 c 128,-1,23
 448 933 448 933 391 871.5 c 128,-1,24
 334 810 334 810 295 732 c 128,-1,25
 256 654 256 654 236 569 c 1,26,27
 285 603 285 603 340 624 c 128,-1,28
 395 645 395 645 455 645 c 0,29,30
 517 645 517 645 565 619.5 c 128,-1,31
 613 594 613 594 646 551.5 c 128,-1,32
 679 509 679 509 696 455 c 128,-1,33
 713 401 713 401 713 344 c 0,0,1
578 262 m 0,34,35
 578 308 578 308 569.5 363.5 c 128,-1,36
 561 419 561 419 539 467 c 128,-1,37
 517 515 517 515 478.5 547.5 c 128,-1,38
 440 580 440 580 381 580 c 0,39,40
 363 580 363 580 341.5 573.5 c 128,-1,41
 320 567 320 567 299 557.5 c 128,-1,42
 278 548 278 548 258 536.5 c 128,-1,43
 238 525 238 525 223 516 c 1,44,45
 218 474 218 474 213.5 433.5 c 128,-1,46
 209 393 209 393 209 352 c 0,47,48
 209 323 209 323 214 287.5 c 128,-1,49
 219 252 219 252 229 215.5 c 128,-1,50
 239 179 239 179 255 145 c 128,-1,51
 271 111 271 111 293 84 c 128,-1,52
 315 57 315 57 344.5 41 c 128,-1,53
 374 25 374 25 410 25 c 0,54,55
 456 25 456 25 488 48 c 128,-1,56
 520 71 520 71 540 106 c 128,-1,57
 560 141 560 141 569 183 c 128,-1,58
 578 225 578 225 578 262 c 0,34,35
EndSplineSet
Substitution2: "Single Substitution lookup 22 subtable" sixSmall
Substitution2: "Single Substitution lookup 21 subtable" sixMedium
EndChar
StartChar: seven
Encoding: 55 55 27
Width: 772
GlyphClass: 2
Flags: W
LayerCount: 2
Fore
SplineSet
360 -23 m 1,0,-1
 279 -23 l 1,1,-1
 584 899 l 1,2,-1
 303 899 l 2,3,4
 258 899 258 899 225.5 894 c 128,-1,5
 193 889 193 889 167.5 875 c 128,-1,6
 142 861 142 861 121 837 c 128,-1,7
 100 813 100 813 78 774 c 1,8,-1
 57 780 l 1,9,-1
 156 1022 l 1,10,-1
 700 1022 l 1,11,-1
 700 995 l 1,12,-1
 360 -23 l 1,0,-1
EndSplineSet
Substitution2: "Single Substitution lookup 22 subtable" sevenSmall
Substitution2: "Single Substitution lookup 21 subtable" sevenMedium
EndChar
StartChar: colon
Encoding: 58 58 30
Width: 641
GlyphClass: 2
Flags: W
LayerCount: 2
Fore
SplineSet
389 487 m 0,0,1
 389 469 389 469 382 453 c 128,-1,2
 375 437 375 437 363.5 425 c 128,-1,3
 352 413 352 413 336.5 406 c 128,-1,4
 321 399 321 399 303 399 c 0,5,6
 266 399 266 399 240.5 424.5 c 128,-1,7
 215 450 215 450 215 487 c 0,8,9
 215 525 215 525 240.5 550 c 128,-1,10
 266 575 266 575 303 575 c 0,11,12
 321 575 321 575 336.5 568.5 c 128,-1,13
 352 562 352 562 363.5 550 c 128,-1,14
 375 538 375 538 382 522 c 128,-1,15
 389 506 389 506 389 487 c 0,0,1
389 14 m 256,16,17
 389 -4 389 -4 382 -19.5 c 128,-1,18
 375 -35 375 -35 363.5 -46.5 c 128,-1,19
 352 -58 352 -58 336.5 -65 c 128,-1,20
 321 -72 321 -72 303 -72 c 256,21,22
 285 -72 285 -72 269 -65 c 128,-1,23
 253 -58 253 -58 241 -46.5 c 128,-1,24
 229 -35 229 -35 222 -19.5 c 128,-1,25
 215 -4 215 -4 215 14 c 0,26,27
 215 51 215 51 240.5 76.5 c 128,-1,28
 266 102 266 102 303 102 c 0,29,30
 321 102 321 102 336.5 95 c 128,-1,31
 352 88 352 88 363.5 76 c 128,-1,32
 375 64 375 64 382 48 c 128,-1,33
 389 32 389 32 389 14 c 256,16,17
EndSplineSet
EndChar
StartChar: less
Encoding: 60 60 32
Width: 1485
GlyphClass: 2
Flags: W
LayerCount: 2
Fore
SplineSet
297 399 m 1,0,-1
 297 492 l 1,1,-1
 1188 834 l 1,2,-1
 1188 741 l 1,3,-1
 391 446 l 1,4,-1
 1188 150 l 1,5,-1
 1188 57 l 1,6,-1
 297 399 l 1,0,-1
EndSplineSet
EndChar
StartChar: greater
Encoding: 62 62 34
Width: 1485
GlyphClass: 2
Flags: W
LayerCount: 2
Fore
SplineSet
297 57 m 1,0,-1
 297 150 l 1,1,-1
 1094 446 l 1,2,-1
 297 741 l 1,3,-1
 297 834 l 1,4,-1
 1188 492 l 1,5,-1
 1188 399 l 1,6,-1
 297 57 l 1,0,-1
EndSplineSet
EndChar
StartChar: question
Encoding: 63 63 35
Width: 686
GlyphClass: 2
Flags: W
LayerCount: 2
Fore
SplineSet
625 807 m 0,0,1
 625 750 625 750 605 704.5 c 128,-1,2
 585 659 585 659 554.5 618 c 128,-1,3
 524 577 524 577 488 538 c 128,-1,4
 452 499 452 499 420.5 455 c 128,-1,5
 389 411 389 411 367 359 c 128,-1,6
 345 307 345 307 342 240 c 1,7,-1
 311 240 l 1,8,9
 314 331 314 331 340.5 412.5 c 128,-1,10
 367 494 367 494 414 571 c 0,11,12
 443 622 443 622 463 678.5 c 128,-1,13
 483 735 483 735 483 797 c 0,14,15
 483 837 483 837 472.5 874 c 128,-1,16
 462 911 462 911 440.5 940 c 128,-1,17
 419 969 419 969 386.5 986.5 c 128,-1,18
 354 1004 354 1004 309 1004 c 0,19,20
 288 1004 288 1004 263 998.5 c 128,-1,21
 238 993 238 993 216.5 981 c 128,-1,22
 195 969 195 969 180.5 950 c 128,-1,23
 166 931 166 931 166 905 c 0,24,25
 166 890 166 890 173.5 872 c 128,-1,26
 181 854 181 854 189.5 836.5 c 128,-1,27
 198 819 198 819 205.5 802.5 c 128,-1,28
 213 786 213 786 213 774 c 0,29,30
 213 749 213 749 196.5 730 c 128,-1,31
 180 711 180 711 154 711 c 0,32,33
 132 711 132 711 116 722.5 c 128,-1,34
 100 734 100 734 89.5 751.5 c 128,-1,35
 79 769 79 769 74.5 790 c 128,-1,36
 70 811 70 811 70 829 c 0,37,38
 70 885 70 885 94 926 c 128,-1,39
 118 967 118 967 156.5 993 c 128,-1,40
 195 1019 195 1019 243.5 1031.5 c 128,-1,41
 292 1044 292 1044 342 1044 c 0,42,43
 397 1044 397 1044 448 1030 c 128,-1,44
 499 1016 499 1016 538.5 987 c 128,-1,45
 578 958 578 958 601.5 913.5 c 128,-1,46
 625 869 625 869 625 807 c 0,0,1
416 63 m 0,47,48
 416 28 416 28 391.5 4 c 128,-1,49
 367 -20 367 -20 332 -20 c 256,50,51
 297 -20 297 -20 271.5 3 c 128,-1,52
 246 26 246 26 246 63 c 0,53,54
 246 81 246 81 253 97 c 128,-1,55
 260 113 260 113 272 124.5 c 128,-1,56
 284 136 284 136 299.5 143 c 128,-1,57
 315 150 315 150 332 150 c 0,58,59
 367 150 367 150 391.5 124.5 c 128,-1,60
 416 99 416 99 416 63 c 0,47,48
EndSplineSet
EndChar
StartChar: at
Encoding: 64 64 36
Width: 1423
GlyphClass: 2
Flags: W
LayerCount: 2
Fore
SplineSet
1384 129 m 1,0,1
 1355 22 1355 22 1289 -63.5 c 128,-1,2
 1223 -149 1223 -149 1134.5 -209 c 128,-1,3
 1046 -269 1046 -269 941.5 -301.5 c 128,-1,4
 837 -334 837 -334 731 -334 c 0,5,6
 587 -334 587 -334 466.5 -282.5 c 128,-1,7
 346 -231 346 -231 259 -141 c 128,-1,8
 172 -51 172 -51 123 71.5 c 128,-1,9
 74 194 74 194 74 336 c 0,10,11
 74 489 74 489 127 622.5 c 128,-1,12
 180 756 180 756 274.5 856 c 128,-1,13
 369 956 369 956 499.5 1013.5 c 128,-1,14
 630 1071 630 1071 786 1071 c 0,15,16
 904 1071 904 1071 1003 1035.5 c 128,-1,17
 1102 1000 1102 1000 1173.5 933.5 c 128,-1,18
 1245 867 1245 867 1285 771.5 c 128,-1,19
 1325 676 1325 676 1325 555 c 0,20,21
 1325 495 1325 495 1313.5 432 c 128,-1,22
 1302 369 1302 369 1279 310 c 128,-1,23
 1256 251 1256 251 1221 199 c 128,-1,24
 1186 147 1186 147 1140 108.5 c 128,-1,25
 1094 70 1094 70 1036 47.5 c 128,-1,26
 978 25 978 25 909 25 c 0,27,28
 854 25 854 25 824.5 51 c 128,-1,29
 795 77 795 77 795 133 c 0,30,31
 795 159 795 159 798.5 185.5 c 128,-1,32
 802 212 802 212 807 238 c 1,33,34
 783 210 783 210 749 173 c 128,-1,35
 715 136 715 136 675 103 c 128,-1,36
 635 70 635 70 593 47.5 c 128,-1,37
 551 25 551 25 510 25 c 0,38,39
 475 25 475 25 449.5 40.5 c 128,-1,40
 424 56 424 56 407.5 81 c 128,-1,41
 391 106 391 106 383 136.5 c 128,-1,42
 375 167 375 167 375 197 c 0,43,44
 375 246 375 246 390.5 304.5 c 128,-1,45
 406 363 406 363 434 421.5 c 128,-1,46
 462 480 462 480 500.5 535.5 c 128,-1,47
 539 591 539 591 584.5 633.5 c 128,-1,48
 630 676 630 676 682 701.5 c 128,-1,49
 734 727 734 727 788 727 c 0,50,51
 897 727 897 727 920 623 c 1,52,-1
 942 705 l 1,53,-1
 1061 723 l 1,54,55
 1057 711 1057 711 1044 667.5 c 128,-1,56
 1031 624 1031 624 1013.5 564.5 c 128,-1,57
 996 505 996 505 976.5 437 c 128,-1,58
 957 369 957 369 940.5 307.5 c 128,-1,59
 924 246 924 246 913.5 198.5 c 128,-1,60
 903 151 903 151 903 133 c 0,61,62
 903 110 903 110 920.5 94 c 128,-1,63
 938 78 938 78 961 78 c 0,64,65
 993 78 993 78 1022 89 c 128,-1,66
 1051 100 1051 100 1076.5 118.5 c 128,-1,67
 1102 137 1102 137 1124 160.5 c 128,-1,68
 1146 184 1146 184 1165 208 c 0,69,70
 1225 286 1225 286 1251.5 379 c 128,-1,71
 1278 472 1278 472 1278 569 c 0,72,73
 1278 676 1278 676 1240.5 762 c 128,-1,74
 1203 848 1203 848 1137.5 908.5 c 128,-1,75
 1072 969 1072 969 983 1001.5 c 128,-1,76
 894 1034 894 1034 791 1034 c 0,77,78
 692 1034 692 1034 605 1006.5 c 128,-1,79
 518 979 518 979 446 930.5 c 128,-1,80
 374 882 374 882 317.5 814.5 c 128,-1,81
 261 747 261 747 222.5 667 c 128,-1,82
 184 587 184 587 163.5 497.5 c 128,-1,83
 143 408 143 408 143 315 c 0,84,85
 143 182 143 182 185.5 71.5 c 128,-1,86
 228 -39 228 -39 305.5 -118.5 c 128,-1,87
 383 -198 383 -198 492.5 -242.5 c 128,-1,88
 602 -287 602 -287 735 -287 c 0,89,90
 841 -287 841 -287 933.5 -257.5 c 128,-1,91
 1026 -228 1026 -228 1102.5 -174 c 128,-1,92
 1179 -120 1179 -120 1239 -43 c 128,-1,93
 1299 34 1299 34 1341 129 c 1,94,-1
 1384 129 l 1,0,1
891 569 m 0,95,96
 891 593 891 593 887 615 c 128,-1,97
 883 637 883 637 872.5 654.5 c 128,-1,98
 862 672 862 672 843.5 682 c 128,-1,99
 825 692 825 692 797 692 c 0,100,101
 760 692 760 692 722.5 666.5 c 128,-1,102
 685 641 685 641 651.5 599.5 c 128,-1,103
 618 558 618 558 589 506.5 c 128,-1,104
 560 455 560 455 539 402.5 c 128,-1,105
 518 350 518 350 506 302 c 128,-1,106
 494 254 494 254 494 221 c 0,107,108
 494 203 494 203 499.5 184 c 128,-1,109
 505 165 505 165 516 149.5 c 128,-1,110
 527 134 527 134 543 124.5 c 128,-1,111
 559 115 559 115 580 115 c 0,112,113
 622 115 622 115 661.5 138.5 c 128,-1,114
 701 162 701 162 735.5 200.5 c 128,-1,115
 770 239 770 239 798.5 288 c 128,-1,116
 827 337 827 337 847.5 387.5 c 128,-1,117
 868 438 868 438 879.5 485.5 c 128,-1,118
 891 533 891 533 891 569 c 0,95,96
EndSplineSet
EndChar
StartChar: C
Encoding: 67 67 39
Width: 1030
GlyphClass: 2
Flags: W
LayerCount: 2
Fore
SplineSet
975 240 m 1,0,1
 906 116 906 116 801.5 45.5 c 128,-1,2
 697 -25 697 -25 553 -25 c 0,3,4
 439 -25 439 -25 347 15 c 128,-1,5
 255 55 255 55 190 125 c 128,-1,6
 125 195 125 195 90 290 c 128,-1,7
 55 385 55 385 55 496 c 0,8,9
 55 610 55 610 92.5 709.5 c 128,-1,10
 130 809 130 809 198.5 883.5 c 128,-1,11
 267 958 267 958 362.5 1001 c 128,-1,12
 458 1044 458 1044 575 1044 c 0,13,14
 614 1044 614 1044 647.5 1038.5 c 128,-1,15
 681 1033 681 1033 712.5 1024 c 128,-1,16
 744 1015 744 1015 775 1002.5 c 128,-1,17
 806 990 806 990 840 975 c 1,18,19
 855 975 855 975 866 982 c 128,-1,20
 877 989 877 989 884 999 c 128,-1,21
 891 1009 891 1009 895.5 1021.5 c 128,-1,22
 900 1034 900 1034 903 1044 c 1,23,-1
 930 1044 l 1,24,-1
 952 698 l 1,25,-1
 930 698 l 1,26,27
 911 762 911 762 881.5 815.5 c 128,-1,28
 852 869 852 869 810.5 908 c 128,-1,29
 769 947 769 947 714 969 c 128,-1,30
 659 991 659 991 588 991 c 0,31,32
 518 991 518 991 464.5 970.5 c 128,-1,33
 411 950 411 950 370.5 914 c 128,-1,34
 330 878 330 878 302.5 830 c 128,-1,35
 275 782 275 782 258.5 726.5 c 128,-1,36
 242 671 242 671 234.5 611.5 c 128,-1,37
 227 552 227 552 227 494 c 0,38,39
 227 403 227 403 249 321 c 128,-1,40
 271 239 271 239 317.5 177 c 128,-1,41
 364 115 364 115 436.5 79 c 128,-1,42
 509 43 509 43 610 43 c 0,43,44
 674 43 674 43 722.5 58 c 128,-1,45
 771 73 771 73 810.5 100.5 c 128,-1,46
 850 128 850 128 884 167.5 c 128,-1,47
 918 207 918 207 952 256 c 1,48,-1
 975 240 l 1,0,1
EndSplineSet
EndChar
StartChar: D
Encoding: 68 68 40
Width: 1114
GlyphClass: 2
Flags: W
LayerCount: 2
Fore
SplineSet
1055 516 m 0,0,1
 1055 386 1055 386 1012 289.5 c 128,-1,2
 969 193 969 193 892.5 128.5 c 128,-1,3
 816 64 816 64 711 32 c 128,-1,4
 606 0 606 0 483 0 c 2,5,-1
 27 0 l 1,6,-1
 27 29 l 1,7,8
 75 29 75 29 103.5 35 c 128,-1,9
 132 41 132 41 147 57.5 c 128,-1,10
 162 74 162 74 167 103.5 c 128,-1,11
 172 133 172 133 172 180 c 2,12,-1
 172 842 l 2,13,14
 172 890 172 890 168 920 c 128,-1,15
 164 950 164 950 149 966.5 c 128,-1,16
 134 983 134 983 105 989 c 128,-1,17
 76 995 76 995 27 995 c 1,18,-1
 27 1022 l 1,19,-1
 442 1022 l 2,20,21
 571 1022 571 1022 683 998 c 128,-1,22
 795 974 795 974 877.5 915.5 c 128,-1,23
 960 857 960 857 1007.5 760 c 128,-1,24
 1055 663 1055 663 1055 516 c 0,0,1
885 510 m 0,25,26
 885 605 885 605 858.5 687.5 c 128,-1,27
 832 770 832 770 779.5 832 c 128,-1,28
 727 894 727 894 650.5 929.5 c 128,-1,29
 574 965 574 965 473 965 c 0,30,31
 433 965 433 965 394.5 959 c 128,-1,32
 356 953 356 953 317 942 c 1,33,-1
 317 74 l 1,34,35
 356 66 356 66 396.5 58.5 c 128,-1,36
 437 51 437 51 477 51 c 0,37,38
 577 51 577 51 653 87.5 c 128,-1,39
 729 124 729 124 780.5 186.5 c 128,-1,40
 832 249 832 249 858.5 332.5 c 128,-1,41
 885 416 885 416 885 510 c 0,25,26
EndSplineSet
EndChar
StartChar: H
Encoding: 72 72 44
Width: 1114
GlyphClass: 2
Flags: W
LayerCount: 2
Fore
SplineSet
645 0 m 1,0,-1
 645 29 l 1,1,2
 693 29 693 29 722.5 35.5 c 128,-1,3
 752 42 752 42 767.5 58.5 c 128,-1,4
 783 75 783 75 788 104.5 c 128,-1,5
 793 134 793 134 793 180 c 2,6,-1
 793 494 l 1,7,-1
 315 494 l 1,8,-1
 315 180 l 2,9,10
 315 133 315 133 320 103.5 c 128,-1,11
 325 74 325 74 341 57.5 c 128,-1,12
 357 41 357 41 386.5 35 c 128,-1,13
 416 29 416 29 465 29 c 1,14,-1
 465 0 l 1,15,-1
 27 0 l 1,16,-1
 27 29 l 1,17,18
 76 29 76 29 105 35 c 128,-1,19
 134 41 134 41 149 57.5 c 128,-1,20
 164 74 164 74 168 103.5 c 128,-1,21
 172 133 172 133 172 180 c 2,22,-1
 172 842 l 2,23,24
 172 889 172 889 167.5 918.5 c 128,-1,25
 163 948 163 948 148 965 c 128,-1,26
 133 982 133 982 104 988.5 c 128,-1,27
 75 995 75 995 27 995 c 1,28,-1
 27 1022 l 1,29,-1
 465 1022 l 1,30,-1
 465 995 l 1,31,32
 417 995 417 995 388 988.5 c 128,-1,33
 359 982 359 982 342.5 965 c 128,-1,34
 326 948 326 948 320.5 918.5 c 128,-1,35
 315 889 315 889 315 842 c 2,36,-1
 315 549 l 1,37,-1
 793 549 l 1,38,-1
 793 842 l 2,39,40
 793 889 793 889 788 918.5 c 128,-1,41
 783 948 783 948 767.5 965 c 128,-1,42
 752 982 752 982 722.5 988.5 c 128,-1,43
 693 995 693 995 645 995 c 1,44,-1
 645 1022 l 1,45,-1
 1083 1022 l 1,46,-1
 1083 995 l 1,47,48
 1038 995 1038 995 1009.5 989.5 c 128,-1,49
 981 984 981 984 964.5 969 c 128,-1,50
 948 954 948 954 942 926.5 c 128,-1,51
 936 899 936 899 936 854 c 2,52,-1
 938 170 l 2,53,54
 938 124 938 124 944 96 c 128,-1,55
 950 68 950 68 965.5 53 c 128,-1,56
 981 38 981 38 1009.5 33.5 c 128,-1,57
 1038 29 1038 29 1083 29 c 1,58,-1
 1083 0 l 1,59,-1
 645 0 l 1,0,-1
EndSplineSet
EndChar
StartChar: J
Encoding: 74 74 46
Width: 602
GlyphClass: 2
Flags: W
LayerCount: 2
Fore
SplineSet
592 995 m 1,0,1
 543 995 543 995 514 988.5 c 128,-1,2
 485 982 485 982 470 965 c 128,-1,3
 455 948 455 948 450.5 918.5 c 128,-1,4
 446 889 446 889 446 842 c 2,5,-1
 446 342 l 2,6,7
 446 278 446 278 434 213 c 128,-1,8
 422 148 422 148 392 95 c 128,-1,9
 362 42 362 42 311.5 8.5 c 128,-1,10
 261 -25 261 -25 184 -25 c 0,11,12
 158 -25 158 -25 131 -18.5 c 128,-1,13
 104 -12 104 -12 82.5 2.5 c 128,-1,14
 61 17 61 17 47 39 c 128,-1,15
 33 61 33 61 33 92 c 0,16,17
 33 170 33 170 109 170 c 0,18,19
 130 170 130 170 144.5 159.5 c 128,-1,20
 159 149 159 149 170 134 c 128,-1,21
 181 119 181 119 189 100.5 c 128,-1,22
 197 82 197 82 205.5 67 c 128,-1,23
 214 52 214 52 223.5 41.5 c 128,-1,24
 233 31 233 31 246 31 c 0,25,26
 266 31 266 31 277 43.5 c 128,-1,27
 288 56 288 56 293.5 73.5 c 128,-1,28
 299 91 299 91 300 110 c 128,-1,29
 301 129 301 129 301 143 c 2,30,-1
 301 842 l 2,31,32
 301 888 301 888 296.5 917.5 c 128,-1,33
 292 947 292 947 277 964.5 c 128,-1,34
 262 982 262 982 233 988.5 c 128,-1,35
 204 995 204 995 154 995 c 1,36,-1
 154 1022 l 1,37,-1
 592 1022 l 1,38,-1
 592 995 l 1,0,1
EndSplineSet
EndChar
StartChar: K
Encoding: 75 75 47
Width: 1114
GlyphClass: 2
Flags: W
LayerCount: 2
Fore
SplineSet
641 0 m 1,0,-1
 641 29 l 1,1,2
 654 29 654 29 669 31 c 128,-1,3
 684 33 684 33 696.5 38.5 c 128,-1,4
 709 44 709 44 717 54 c 128,-1,5
 725 64 725 64 725 80 c 0,6,7
 725 88 725 88 718.5 99.5 c 128,-1,8
 712 111 712 111 702.5 122.5 c 128,-1,9
 693 134 693 134 683.5 144 c 128,-1,10
 674 154 674 154 668 160 c 2,11,-1
 360 467 l 1,12,-1
 315 422 l 1,13,-1
 315 180 l 2,14,15
 315 133 315 133 319.5 103.5 c 128,-1,16
 324 74 324 74 339.5 57.5 c 128,-1,17
 355 41 355 41 384 35 c 128,-1,18
 413 29 413 29 461 29 c 1,19,-1
 461 0 l 1,20,-1
 27 0 l 1,21,-1
 27 29 l 1,22,23
 76 29 76 29 104.5 35 c 128,-1,24
 133 41 133 41 147.5 57.5 c 128,-1,25
 162 74 162 74 166 103.5 c 128,-1,26
 170 133 170 133 170 180 c 2,27,-1
 170 842 l 2,28,29
 170 888 170 888 166 917.5 c 128,-1,30
 162 947 162 947 147.5 964.5 c 128,-1,31
 133 982 133 982 104.5 988.5 c 128,-1,32
 76 995 76 995 27 995 c 1,33,-1
 27 1022 l 1,34,-1
 461 1022 l 1,35,-1
 461 995 l 1,36,37
 414 995 414 995 385.5 988.5 c 128,-1,38
 357 982 357 982 341 965 c 128,-1,39
 325 948 325 948 320 918.5 c 128,-1,40
 315 889 315 889 315 842 c 2,41,-1
 315 520 l 1,42,43
 334 536 334 536 370.5 568.5 c 128,-1,44
 407 601 407 601 451 642 c 128,-1,45
 495 683 495 683 541 728.5 c 128,-1,46
 587 774 587 774 625 817 c 128,-1,47
 663 860 663 860 687 895.5 c 128,-1,48
 711 931 711 931 711 952 c 0,49,50
 711 970 711 970 701 978.5 c 128,-1,51
 691 987 691 987 676.5 991 c 128,-1,52
 662 995 662 995 646 995 c 128,-1,53
 630 995 630 995 618 995 c 1,54,-1
 618 1022 l 1,55,-1
 995 1022 l 1,56,-1
 995 995 l 1,57,58
 940 995 940 995 885.5 964.5 c 128,-1,59
 831 934 831 934 782 890.5 c 128,-1,60
 733 847 733 847 691 801 c 128,-1,61
 649 755 649 755 618 723 c 2,62,-1
 461 567 l 1,63,-1
 840 193 l 2,64,65
 872 160 872 160 903.5 131.5 c 128,-1,66
 935 103 935 103 969 82 c 128,-1,67
 1003 61 1003 61 1041.5 47.5 c 128,-1,68
 1080 34 1080 34 1128 29 c 1,69,-1
 1128 0 l 1,70,-1
 641 0 l 1,0,-1
EndSplineSet
EndChar
StartChar: L
Encoding: 76 76 48
Width: 942
GlyphClass: 2
Flags: W
LayerCount: 2
Fore
SplineSet
823 0 m 1,0,-1
 29 0 l 1,1,-1
 29 29 l 1,2,3
 65 29 65 29 93 33.5 c 128,-1,4
 121 38 121 38 139.5 51.5 c 128,-1,5
 158 65 158 65 168 90 c 128,-1,6
 178 115 178 115 178 156 c 2,7,-1
 178 866 l 2,8,9
 178 906 178 906 168 931 c 128,-1,10
 158 956 158 956 139.5 969.5 c 128,-1,11
 121 983 121 983 93 988 c 128,-1,12
 65 993 65 993 29 993 c 1,13,-1
 29 1022 l 1,14,-1
 473 1022 l 1,15,-1
 473 993 l 1,16,17
 436 993 436 993 408 988 c 128,-1,18
 380 983 380 983 361 969.5 c 128,-1,19
 342 956 342 956 332 931 c 128,-1,20
 322 906 322 906 322 866 c 2,21,-1
 322 193 l 2,22,23
 322 155 322 155 328 130.5 c 128,-1,24
 334 106 334 106 348.5 91.5 c 128,-1,25
 363 77 363 77 388 71.5 c 128,-1,26
 413 66 413 66 451 66 c 2,27,-1
 553 66 l 2,28,29
 627 66 627 66 677 74.5 c 128,-1,30
 727 83 727 83 763.5 106.5 c 128,-1,31
 800 130 800 130 828 172.5 c 128,-1,32
 856 215 856 215 885 283 c 1,33,-1
 911 279 l 1,34,-1
 823 0 l 1,0,-1
EndSplineSet
EndChar
StartChar: W
Encoding: 87 87 59
Width: 1458
GlyphClass: 2
Flags: W
LayerCount: 2
Fore
SplineSet
1444 995 m 1,0,1
 1404 995 1404 995 1378 976.5 c 128,-1,2
 1352 958 1352 958 1335 929.5 c 128,-1,3
 1318 901 1318 901 1306.5 867 c 128,-1,4
 1295 833 1295 833 1284 803 c 2,5,-1
 1001 -25 l 1,6,-1
 969 -25 l 1,7,-1
 737 629 l 1,8,-1
 506 -25 l 1,9,-1
 477 -25 l 1,10,-1
 176 825 l 2,11,12
 164 858 164 858 153.5 888.5 c 128,-1,13
 143 919 143 919 127.5 943 c 128,-1,14
 112 967 112 967 87 981 c 128,-1,15
 62 995 62 995 20 995 c 1,16,-1
 20 1022 l 1,17,-1
 397 1022 l 1,18,-1
 397 995 l 1,19,20
 382 995 382 995 364.5 993 c 128,-1,21
 347 991 347 991 332.5 985 c 128,-1,22
 318 979 318 979 308.5 967 c 128,-1,23
 299 955 299 955 299 934 c 0,24,25
 299 922 299 922 303 906 c 128,-1,26
 307 890 307 890 312 873 c 128,-1,27
 317 856 317 856 322.5 840 c 128,-1,28
 328 824 328 824 332 813 c 2,29,-1
 532 238 l 1,30,-1
 702 727 l 1,31,32
 691 764 691 764 677 810.5 c 128,-1,33
 663 857 663 857 641 898 c 128,-1,34
 619 939 619 939 586.5 967 c 128,-1,35
 554 995 554 995 506 995 c 1,36,-1
 506 1022 l 1,37,-1
 905 1022 l 1,38,-1
 905 995 l 1,39,40
 886 995 886 995 866.5 994 c 128,-1,41
 847 993 847 993 831.5 986.5 c 128,-1,42
 816 980 816 980 806.5 966.5 c 128,-1,43
 797 953 797 953 797 928 c 0,44,45
 797 897 797 897 807.5 859.5 c 128,-1,46
 818 822 818 822 829 795 c 2,47,-1
 1026 238 l 1,48,-1
 1221 803 l 2,49,50
 1225 815 1225 815 1230 831 c 128,-1,51
 1235 847 1235 847 1239.5 864 c 128,-1,52
 1244 881 1244 881 1247.5 897.5 c 128,-1,53
 1251 914 1251 914 1251 926 c 0,54,55
 1251 948 1251 948 1240.5 961.5 c 128,-1,56
 1230 975 1230 975 1213.5 982.5 c 128,-1,57
 1197 990 1197 990 1178 992.5 c 128,-1,58
 1159 995 1159 995 1141 995 c 1,59,-1
 1141 1022 l 1,60,-1
 1444 1022 l 1,61,-1
 1444 995 l 1,0,1
EndSplineSet
EndChar
StartChar: Z
Encoding: 90 90 62
Width: 942
GlyphClass: 2
Flags: W
LayerCount: 2
Fore
SplineSet
852 0 m 1,0,-1
 20 0 l 1,1,-1
 20 29 l 1,2,-1
 674 963 l 1,3,-1
 348 963 l 2,4,5
 291 963 291 963 254.5 952.5 c 128,-1,6
 218 942 218 942 195.5 919 c 128,-1,7
 173 896 173 896 160.5 858 c 128,-1,8
 148 820 148 820 139 766 c 1,9,-1
 111 766 l 1,10,-1
 133 1022 l 1,11,-1
 889 1022 l 1,12,-1
 217 61 l 1,13,-1
 635 61 l 2,14,15
 694 61 694 61 733 75.5 c 128,-1,16
 772 90 772 90 798.5 117.5 c 128,-1,17
 825 145 825 145 843 184.5 c 128,-1,18
 861 224 861 224 877 274 c 1,19,-1
 899 270 l 1,20,-1
 852 0 l 1,0,-1
EndSplineSet
EndChar
StartChar: bracketleft
Encoding: 91 91 63
Width: 690
GlyphClass: 2
Flags: W
LayerCount: 2
Fore
SplineSet
469 -242 m 1,0,-1
 193 -201 l 1,1,-1
 193 1047 l 1,2,-1
 469 1087 l 1,3,-1
 483 1008 l 1,4,-1
 295 979 l 1,5,-1
 295 -131 l 1,6,-1
 483 -162 l 1,7,-1
 469 -242 l 1,0,-1
EndSplineSet
EndChar
StartChar: bracketright
Encoding: 93 93 65
Width: 690
GlyphClass: 2
Flags: W
LayerCount: 2
Fore
SplineSet
207 -246 m 1,0,-1
 188 -168 l 1,1,-1
 381 -137 l 1,2,-1
 381 975 l 1,3,-1
 188 1006 l 1,4,-1
 207 1085 l 1,5,-1
 483 1044 l 1,6,-1
 483 -205 l 1,7,-1
 207 -246 l 1,0,-1
EndSplineSet
EndChar
StartChar: asciicircum
Encoding: 94 94 66
Width: 1485
GlyphClass: 2
Flags: W
LayerCount: 2
Fore
SplineSet
1038 14 m 1,0,-1
 743 811 l 1,1,-1
 446 14 l 1,2,-1
 354 14 l 1,3,-1
 696 905 l 1,4,-1
 788 905 l 1,5,-1
 1130 14 l 1,6,-1
 1038 14 l 1,0,-1
EndSplineSet
EndChar
StartChar: c
Encoding: 99 99 71
Width: 686
GlyphClass: 2
Flags: W
LayerCount: 2
Fore
SplineSet
635 262 m 1,0,1
 626 208 626 208 602 157 c 128,-1,2
 578 106 578 106 540.5 66 c 128,-1,3
 503 26 503 26 454 1.5 c 128,-1,4
 405 -23 405 -23 346 -23 c 0,5,6
 271 -23 271 -23 215.5 9.5 c 128,-1,7
 160 42 160 42 123.5 94.5 c 128,-1,8
 87 147 87 147 69 212.5 c 128,-1,9
 51 278 51 278 51 344 c 0,10,11
 51 416 51 416 74 482.5 c 128,-1,12
 97 549 97 549 140 600 c 128,-1,13
 183 651 183 651 244 681 c 128,-1,14
 305 711 305 711 381 711 c 0,15,16
 416 711 416 711 457 700.5 c 128,-1,17
 498 690 498 690 533 669 c 128,-1,18
 568 648 568 648 592 617 c 128,-1,19
 616 586 616 586 616 545 c 0,20,21
 616 511 616 511 596.5 496 c 128,-1,22
 577 481 577 481 545 481 c 0,23,24
 511 481 511 481 495 494.5 c 128,-1,25
 479 508 479 508 472 528 c 128,-1,26
 465 548 465 548 462 571.5 c 128,-1,27
 459 595 459 595 449.5 615 c 128,-1,28
 440 635 440 635 419 648.5 c 128,-1,29
 398 662 398 662 356 662 c 0,30,31
 306 662 306 662 271.5 638.5 c 128,-1,32
 237 615 237 615 216 578 c 128,-1,33
 195 541 195 541 185.5 496.5 c 128,-1,34
 176 452 176 452 176 410 c 0,35,36
 176 359 176 359 188 304 c 128,-1,37
 200 249 200 249 227 203 c 128,-1,38
 254 157 254 157 296.5 127.5 c 128,-1,39
 339 98 339 98 399 98 c 0,40,41
 441 98 441 98 474 112.5 c 128,-1,42
 507 127 507 127 532.5 151 c 128,-1,43
 558 175 558 175 577.5 206.5 c 128,-1,44
 597 238 597 238 612 272 c 1,45,-1
 635 262 l 1,0,1
EndSplineSet
EndChar
StartChar: d
Encoding: 100 100 72
Width: 772
GlyphClass: 2
Flags: W
LayerCount: 2
Fore
SplineSet
569 -23 m 1,0,-1
 537 -23 l 1,1,-1
 537 78 l 1,2,3
 495 34 495 34 444.5 5.5 c 128,-1,4
 394 -23 394 -23 334 -23 c 0,5,6
 267 -23 267 -23 214 7 c 128,-1,7
 161 37 161 37 125 85.5 c 128,-1,8
 89 134 89 134 70 194.5 c 128,-1,9
 51 255 51 255 51 315 c 0,10,11
 51 387 51 387 74 457.5 c 128,-1,12
 97 528 97 528 140.5 584.5 c 128,-1,13
 184 641 184 641 246.5 676 c 128,-1,14
 309 711 309 711 387 711 c 0,15,16
 429 711 429 711 467.5 697.5 c 128,-1,17
 506 684 506 684 537 653 c 1,18,-1
 537 797 l 2,19,20
 537 813 537 813 538 842.5 c 128,-1,21
 539 872 539 872 535.5 901 c 128,-1,22
 532 930 532 930 520.5 951.5 c 128,-1,23
 509 973 509 973 483 973 c 0,24,25
 469 973 469 973 456.5 970.5 c 128,-1,26
 444 968 444 968 430 963 c 1,27,-1
 420 989 l 1,28,-1
 629 1071 l 1,29,-1
 662 1071 l 1,30,-1
 662 272 l 2,31,32
 662 261 662 261 661 242 c 128,-1,33
 660 223 660 223 660 201.5 c 128,-1,34
 660 180 660 180 662 158 c 128,-1,35
 664 136 664 136 670 118 c 128,-1,36
 676 100 676 100 687.5 89 c 128,-1,37
 699 78 699 78 717 78 c 0,38,39
 729 78 729 78 742.5 81.5 c 128,-1,40
 756 85 756 85 770 90 c 1,41,-1
 778 63 l 1,42,-1
 569 -23 l 1,0,-1
537 487 m 2,43,44
 537 519 537 519 525 551 c 128,-1,45
 513 583 513 583 491.5 608.5 c 128,-1,46
 470 634 470 634 441 650 c 128,-1,47
 412 666 412 666 377 666 c 0,48,49
 323 666 323 666 287 637 c 128,-1,50
 251 608 251 608 229.5 564.5 c 128,-1,51
 208 521 208 521 199 470.5 c 128,-1,52
 190 420 190 420 190 377 c 0,53,54
 190 329 190 329 201 274 c 128,-1,55
 212 219 212 219 236.5 171.5 c 128,-1,56
 261 124 261 124 301.5 92.5 c 128,-1,57
 342 61 342 61 401 61 c 0,58,59
 442 61 442 61 476.5 81.5 c 128,-1,60
 511 102 511 102 537 131 c 1,61,-1
 537 487 l 2,43,44
EndSplineSet
EndChar
StartChar: j
Encoding: 106 106 78
Width: 430
GlyphClass: 2
Flags: W
LayerCount: 2
Fore
SplineSet
301 926 m 0,0,1
 301 894 301 894 278 871 c 128,-1,2
 255 848 255 848 223 848 c 256,3,4
 191 848 191 848 169 870 c 128,-1,5
 147 892 147 892 147 926 c 0,6,7
 147 957 147 957 169.5 979 c 128,-1,8
 192 1001 192 1001 223 1001 c 256,9,10
 254 1001 254 1001 277.5 979 c 128,-1,11
 301 957 301 957 301 926 c 0,0,1
289 14 m 2,12,13
 289 -53 289 -53 275 -115.5 c 128,-1,14
 261 -178 261 -178 229 -226.5 c 128,-1,15
 197 -275 197 -275 145 -304.5 c 128,-1,16
 93 -334 93 -334 16 -334 c 0,17,18
 0 -334 0 -334 -23 -330 c 128,-1,19
 -46 -326 -46 -326 -67.5 -317 c 128,-1,20
 -89 -308 -89 -308 -104 -293.5 c 128,-1,21
 -119 -279 -119 -279 -119 -258 c 0,22,23
 -119 -232 -119 -232 -101 -212.5 c 128,-1,24
 -83 -193 -83 -193 -57 -193 c 256,25,26
 -31 -193 -31 -193 -11.5 -205.5 c 128,-1,27
 8 -218 8 -218 24.5 -232.5 c 128,-1,28
 41 -247 41 -247 57.5 -259.5 c 128,-1,29
 74 -272 74 -272 94 -272 c 0,30,31
 123 -272 123 -272 137.5 -249.5 c 128,-1,32
 152 -227 152 -227 158 -196 c 128,-1,33
 164 -165 164 -165 164 -133 c 128,-1,34
 164 -101 164 -101 164 -82 c 2,35,-1
 164 432 l 2,36,37
 164 449 164 449 165 479 c 128,-1,38
 166 509 166 509 162 538 c 128,-1,39
 158 567 158 567 146 588.5 c 128,-1,40
 134 610 134 610 109 610 c 0,41,42
 85 610 85 610 57 600 c 1,43,-1
 47 627 l 1,44,-1
 256 711 l 1,45,-1
 289 711 l 1,46,-1
 289 14 l 2,12,13
EndSplineSet
EndChar
StartChar: l
Encoding: 108 108 80
Width: 430
GlyphClass: 2
Flags: W
LayerCount: 2
Fore
SplineSet
57 0 m 1,0,-1
 57 29 l 1,1,2
 93 29 93 29 113.5 37.5 c 128,-1,3
 134 46 134 46 144.5 62 c 128,-1,4
 155 78 155 78 157.5 101.5 c 128,-1,5
 160 125 160 125 160 156 c 2,6,-1
 160 799 l 2,7,8
 160 817 160 817 161.5 846 c 128,-1,9
 163 875 163 875 159 903.5 c 128,-1,10
 155 932 155 932 143 952.5 c 128,-1,11
 131 973 131 973 104 973 c 0,12,13
 92 973 92 973 81 970.5 c 128,-1,14
 70 968 70 968 57 963 c 1,15,-1
 45 989 l 1,16,-1
 252 1071 l 1,17,-1
 285 1071 l 1,18,-1
 285 156 l 2,19,20
 285 121 285 121 288.5 97 c 128,-1,21
 292 73 292 73 303.5 58 c 128,-1,22
 315 43 315 43 337.5 36 c 128,-1,23
 360 29 360 29 397 29 c 1,24,-1
 397 0 l 1,25,-1
 57 0 l 1,0,-1
EndSplineSet
EndChar
StartChar: n
Encoding: 110 110 82
Width: 772
GlyphClass: 2
Flags: W
LayerCount: 2
Fore
SplineSet
424 0 m 1,0,-1
 424 29 l 1,1,2
 463 29 463 29 485.5 35 c 128,-1,3
 508 41 508 41 519.5 55.5 c 128,-1,4
 531 70 531 70 534 94.5 c 128,-1,5
 537 119 537 119 537 156 c 2,6,-1
 537 438 l 2,7,8
 537 467 537 467 534.5 499 c 128,-1,9
 532 531 532 531 521 557.5 c 128,-1,10
 510 584 510 584 488 601 c 128,-1,11
 466 618 466 618 428 618 c 0,12,13
 401 618 401 618 376 609.5 c 128,-1,14
 351 601 351 601 328.5 587.5 c 128,-1,15
 306 574 306 574 286.5 556 c 128,-1,16
 267 538 267 538 250 520 c 1,17,-1
 250 156 l 2,18,19
 250 120 250 120 253 95.5 c 128,-1,20
 256 71 256 71 267 56 c 128,-1,21
 278 41 278 41 300.5 35 c 128,-1,22
 323 29 323 29 362 29 c 1,23,-1
 362 0 l 1,24,-1
 18 0 l 1,25,-1
 18 29 l 1,26,27
 56 29 56 29 77 36.5 c 128,-1,28
 98 44 98 44 108.5 59.5 c 128,-1,29
 119 75 119 75 121 99 c 128,-1,30
 123 123 123 123 123 156 c 2,31,-1
 123 414 l 2,32,33
 123 430 123 430 124 463 c 128,-1,34
 125 496 125 496 121.5 529 c 128,-1,35
 118 562 118 562 106.5 587 c 128,-1,36
 95 612 95 612 70 612 c 0,37,38
 57 612 57 612 44 608.5 c 128,-1,39
 31 605 31 605 18 600 c 1,40,-1
 8 627 l 1,41,-1
 219 711 l 1,42,-1
 250 711 l 1,43,-1
 250 565 l 1,44,45
 271 591 271 591 296.5 617 c 128,-1,46
 322 643 322 643 351 664 c 128,-1,47
 380 685 380 685 413 698 c 128,-1,48
 446 711 446 711 481 711 c 0,49,50
 537 711 537 711 572.5 688 c 128,-1,51
 608 665 608 665 628 627.5 c 128,-1,52
 648 590 648 590 655 544 c 128,-1,53
 662 498 662 498 662 451 c 2,54,-1
 662 156 l 2,55,56
 662 123 662 123 665 99 c 128,-1,57
 668 75 668 75 678.5 59.5 c 128,-1,58
 689 44 689 44 711 36.5 c 128,-1,59
 733 29 733 29 770 29 c 1,60,-1
 770 0 l 1,61,-1
 424 0 l 1,0,-1
EndSplineSet
EndChar
StartChar: o
Encoding: 111 111 83
Width: 772
GlyphClass: 2
Flags: W
LayerCount: 2
Fore
SplineSet
719 358 m 0,0,1
 719 283 719 283 695.5 214 c 128,-1,2
 672 145 672 145 628 92.5 c 128,-1,3
 584 40 584 40 521 8.5 c 128,-1,4
 458 -23 458 -23 379 -23 c 0,5,6
 304 -23 304 -23 243.5 7.5 c 128,-1,7
 183 38 183 38 140.5 88 c 128,-1,8
 98 138 98 138 74.5 203 c 128,-1,9
 51 268 51 268 51 338 c 0,10,11
 51 411 51 411 74.5 478.5 c 128,-1,12
 98 546 98 546 142 597.5 c 128,-1,13
 186 649 186 649 248 680 c 128,-1,14
 310 711 310 711 387 711 c 0,15,16
 462 711 462 711 523.5 683.5 c 128,-1,17
 585 656 585 656 628.5 608 c 128,-1,18
 672 560 672 560 695.5 495.5 c 128,-1,19
 719 431 719 431 719 358 c 0,0,1
578 299 m 0,20,21
 578 332 578 332 574 372 c 128,-1,22
 570 412 570 412 560 452.5 c 128,-1,23
 550 493 550 493 534 530.5 c 128,-1,24
 518 568 518 568 494 597.5 c 128,-1,25
 470 627 470 627 437.5 644.5 c 128,-1,26
 405 662 405 662 362 662 c 0,27,28
 311 662 311 662 278 636.5 c 128,-1,29
 245 611 245 611 226 572.5 c 128,-1,30
 207 534 207 534 200 488 c 128,-1,31
 193 442 193 442 193 401 c 0,32,33
 193 368 193 368 197.5 328 c 128,-1,34
 202 288 202 288 212 247 c 128,-1,35
 222 206 222 206 238.5 167.5 c 128,-1,36
 255 129 255 129 279 99 c 128,-1,37
 303 69 303 69 335.5 51 c 128,-1,38
 368 33 368 33 410 33 c 0,39,40
 464 33 464 33 497 58.5 c 128,-1,41
 530 84 530 84 548 123.5 c 128,-1,42
 566 163 566 163 572 210 c 128,-1,43
 578 257 578 257 578 299 c 0,20,21
EndSplineSet
EndChar
StartChar: p
Encoding: 112 112 84
Width: 772
GlyphClass: 2
Flags: W
LayerCount: 2
Fore
SplineSet
721 371 m 0,0,1
 721 301 721 301 701 230.5 c 128,-1,2
 681 160 681 160 641 104 c 128,-1,3
 601 48 601 48 541.5 12.5 c 128,-1,4
 482 -23 482 -23 403 -23 c 0,5,6
 357 -23 357 -23 315.5 -7 c 128,-1,7
 274 9 274 9 240 41 c 1,8,-1
 240 -170 l 2,9,10
 240 -208 240 -208 243 -233 c 128,-1,11
 246 -258 246 -258 257.5 -273 c 128,-1,12
 269 -288 269 -288 292.5 -295 c 128,-1,13
 316 -302 316 -302 356 -303 c 1,14,-1
 356 -332 l 1,15,-1
 -8 -332 l 1,16,-1
 -8 -303 l 1,17,18
 34 -302 34 -302 58 -295.5 c 128,-1,19
 82 -289 82 -289 93.5 -274 c 128,-1,20
 105 -259 105 -259 108 -233 c 128,-1,21
 111 -207 111 -207 111 -166 c 2,22,-1
 111 487 l 2,23,24
 111 504 111 504 111.5 525 c 128,-1,25
 112 546 112 546 107.5 564.5 c 128,-1,26
 103 583 103 583 91.5 595.5 c 128,-1,27
 80 608 80 608 55 608 c 0,28,29
 28 608 28 608 4 596 c 1,30,-1
 -4 623 l 1,31,-1
 211 709 l 1,32,-1
 240 709 l 1,33,-1
 240 547 l 1,34,35
 258 578 258 578 280 607.5 c 128,-1,36
 302 637 302 637 329.5 660 c 128,-1,37
 357 683 357 683 389.5 697 c 128,-1,38
 422 711 422 711 461 711 c 0,39,40
 529 711 529 711 578 679.5 c 128,-1,41
 627 648 627 648 658.5 599 c 128,-1,42
 690 550 690 550 705.5 489.5 c 128,-1,43
 721 429 721 429 721 371 c 0,0,1
600 299 m 0,44,45
 600 347 600 347 591.5 402.5 c 128,-1,46
 583 458 583 458 561 506 c 128,-1,47
 539 554 539 554 500.5 586 c 128,-1,48
 462 618 462 618 401 618 c 0,49,50
 377 618 377 618 354 606 c 128,-1,51
 331 594 331 594 310.5 576.5 c 128,-1,52
 290 559 290 559 272.5 539 c 128,-1,53
 255 519 255 519 240 502 c 1,54,-1
 240 244 l 2,55,56
 240 201 240 201 245 161.5 c 128,-1,57
 250 122 250 122 267 91.5 c 128,-1,58
 284 61 284 61 315.5 43 c 128,-1,59
 347 25 347 25 401 25 c 0,60,61
 457 25 457 25 495 50.5 c 128,-1,62
 533 76 533 76 556 116 c 128,-1,63
 579 156 579 156 589.5 204.5 c 128,-1,64
 600 253 600 253 600 299 c 0,44,45
EndSplineSet
EndChar
StartChar: q
Encoding: 113 113 85
Width: 772
GlyphClass: 2
Flags: W
LayerCount: 2
Fore
SplineSet
424 -332 m 1,0,-1
 424 -303 l 1,1,2
 462 -303 462 -303 484 -297 c 128,-1,3
 506 -291 506 -291 518 -276.5 c 128,-1,4
 530 -262 530 -262 533.5 -238 c 128,-1,5
 537 -214 537 -214 537 -178 c 2,6,-1
 537 121 l 1,7,8
 516 96 516 96 490.5 70 c 128,-1,9
 465 44 465 44 436.5 23.5 c 128,-1,10
 408 3 408 3 376 -10 c 128,-1,11
 344 -23 344 -23 309 -23 c 0,12,13
 244 -23 244 -23 195.5 8.5 c 128,-1,14
 147 40 147 40 115 89.5 c 128,-1,15
 83 139 83 139 67 198.5 c 128,-1,16
 51 258 51 258 51 315 c 0,17,18
 51 393 51 393 75.5 465 c 128,-1,19
 100 537 100 537 145.5 591.5 c 128,-1,20
 191 646 191 646 257.5 678.5 c 128,-1,21
 324 711 324 711 408 711 c 0,22,23
 445 711 445 711 483 701 c 128,-1,24
 521 691 521 691 549 662 c 1,25,26
 595 683 595 683 635 711 c 1,27,-1
 662 711 l 1,28,-1
 662 -178 l 2,29,30
 662 -213 662 -213 665.5 -237 c 128,-1,31
 669 -261 669 -261 680.5 -275.5 c 128,-1,32
 692 -290 692 -290 714.5 -296.5 c 128,-1,33
 737 -303 737 -303 774 -303 c 1,34,-1
 774 -332 l 1,35,-1
 424 -332 l 1,0,-1
537 492 m 2,36,37
 537 569 537 569 501 613 c 128,-1,38
 465 657 465 657 383 657 c 0,39,40
 325 657 325 657 285.5 630 c 128,-1,41
 246 603 246 603 222 561.5 c 128,-1,42
 198 520 198 520 188 469.5 c 128,-1,43
 178 419 178 419 178 371 c 0,44,45
 178 322 178 322 189 271 c 128,-1,46
 200 220 200 220 225 178.5 c 128,-1,47
 250 137 250 137 289.5 110.5 c 128,-1,48
 329 84 329 84 387 84 c 0,49,50
 432 84 432 84 470 109 c 128,-1,51
 508 134 508 134 537 166 c 1,52,-1
 537 492 l 2,36,37
EndSplineSet
EndChar
StartChar: r
Encoding: 114 114 86
Width: 528
GlyphClass: 2
Flags: W
LayerCount: 2
Fore
SplineSet
526 627 m 0,0,1
 526 599 526 599 505.5 578 c 128,-1,2
 485 557 485 557 457 557 c 0,3,4
 440 557 440 557 425.5 565.5 c 128,-1,5
 411 574 411 574 397.5 583.5 c 128,-1,6
 384 593 384 593 372.5 601.5 c 128,-1,7
 361 610 361 610 350 610 c 0,8,9
 335 610 335 610 319.5 595.5 c 128,-1,10
 304 581 304 581 290.5 561.5 c 128,-1,11
 277 542 277 542 266 523 c 128,-1,12
 255 504 255 504 250 494 c 1,13,-1
 250 160 l 2,14,15
 250 94 250 94 275 61.5 c 128,-1,16
 300 29 300 29 371 29 c 1,17,-1
 371 0 l 1,18,-1
 14 0 l 1,19,-1
 14 29 l 1,20,21
 53 29 53 29 74.5 35 c 128,-1,22
 96 41 96 41 107 56 c 128,-1,23
 118 71 118 71 120.5 95.5 c 128,-1,24
 123 120 123 120 123 156 c 2,25,-1
 123 434 l 2,26,27
 123 446 123 446 122.5 470 c 128,-1,28
 122 494 122 494 120 520 c 128,-1,29
 118 546 118 546 113.5 569 c 128,-1,30
 109 592 109 592 100 602 c 1,31,32
 84 610 84 610 61 610 c 0,33,34
 39 610 39 610 14 600 c 1,35,-1
 6 627 l 1,36,-1
 219 711 l 1,37,-1
 250 711 l 1,38,-1
 250 555 l 1,39,40
 263 579 263 579 281 606 c 128,-1,41
 299 633 299 633 321.5 656.5 c 128,-1,42
 344 680 344 680 370.5 695.5 c 128,-1,43
 397 711 397 711 428 711 c 0,44,45
 446 711 446 711 464 705.5 c 128,-1,46
 482 700 482 700 495.5 689 c 128,-1,47
 509 678 509 678 517.5 662.5 c 128,-1,48
 526 647 526 647 526 627 c 0,0,1
EndSplineSet
EndChar
StartChar: s
Encoding: 115 115 87
Width: 602
GlyphClass: 2
Flags: W
LayerCount: 2
Fore
SplineSet
547 174 m 0,0,1
 547 129 547 129 526 93 c 128,-1,2
 505 57 505 57 472 31 c 128,-1,3
 439 5 439 5 397.5 -9 c 128,-1,4
 356 -23 356 -23 315 -23 c 0,5,6
 291 -23 291 -23 265.5 -15.5 c 128,-1,7
 240 -8 240 -8 216 1 c 128,-1,8
 192 10 192 10 170.5 17.5 c 128,-1,9
 149 25 149 25 131 25 c 0,10,11
 127 25 127 25 122.5 20.5 c 128,-1,12
 118 16 118 16 114.5 10.5 c 128,-1,13
 111 5 111 5 108.5 -1 c 128,-1,14
 106 -7 106 -7 104 -10 c 2,15,-1
 78 -10 l 1,16,-1
 78 236 l 1,17,-1
 104 236 l 1,18,19
 112 195 112 195 129 157 c 128,-1,20
 146 119 146 119 172.5 89.5 c 128,-1,21
 199 60 199 60 234.5 42.5 c 128,-1,22
 270 25 270 25 315 25 c 0,23,24
 338 25 338 25 359.5 31.5 c 128,-1,25
 381 38 381 38 397.5 51 c 128,-1,26
 414 64 414 64 424 83 c 128,-1,27
 434 102 434 102 434 127 c 0,28,29
 434 175 434 175 407.5 207.5 c 128,-1,30
 381 240 381 240 341 265 c 128,-1,31
 301 290 301 290 255 312.5 c 128,-1,32
 209 335 209 335 169 363.5 c 128,-1,33
 129 392 129 392 102.5 430.5 c 128,-1,34
 76 469 76 469 76 526 c 0,35,36
 76 574 76 574 95 608.5 c 128,-1,37
 114 643 114 643 145 666 c 128,-1,38
 176 689 176 689 216.5 700 c 128,-1,39
 257 711 257 711 299 711 c 0,40,41
 319 711 319 711 338 707 c 128,-1,42
 357 703 357 703 376 697.5 c 128,-1,43
 395 692 395 692 413.5 688 c 128,-1,44
 432 684 432 684 451 684 c 0,45,46
 463 684 463 684 470.5 692 c 128,-1,47
 478 700 478 700 483 711 c 1,48,-1
 510 711 l 1,49,-1
 510 475 l 1,50,-1
 483 475 l 1,51,52
 475 512 475 512 460.5 546.5 c 128,-1,53
 446 581 446 581 424 608 c 128,-1,54
 402 635 402 635 370.5 651.5 c 128,-1,55
 339 668 339 668 297 668 c 0,56,57
 275 668 275 668 251.5 664 c 128,-1,58
 228 660 228 660 208.5 650 c 128,-1,59
 189 640 189 640 176.5 622 c 128,-1,60
 164 604 164 604 164 575 c 0,61,62
 164 525 164 525 192.5 493.5 c 128,-1,63
 221 462 221 462 263.5 438.5 c 128,-1,64
 306 415 306 415 355.5 394 c 128,-1,65
 405 373 405 373 447.5 345.5 c 128,-1,66
 490 318 490 318 518.5 277.5 c 128,-1,67
 547 237 547 237 547 174 c 0,0,1
EndSplineSet
EndChar
StartChar: t
Encoding: 116 116 88
Width: 430
GlyphClass: 2
Flags: W
LayerCount: 2
Fore
SplineSet
430 127 m 1,0,1
 422 99 422 99 406 72 c 128,-1,2
 390 45 390 45 367.5 24 c 128,-1,3
 345 3 345 3 317.5 -10 c 128,-1,4
 290 -23 290 -23 258 -23 c 0,5,6
 218 -23 218 -23 191.5 -7.5 c 128,-1,7
 165 8 165 8 149 33.5 c 128,-1,8
 133 59 133 59 127 92 c 128,-1,9
 121 125 121 125 121 160 c 2,10,-1
 121 639 l 1,11,-1
 12 639 l 1,12,-1
 12 662 l 1,13,14
 51 677 51 677 83.5 705 c 128,-1,15
 116 733 116 733 142.5 768.5 c 128,-1,16
 169 804 169 804 189.5 843 c 128,-1,17
 210 882 210 882 225 918 c 1,18,-1
 248 918 l 1,19,-1
 248 690 l 1,20,-1
 410 690 l 1,21,-1
 410 639 l 1,22,-1
 248 639 l 1,23,-1
 248 178 l 2,24,25
 248 161 248 161 250.5 141 c 128,-1,26
 253 121 253 121 260 103.5 c 128,-1,27
 267 86 267 86 280.5 74.5 c 128,-1,28
 294 63 294 63 315 63 c 0,29,30
 349 63 349 63 369 80.5 c 128,-1,31
 389 98 389 98 401 127 c 1,32,-1
 430 127 l 1,0,1
EndSplineSet
EndChar
StartChar: u
Encoding: 117 117 89
Width: 772
GlyphClass: 2
Flags: W
LayerCount: 2
Fore
SplineSet
565 -23 m 1,0,-1
 530 -23 l 1,1,-1
 530 125 l 1,2,3
 507 100 507 100 481 74 c 128,-1,4
 455 48 455 48 425.5 26.5 c 128,-1,5
 396 5 396 5 363.5 -9 c 128,-1,6
 331 -23 331 -23 295 -23 c 0,7,8
 239 -23 239 -23 204 2 c 128,-1,9
 169 27 169 27 149.5 66 c 128,-1,10
 130 105 130 105 123.5 153 c 128,-1,11
 117 201 117 201 117 246 c 2,12,-1
 117 555 l 2,13,14
 117 589 117 589 111 610 c 128,-1,15
 105 631 105 631 91 642.5 c 128,-1,16
 77 654 77 654 54.5 658 c 128,-1,17
 32 662 32 662 0 662 c 1,18,-1
 0 690 l 1,19,-1
 244 690 l 1,20,-1
 244 229 l 2,21,22
 244 199 244 199 248.5 171 c 128,-1,23
 253 143 253 143 265.5 121 c 128,-1,24
 278 99 278 99 300.5 85.5 c 128,-1,25
 323 72 323 72 358 72 c 0,26,27
 383 72 383 72 407 81 c 128,-1,28
 431 90 431 90 453 104 c 128,-1,29
 475 118 475 118 494.5 135.5 c 128,-1,30
 514 153 514 153 530 170 c 1,31,-1
 530 561 l 2,32,33
 530 593 530 593 523.5 612.5 c 128,-1,34
 517 632 517 632 503.5 643 c 128,-1,35
 490 654 490 654 468.5 658 c 128,-1,36
 447 662 447 662 418 662 c 1,37,-1
 418 690 l 1,38,-1
 655 690 l 1,39,-1
 655 182 l 2,40,41
 655 171 655 171 656 153 c 128,-1,42
 657 135 657 135 661.5 118.5 c 128,-1,43
 666 102 666 102 675.5 90 c 128,-1,44
 685 78 685 78 702 78 c 0,45,46
 733 78 733 78 764 90 c 1,47,-1
 774 63 l 1,48,-1
 565 -23 l 1,0,-1
EndSplineSet
EndChar
StartChar: w
Encoding: 119 119 91
Width: 1114
GlyphClass: 2
Flags: W
LayerCount: 2
Fore
SplineSet
1102 662 m 1,0,1
 1065 657 1065 657 1041.5 633.5 c 128,-1,2
 1018 610 1018 610 1004 575 c 2,3,-1
 774 -23 l 1,4,-1
 743 -23 l 1,5,-1
 569 420 l 1,6,-1
 371 -23 l 1,7,-1
 342 -23 l 1,8,-1
 119 559 l 2,9,10
 110 583 110 583 101.5 600.5 c 128,-1,11
 93 618 93 618 81 630 c 128,-1,12
 69 642 69 642 52 649.5 c 128,-1,13
 35 657 35 657 8 662 c 1,14,-1
 8 690 l 1,15,-1
 299 690 l 1,16,-1
 299 662 l 1,17,18
 274 662 274 662 255 653.5 c 128,-1,19
 236 645 236 645 236 614 c 0,20,21
 236 600 236 600 238.5 585.5 c 128,-1,22
 241 571 241 571 246 559 c 2,23,-1
 395 162 l 1,24,-1
 543 485 l 1,25,26
 530 521 530 521 521 552.5 c 128,-1,27
 512 584 512 584 497.5 608 c 128,-1,28
 483 632 483 632 460 646.5 c 128,-1,29
 437 661 437 661 395 662 c 1,30,-1
 395 690 l 1,31,-1
 725 690 l 1,32,-1
 725 662 l 1,33,34
 708 661 708 661 691.5 659 c 128,-1,35
 675 657 675 657 661.5 651.5 c 128,-1,36
 648 646 648 646 639.5 634.5 c 128,-1,37
 631 623 631 623 631 602 c 0,38,39
 631 594 631 594 641.5 563 c 128,-1,40
 652 532 652 532 668.5 489 c 128,-1,41
 685 446 685 446 705 397.5 c 128,-1,42
 725 349 725 349 743.5 304.5 c 128,-1,43
 762 260 762 260 776.5 225.5 c 128,-1,44
 791 191 791 191 797 178 c 1,45,-1
 940 559 l 2,46,47
 946 575 946 575 951 591.5 c 128,-1,48
 956 608 956 608 956 625 c 0,49,50
 956 638 956 638 948.5 645.5 c 128,-1,51
 941 653 941 653 929.5 656.5 c 128,-1,52
 918 660 918 660 905.5 661 c 128,-1,53
 893 662 893 662 883 662 c 1,54,-1
 883 690 l 1,55,-1
 1102 690 l 1,56,-1
 1102 662 l 1,0,1
EndSplineSet
EndChar
StartChar: y
Encoding: 121 121 93
Width: 772
GlyphClass: 2
Flags: W
LayerCount: 2
Fore
SplineSet
764 662 m 1,0,1
 740 660 740 660 724 651 c 128,-1,2
 708 642 708 642 696.5 628 c 128,-1,3
 685 614 685 614 677.5 596 c 128,-1,4
 670 578 670 578 662 559 c 2,5,-1
 381 -131 l 2,6,7
 366 -166 366 -166 343.5 -202.5 c 128,-1,8
 321 -239 321 -239 291 -268 c 128,-1,9
 261 -297 261 -297 225 -315.5 c 128,-1,10
 189 -334 189 -334 147 -334 c 0,11,12
 128 -334 128 -334 109.5 -328.5 c 128,-1,13
 91 -323 91 -323 77 -312 c 128,-1,14
 63 -301 63 -301 54 -285 c 128,-1,15
 45 -269 45 -269 45 -248 c 0,16,17
 45 -211 45 -211 66 -195.5 c 128,-1,18
 87 -180 87 -180 121 -180 c 0,19,20
 135 -180 135 -180 148.5 -184 c 128,-1,21
 162 -188 162 -188 175.5 -193.5 c 128,-1,22
 189 -199 189 -199 202 -203 c 128,-1,23
 215 -207 215 -207 227 -207 c 0,24,25
 247 -207 247 -207 265 -192.5 c 128,-1,26
 283 -178 283 -178 298.5 -155.5 c 128,-1,27
 314 -133 314 -133 327 -105.5 c 128,-1,28
 340 -78 340 -78 350.5 -52 c 128,-1,29
 361 -26 361 -26 368.5 -4 c 128,-1,30
 376 18 376 18 381 29 c 1,31,-1
 133 549 l 2,32,33
 123 569 123 569 111.5 588 c 128,-1,34
 100 607 100 607 85.5 622.5 c 128,-1,35
 71 638 71 638 52.5 648.5 c 128,-1,36
 34 659 34 659 8 662 c 1,37,-1
 8 690 l 1,38,-1
 332 690 l 1,39,-1
 332 662 l 1,40,41
 317 662 317 662 302 661 c 128,-1,42
 287 660 287 660 274.5 655.5 c 128,-1,43
 262 651 262 651 254 641 c 128,-1,44
 246 631 246 631 246 612 c 0,45,46
 246 591 246 591 254.5 570 c 128,-1,47
 263 549 263 549 272 530 c 2,48,-1
 440 182 l 1,49,-1
 594 565 l 2,50,51
 600 579 600 579 605 591.5 c 128,-1,52
 610 604 610 604 610 621 c 0,53,54
 610 636 610 636 603.5 644.5 c 128,-1,55
 597 653 597 653 586.5 657 c 128,-1,56
 576 661 576 661 563.5 661.5 c 128,-1,57
 551 662 551 662 539 662 c 1,58,-1
 539 690 l 1,59,-1
 764 690 l 1,60,-1
 764 662 l 1,0,1
EndSplineSet
EndChar
StartChar: z
Encoding: 122 122 94
Width: 686
GlyphClass: 2
Flags: W
LayerCount: 2
Fore
SplineSet
197 51 m 1,0,-1
 451 51 l 2,1,2
 504 51 504 51 535 57.5 c 128,-1,3
 566 64 566 64 583.5 81.5 c 128,-1,4
 601 99 601 99 609 130 c 128,-1,5
 617 161 617 161 623 211 c 1,6,-1
 649 211 l 1,7,-1
 639 0 l 1,8,-1
 31 0 l 1,9,-1
 31 29 l 1,10,-1
 489 639 l 1,11,-1
 262 639 l 2,12,13
 219 639 219 639 191 634 c 128,-1,14
 163 629 163 629 146 614 c 128,-1,15
 129 599 129 599 120 571.5 c 128,-1,16
 111 544 111 544 106 500 c 1,17,-1
 78 500 l 1,18,-1
 82 690 l 1,19,-1
 662 690 l 1,20,-1
 662 662 l 1,21,-1
 197 51 l 1,0,-1
EndSplineSet
EndChar
StartChar: braceright
Encoding: 125 125 97
Width: 737
GlyphClass: 2
Flags: W
LayerCount: 2
Fore
SplineSet
573 350 m 1,0,1
 543 346 543 346 512 332.5 c 128,-1,2
 481 319 481 319 456.5 297.5 c 128,-1,3
 432 276 432 276 416.5 247.5 c 128,-1,4
 401 219 401 219 401 186 c 0,5,6
 401 157 401 157 406 128.5 c 128,-1,7
 411 100 411 100 417.5 71.5 c 128,-1,8
 424 43 424 43 429 14.5 c 128,-1,9
 434 -14 434 -14 434 -43 c 0,10,11
 434 -100 434 -100 410.5 -150 c 128,-1,12
 387 -200 387 -200 348 -238.5 c 128,-1,13
 309 -277 309 -277 258.5 -301.5 c 128,-1,14
 208 -326 208 -326 154 -332 c 1,15,-1
 154 -305 l 1,16,17
 232 -287 232 -287 277 -238.5 c 128,-1,18
 322 -190 322 -190 322 -106 c 0,19,20
 322 -80 322 -80 317 -54.5 c 128,-1,21
 312 -29 312 -29 305.5 -3.5 c 128,-1,22
 299 22 299 22 294 47.5 c 128,-1,23
 289 73 289 73 289 100 c 0,24,25
 289 153 289 153 304 195 c 128,-1,26
 319 237 319 237 346 270.5 c 128,-1,27
 373 304 373 304 411 328.5 c 128,-1,28
 449 353 449 353 496 371 c 1,29,30
 402 405 402 405 345.5 469.5 c 128,-1,31
 289 534 289 534 289 637 c 0,32,33
 289 664 289 664 294 690 c 128,-1,34
 299 716 299 716 305.5 742 c 128,-1,35
 312 768 312 768 317 794 c 128,-1,36
 322 820 322 820 322 846 c 0,37,38
 322 929 322 929 277 977.5 c 128,-1,39
 232 1026 232 1026 154 1044 c 1,40,-1
 154 1071 l 1,41,42
 207 1066 207 1066 257.5 1042.5 c 128,-1,43
 308 1019 308 1019 347 982.5 c 128,-1,44
 386 946 386 946 410 897.5 c 128,-1,45
 434 849 434 849 434 793 c 0,46,47
 434 762 434 762 429 732 c 128,-1,48
 424 702 424 702 417.5 672 c 128,-1,49
 411 642 411 642 406 612 c 128,-1,50
 401 582 401 582 401 551 c 0,51,52
 401 518 401 518 416.5 490 c 128,-1,53
 432 462 432 462 456.5 441 c 128,-1,54
 481 420 481 420 512 406.5 c 128,-1,55
 543 393 543 393 573 389 c 1,56,-1
 573 350 l 1,0,1
EndSplineSet
EndChar
StartChar: cent
Encoding: 162 162 128
Width: 772
Flags: W
LayerCount: 2
Fore
SplineSet
678 262 m 1,0,1
 669 208 669 208 645 157 c 128,-1,2
 621 106 621 106 583.5 66 c 128,-1,3
 546 26 546 26 497 1.5 c 128,-1,4
 448 -23 448 -23 389 -23 c 0,5,6
 361 -23 361 -23 335 -17 c 128,-1,7
 309 -11 309 -11 283 0 c 1,8,-1
 180 -285 l 1,9,-1
 127 -285 l 1,10,-1
 240 25 l 1,11,12
 200 52 200 52 172 87.5 c 128,-1,13
 144 123 144 123 127 164 c 128,-1,14
 110 205 110 205 102 250.5 c 128,-1,15
 94 296 94 296 94 344 c 0,16,17
 94 416 94 416 117 482.5 c 128,-1,18
 140 549 140 549 183 600 c 128,-1,19
 226 651 226 651 287 681 c 128,-1,20
 348 711 348 711 424 711 c 0,21,22
 457 711 457 711 487 705 c 1,23,-1
 594 999 l 1,24,-1
 647 999 l 1,25,-1
 537 690 l 1,26,27
 557 682 557 682 578.5 667 c 128,-1,28
 600 652 600 652 618 633 c 128,-1,29
 636 614 636 614 647.5 591.5 c 128,-1,30
 659 569 659 569 659 545 c 0,31,32
 659 511 659 511 639.5 496 c 128,-1,33
 620 481 620 481 588 481 c 0,34,35
 557 481 557 481 541.5 491 c 128,-1,36
 526 501 526 501 519 517 c 128,-1,37
 512 533 512 533 509.5 553 c 128,-1,38
 507 573 507 573 500 594 c 1,39,-1
 332 133 l 1,40,41
 357 116 357 116 385 107 c 128,-1,42
 413 98 413 98 442 98 c 0,43,44
 484 98 484 98 517 112.5 c 128,-1,45
 550 127 550 127 575.5 151 c 128,-1,46
 601 175 601 175 620.5 206.5 c 128,-1,47
 640 238 640 238 655 272 c 1,48,-1
 678 262 l 1,0,1
465 645 m 1,49,50
 435 662 435 662 399 662 c 0,51,52
 349 662 349 662 314.5 638.5 c 128,-1,53
 280 615 280 615 259 578 c 128,-1,54
 238 541 238 541 228.5 496.5 c 128,-1,55
 219 452 219 452 219 410 c 0,56,57
 219 347 219 347 234.5 284 c 128,-1,58
 250 221 250 221 293 170 c 1,59,-1
 465 645 l 1,49,50
EndSplineSet
EndChar
StartChar: sterling
Encoding: 163 163 129
Width: 772
Flags: W
LayerCount: 2
Fore
SplineSet
737 229 m 1,0,1
 732 186 732 186 715.5 141.5 c 128,-1,2
 699 97 699 97 672 62 c 128,-1,3
 645 27 645 27 607 4.5 c 128,-1,4
 569 -18 569 -18 520 -18 c 0,5,6
 483 -18 483 -18 451 -6.5 c 128,-1,7
 419 5 419 5 389 22.5 c 128,-1,8
 359 40 359 40 331 61.5 c 128,-1,9
 303 83 303 83 274 104 c 1,10,11
 264 83 264 83 250.5 61 c 128,-1,12
 237 39 237 39 220 21.5 c 128,-1,13
 203 4 203 4 181 -7 c 128,-1,14
 159 -18 159 -18 133 -18 c 0,15,16
 87 -18 87 -18 66 8 c 128,-1,17
 45 34 45 34 45 78 c 0,18,19
 45 134 45 134 80.5 165.5 c 128,-1,20
 116 197 116 197 170 197 c 0,21,22
 185 197 185 197 201.5 195.5 c 128,-1,23
 218 194 218 194 233 190 c 1,24,25
 235 203 235 203 235.5 215 c 128,-1,26
 236 227 236 227 236 240 c 0,27,28
 236 305 236 305 230.5 369 c 128,-1,29
 225 433 225 433 219 498 c 1,30,-1
 74 498 l 1,31,-1
 74 569 l 1,32,-1
 219 569 l 1,33,34
 217 606 217 606 213 643.5 c 128,-1,35
 209 681 209 681 209 719 c 0,36,37
 209 781 209 781 227.5 839.5 c 128,-1,38
 246 898 246 898 281.5 943.5 c 128,-1,39
 317 989 317 989 369.5 1016.5 c 128,-1,40
 422 1044 422 1044 489 1044 c 0,41,42
 523 1044 523 1044 557 1034 c 128,-1,43
 591 1024 591 1024 618.5 1004 c 128,-1,44
 646 984 646 984 663 955.5 c 128,-1,45
 680 927 680 927 680 889 c 0,46,47
 680 867 680 867 663 847 c 128,-1,48
 646 827 646 827 623 827 c 0,49,50
 595 827 595 827 584 840 c 128,-1,51
 573 853 573 853 569 872 c 128,-1,52
 565 891 565 891 564 914 c 128,-1,53
 563 937 563 937 555 956 c 128,-1,54
 547 975 547 975 528.5 988 c 128,-1,55
 510 1001 510 1001 471 1001 c 0,56,57
 427 1001 427 1001 400 981 c 128,-1,58
 373 961 373 961 358.5 930.5 c 128,-1,59
 344 900 344 900 339 863 c 128,-1,60
 334 826 334 826 334 791 c 0,61,62
 334 735 334 735 339.5 679 c 128,-1,63
 345 623 345 623 350 569 c 1,64,-1
 545 569 l 1,65,-1
 545 498 l 1,66,-1
 350 498 l 1,67,68
 350 455 350 455 348.5 414.5 c 128,-1,69
 347 374 347 374 342.5 334.5 c 128,-1,70
 338 295 338 295 329 256 c 128,-1,71
 320 217 320 217 305 176 c 1,72,73
 326 169 326 169 358.5 159 c 128,-1,74
 391 149 391 149 426.5 139 c 128,-1,75
 462 129 462 129 495 122 c 128,-1,76
 528 115 528 115 549 115 c 0,77,78
 674 115 674 115 709 236 c 1,79,-1
 737 229 l 1,0,1
225 129 m 1,80,81
 198 150 198 150 160 150 c 0,82,83
 128 150 128 150 109 134.5 c 128,-1,84
 90 119 90 119 90 84 c 0,85,86
 90 59 90 59 100.5 43 c 128,-1,87
 111 27 111 27 139 27 c 0,88,89
 159 27 159 27 173.5 37 c 128,-1,90
 188 47 188 47 198.5 62.5 c 128,-1,91
 209 78 209 78 215 96 c 128,-1,92
 221 114 221 114 225 129 c 1,80,81
EndSplineSet
EndChar
StartChar: currency
Encoding: 164 164 130
Width: 891
Flags: W
LayerCount: 2
Fore
SplineSet
793 238 m 1,0,-1
 639 391 l 1,1,2
 599 356 599 356 551 339 c 128,-1,3
 503 322 503 322 449 322 c 0,4,5
 393 322 393 322 343.5 338 c 128,-1,6
 294 354 294 354 252 391 c 1,7,-1
 98 238 l 1,8,-1
 45 291 l 1,9,-1
 197 444 l 1,10,11
 165 485 165 485 149 533.5 c 128,-1,12
 133 582 133 582 133 635 c 256,13,14
 133 688 133 688 148.5 738.5 c 128,-1,15
 164 789 164 789 201 829 c 1,16,-1
 45 985 l 1,17,-1
 98 1040 l 1,18,-1
 254 883 l 1,19,20
 296 917 296 917 346 932.5 c 128,-1,21
 396 948 396 948 449 948 c 0,22,23
 501 948 501 948 548 932.5 c 128,-1,24
 595 917 595 917 635 883 c 1,25,-1
 793 1040 l 1,26,-1
 846 985 l 1,27,-1
 692 831 l 1,28,29
 726 789 726 789 742 739 c 128,-1,30
 758 689 758 689 758 635 c 0,31,32
 758 582 758 582 742 533.5 c 128,-1,33
 726 485 726 485 694 444 c 1,34,-1
 846 291 l 1,35,-1
 793 238 l 1,0,-1
674 635 m 256,36,37
 674 682 674 682 656.5 723.5 c 128,-1,38
 639 765 639 765 608 796.5 c 128,-1,39
 577 828 577 828 536.5 846 c 128,-1,40
 496 864 496 864 449 864 c 0,41,42
 400 864 400 864 358 846.5 c 128,-1,43
 316 829 316 829 284.5 798 c 128,-1,44
 253 767 253 767 235 725 c 128,-1,45
 217 683 217 683 217 635 c 256,46,47
 217 587 217 587 235 545 c 128,-1,48
 253 503 253 503 284.5 472 c 128,-1,49
 316 441 316 441 358 423.5 c 128,-1,50
 400 406 400 406 449 406 c 0,51,52
 496 406 496 406 537 424 c 128,-1,53
 578 442 578 442 608.5 473.5 c 128,-1,54
 639 505 639 505 656.5 546.5 c 128,-1,55
 674 588 674 588 674 635 c 256,36,37
EndSplineSet
EndChar
StartChar: brokenbar
Encoding: 166 166 132
Width: 467
Flags: W
LayerCount: 2
Fore
SplineSet
197 500 m 1,0,-1
 197 1094 l 1,1,-1
 272 1094 l 1,2,-1
 272 500 l 1,3,-1
 197 500 l 1,0,-1
197 -295 m 1,4,-1
 197 299 l 1,5,-1
 272 299 l 1,6,-1
 272 -295 l 1,7,-1
 197 -295 l 1,4,-1
EndSplineSet
EndChar
StartChar: section
Encoding: 167 167 133
Width: 772
Flags: W
LayerCount: 2
Fore
SplineSet
655 362 m 0,0,1
 655 319 655 319 642.5 281.5 c 128,-1,2
 630 244 630 244 607.5 212 c 128,-1,3
 585 180 585 180 555 153.5 c 128,-1,4
 525 127 525 127 489 104 c 1,5,6
 525 66 525 66 552.5 18 c 128,-1,7
 580 -30 580 -30 580 -86 c 0,8,9
 580 -132 580 -132 564 -171.5 c 128,-1,10
 548 -211 548 -211 519 -239.5 c 128,-1,11
 490 -268 490 -268 451 -284.5 c 128,-1,12
 412 -301 412 -301 365 -301 c 0,13,14
 329 -301 329 -301 295 -289 c 128,-1,15
 261 -277 261 -277 235 -254.5 c 128,-1,16
 209 -232 209 -232 193.5 -201.5 c 128,-1,17
 178 -171 178 -171 178 -133 c 0,18,19
 178 -107 178 -107 193 -86.5 c 128,-1,20
 208 -66 208 -66 236 -66 c 0,21,22
 263 -66 263 -66 279 -86 c 128,-1,23
 295 -106 295 -106 295 -131 c 0,24,25
 295 -151 295 -151 288 -172 c 128,-1,26
 281 -193 281 -193 281 -213 c 0,27,28
 281 -229 281 -229 290.5 -240.5 c 128,-1,29
 300 -252 300 -252 313.5 -259 c 128,-1,30
 327 -266 327 -266 343 -269 c 128,-1,31
 359 -272 359 -272 371 -272 c 0,32,33
 395 -272 395 -272 418.5 -262 c 128,-1,34
 442 -252 442 -252 461 -235 c 128,-1,35
 480 -218 480 -218 492 -196 c 128,-1,36
 504 -174 504 -174 504 -150 c 0,37,38
 504 -101 504 -101 475.5 -60.5 c 128,-1,39
 447 -20 447 -20 404 18 c 128,-1,40
 361 56 361 56 310.5 94 c 128,-1,41
 260 132 260 132 217 174.5 c 128,-1,42
 174 217 174 217 145.5 267.5 c 128,-1,43
 117 318 117 318 117 381 c 0,44,45
 117 424 117 424 129.5 461 c 128,-1,46
 142 498 142 498 164.5 529.5 c 128,-1,47
 187 561 187 561 217 587.5 c 128,-1,48
 247 614 247 614 283 635 c 1,49,50
 267 655 267 655 250.5 678 c 128,-1,51
 234 701 234 701 220.5 726 c 128,-1,52
 207 751 207 751 198.5 777.5 c 128,-1,53
 190 804 190 804 190 831 c 0,54,55
 190 875 190 875 207 913.5 c 128,-1,56
 224 952 224 952 253 981 c 128,-1,57
 282 1010 282 1010 321 1027 c 128,-1,58
 360 1044 360 1044 403 1044 c 0,59,60
 440 1044 440 1044 475 1033 c 128,-1,61
 510 1022 510 1022 537 1000.5 c 128,-1,62
 564 979 564 979 580 948 c 128,-1,63
 596 917 596 917 596 877 c 0,64,65
 596 848 596 848 582.5 828.5 c 128,-1,66
 569 809 569 809 537 809 c 0,67,68
 514 809 514 809 495.5 826 c 128,-1,69
 477 843 477 843 477 866 c 0,70,71
 477 885 477 885 482 903 c 128,-1,72
 487 921 487 921 487 940 c 0,73,74
 487 980 487 980 464 996 c 128,-1,75
 441 1012 441 1012 403 1012 c 0,76,77
 375 1012 375 1012 351 1002 c 128,-1,78
 327 992 327 992 309.5 974.5 c 128,-1,79
 292 957 292 957 282 933 c 128,-1,80
 272 909 272 909 272 881 c 0,81,82
 272 832 272 832 300.5 792.5 c 128,-1,83
 329 753 329 753 371.5 716.5 c 128,-1,84
 414 680 414 680 463.5 644 c 128,-1,85
 513 608 513 608 555.5 566.5 c 128,-1,86
 598 525 598 525 626.5 475.5 c 128,-1,87
 655 426 655 426 655 362 c 0,0,1
309 612 m 1,88,89
 285 598 285 598 264 581 c 128,-1,90
 243 564 243 564 227.5 543 c 128,-1,91
 212 522 212 522 202.5 497.5 c 128,-1,92
 193 473 193 473 193 444 c 0,93,94
 193 405 193 405 207 373.5 c 128,-1,95
 221 342 221 342 244 315 c 128,-1,96
 267 288 267 288 296.5 264.5 c 128,-1,97
 326 241 326 241 356 218.5 c 128,-1,98
 386 196 386 196 414 174 c 128,-1,99
 442 152 442 152 463 127 c 1,100,101
 485 141 485 141 506 158 c 128,-1,102
 527 175 527 175 543 196 c 128,-1,103
 559 217 559 217 568.5 242 c 128,-1,104
 578 267 578 267 578 295 c 0,105,106
 578 344 578 344 548.5 389 c 128,-1,107
 519 434 519 434 477 474.5 c 128,-1,108
 435 515 435 515 389 549.5 c 128,-1,109
 343 584 343 584 309 612 c 1,88,89
EndSplineSet
EndChar
StartChar: dieresis
Encoding: 168 168 134
Width: 461
Flags: W
LayerCount: 2
Fore
SplineSet
461 926 m 0,0,1
 461 910 461 910 455 895.5 c 128,-1,2
 449 881 449 881 438.5 870.5 c 128,-1,3
 428 860 428 860 414 854 c 128,-1,4
 400 848 400 848 385 848 c 0,5,6
 354 848 354 848 330.5 871.5 c 128,-1,7
 307 895 307 895 307 926 c 0,8,9
 307 941 307 941 313.5 954.5 c 128,-1,10
 320 968 320 968 331 978.5 c 128,-1,11
 342 989 342 989 356 995 c 128,-1,12
 370 1001 370 1001 385 1001 c 0,13,14
 416 1001 416 1001 438.5 979 c 128,-1,15
 461 957 461 957 461 926 c 0,0,1
154 926 m 0,16,17
 154 910 154 910 147.5 895.5 c 128,-1,18
 141 881 141 881 130.5 870.5 c 128,-1,19
 120 860 120 860 105.5 854 c 128,-1,20
 91 848 91 848 76 848 c 0,21,22
 45 848 45 848 22.5 871.5 c 128,-1,23
 0 895 0 895 0 926 c 0,24,25
 0 941 0 941 6.5 954.5 c 128,-1,26
 13 968 13 968 23.5 978.5 c 128,-1,27
 34 989 34 989 47.5 995 c 128,-1,28
 61 1001 61 1001 76 1001 c 0,29,30
 107 1001 107 1001 130.5 979 c 128,-1,31
 154 957 154 957 154 926 c 0,16,17
EndSplineSet
EndChar
StartChar: copyright
Encoding: 169 169 135
Width: 1174
Flags: W
LayerCount: 2
Fore
SplineSet
1122 510 m 0,0,1
 1122 398 1122 398 1080.5 300.5 c 128,-1,2
 1039 203 1039 203 967 130.5 c 128,-1,3
 895 58 895 58 797 16.5 c 128,-1,4
 699 -25 699 -25 586 -25 c 256,5,6
 473 -25 473 -25 375.5 16.5 c 128,-1,7
 278 58 278 58 206 130 c 128,-1,8
 134 202 134 202 92.5 299.5 c 128,-1,9
 51 397 51 397 51 510 c 0,10,11
 51 624 51 624 92.5 721.5 c 128,-1,12
 134 819 134 819 206 890.5 c 128,-1,13
 278 962 278 962 375.5 1003 c 128,-1,14
 473 1044 473 1044 586 1044 c 0,15,16
 700 1044 700 1044 798 1003 c 128,-1,17
 896 962 896 962 968 890.5 c 128,-1,18
 1040 819 1040 819 1081 721.5 c 128,-1,19
 1122 624 1122 624 1122 510 c 0,0,1
1075 510 m 0,20,21
 1075 613 1075 613 1037 702 c 128,-1,22
 999 791 999 791 933 857 c 128,-1,23
 867 923 867 923 778 961 c 128,-1,24
 689 999 689 999 586 999 c 0,25,26
 484 999 484 999 395 961 c 128,-1,27
 306 923 306 923 240.5 856.5 c 128,-1,28
 175 790 175 790 137.5 701 c 128,-1,29
 100 612 100 612 100 510 c 256,30,31
 100 408 100 408 137.5 319.5 c 128,-1,32
 175 231 175 231 240.5 165.5 c 128,-1,33
 306 100 306 100 395 62.5 c 128,-1,34
 484 25 484 25 586 25 c 0,35,36
 689 25 689 25 778 62.5 c 128,-1,37
 867 100 867 100 933 165.5 c 128,-1,38
 999 231 999 231 1037 319.5 c 128,-1,39
 1075 408 1075 408 1075 510 c 0,20,21
879 324 m 1,40,41
 826 248 826 248 753.5 209 c 128,-1,42
 681 170 681 170 590 170 c 0,43,44
 518 170 518 170 454 195 c 128,-1,45
 390 220 390 220 342.5 264.5 c 128,-1,46
 295 309 295 309 267.5 370.5 c 128,-1,47
 240 432 240 432 240 506 c 0,48,49
 240 587 240 587 270 652 c 128,-1,50
 300 717 300 717 351 762.5 c 128,-1,51
 402 808 402 808 470.5 832 c 128,-1,52
 539 856 539 856 616 856 c 0,53,54
 640 856 640 856 665 850.5 c 128,-1,55
 690 845 690 845 712.5 838.5 c 128,-1,56
 735 832 735 832 753.5 826.5 c 128,-1,57
 772 821 772 821 784 821 c 0,58,59
 798 821 798 821 807 832.5 c 128,-1,60
 816 844 816 844 821 856 c 1,61,-1
 850 856 l 1,62,-1
 866 645 l 1,63,-1
 838 645 l 1,64,65
 810 727 810 727 754.5 774 c 128,-1,66
 699 821 699 821 608 821 c 0,67,68
 544 821 544 821 497.5 797 c 128,-1,69
 451 773 451 773 422 732.5 c 128,-1,70
 393 692 393 692 379 639 c 128,-1,71
 365 586 365 586 365 528 c 0,72,73
 365 468 365 468 378.5 412 c 128,-1,74
 392 356 392 356 421.5 313 c 128,-1,75
 451 270 451 270 499 244.5 c 128,-1,76
 547 219 547 219 616 219 c 0,77,78
 767 219 767 219 850 340 c 1,79,-1
 879 324 l 1,40,41
EndSplineSet
EndChar
StartChar: guillemotleft
Encoding: 171 171 137
Width: 772
Flags: W
LayerCount: 2
Fore
SplineSet
680 -6 m 1,0,-1
 383 350 l 1,1,-1
 680 705 l 1,2,-1
 723 705 l 1,3,-1
 539 350 l 1,4,-1
 723 -6 l 1,5,-1
 680 -6 l 1,0,-1
340 -6 m 1,6,-1
 47 350 l 1,7,-1
 340 705 l 1,8,-1
 381 705 l 1,9,-1
 197 350 l 1,10,-1
 381 -6 l 1,11,-1
 340 -6 l 1,6,-1
EndSplineSet
EndChar
StartChar: degree
Encoding: 176 176 144
Width: 475
Flags: W
LayerCount: 2
Fore
SplineSet
401 905 m 0,0,1
 401 871 401 871 388.5 841.5 c 128,-1,2
 376 812 376 812 354 790 c 128,-1,3
 332 768 332 768 302.5 755.5 c 128,-1,4
 273 743 273 743 238 743 c 256,5,6
 203 743 203 743 173 755.5 c 128,-1,7
 143 768 143 768 121 790 c 128,-1,8
 99 812 99 812 86.5 841.5 c 128,-1,9
 74 871 74 871 74 905 c 0,10,11
 74 940 74 940 86.5 969.5 c 128,-1,12
 99 999 99 999 121 1021.5 c 128,-1,13
 143 1044 143 1044 173 1056.5 c 128,-1,14
 203 1069 203 1069 238 1069 c 256,15,16
 273 1069 273 1069 302.5 1056.5 c 128,-1,17
 332 1044 332 1044 354 1021.5 c 128,-1,18
 376 999 376 999 388.5 969.5 c 128,-1,19
 401 940 401 940 401 905 c 0,0,1
342 905 m 0,20,21
 342 927 342 927 334 946 c 128,-1,22
 326 965 326 965 311.5 979.5 c 128,-1,23
 297 994 297 994 278 1002 c 128,-1,24
 259 1010 259 1010 238 1010 c 0,25,26
 216 1010 216 1010 197 1002 c 128,-1,27
 178 994 178 994 164 979.5 c 128,-1,28
 150 965 150 965 141.5 946 c 128,-1,29
 133 927 133 927 133 905 c 0,30,31
 133 884 133 884 141.5 865 c 128,-1,32
 150 846 150 846 164 832.5 c 128,-1,33
 178 819 178 819 197 811 c 128,-1,34
 216 803 216 803 238 803 c 0,35,36
 259 803 259 803 278 811 c 128,-1,37
 297 819 297 819 311.5 832.5 c 128,-1,38
 326 846 326 846 334 865 c 128,-1,39
 342 884 342 884 342 905 c 0,20,21
EndSplineSet
EndChar
StartChar: plusminus
Encoding: 177 177 145
Width: 1485
Flags: W
LayerCount: 2
Fore
SplineSet
788 532 m 1,0,-1
 788 264 l 1,1,-1
 696 264 l 1,2,-1
 696 532 l 1,3,-1
 297 532 l 1,4,-1
 297 625 l 1,5,-1
 696 625 l 1,6,-1
 696 891 l 1,7,-1
 788 891 l 1,8,-1
 788 625 l 1,9,-1
 1188 625 l 1,10,-1
 1188 532 l 1,11,-1
 788 532 l 1,0,-1
297 0 m 1,12,-1
 297 92 l 1,13,-1
 1188 92 l 1,14,-1
 1188 0 l 1,15,-1
 297 0 l 1,12,-1
EndSplineSet
EndChar
StartChar: threesuperior
Encoding: 179 179 147
Width: 543
Flags: W
LayerCount: 2
Fore
SplineSet
457 596 m 0,0,1
 457 537 457 537 430 496 c 128,-1,2
 403 455 403 455 361 429.5 c 128,-1,3
 319 404 319 404 267.5 392.5 c 128,-1,4
 216 381 216 381 166 381 c 0,5,6
 154 381 154 381 133 382 c 128,-1,7
 112 383 112 383 91.5 388 c 128,-1,8
 71 393 71 393 56 402.5 c 128,-1,9
 41 412 41 412 41 430 c 0,10,11
 41 450 41 450 54 455.5 c 128,-1,12
 67 461 67 461 84 461 c 0,13,14
 102 461 102 461 119.5 454.5 c 128,-1,15
 137 448 137 448 156 440.5 c 128,-1,16
 175 433 175 433 196 426.5 c 128,-1,17
 217 420 217 420 240 420 c 0,18,19
 264 420 264 420 288.5 429 c 128,-1,20
 313 438 313 438 332.5 453.5 c 128,-1,21
 352 469 352 469 364.5 491.5 c 128,-1,22
 377 514 377 514 377 541 c 0,23,24
 377 587 377 587 358 617 c 128,-1,25
 339 647 339 647 308.5 664 c 128,-1,26
 278 681 278 681 240 688 c 128,-1,27
 202 695 202 695 164 696 c 1,28,-1
 164 711 l 1,29,30
 193 714 193 714 222.5 724 c 128,-1,31
 252 734 252 734 276.5 751.5 c 128,-1,32
 301 769 301 769 316.5 794 c 128,-1,33
 332 819 332 819 332 852 c 0,34,35
 332 878 332 878 321.5 897.5 c 128,-1,36
 311 917 311 917 294 930 c 128,-1,37
 277 943 277 943 255 949.5 c 128,-1,38
 233 956 233 956 209 956 c 0,39,40
 164 956 164 956 129 936 c 128,-1,41
 94 916 94 916 68 881 c 1,42,-1
 51 889 l 1,43,44
 82 948 82 948 131.5 983 c 128,-1,45
 181 1018 181 1018 250 1018 c 0,46,47
 278 1018 278 1018 308 1011 c 128,-1,48
 338 1004 338 1004 363 989 c 128,-1,49
 388 974 388 974 404 950.5 c 128,-1,50
 420 927 420 927 420 893 c 0,51,52
 420 872 420 872 410.5 852 c 128,-1,53
 401 832 401 832 387 814.5 c 128,-1,54
 373 797 373 797 355.5 782 c 128,-1,55
 338 767 338 767 322 756 c 1,56,57
 351 747 351 747 375.5 732.5 c 128,-1,58
 400 718 400 718 418 698.5 c 128,-1,59
 436 679 436 679 446.5 653.5 c 128,-1,60
 457 628 457 628 457 596 c 0,0,1
EndSplineSet
EndChar
StartChar: acute
Encoding: 180 180 148
Width: 528
Flags: W
LayerCount: 2
Fore
SplineSet
434 1001 m 0,0,1
 434 989 434 989 428 978 c 128,-1,2
 422 967 422 967 412.5 957.5 c 128,-1,3
 403 948 403 948 392.5 940 c 128,-1,4
 382 932 382 932 373 926 c 2,5,-1
 150 786 l 1,6,-1
 88 786 l 1,7,-1
 301 1001 l 2,8,9
 320 1020 320 1020 343.5 1035.5 c 128,-1,10
 367 1051 367 1051 395 1051 c 0,11,12
 402 1051 402 1051 409 1046 c 128,-1,13
 416 1041 416 1041 421.5 1033.5 c 128,-1,14
 427 1026 427 1026 430.5 1017 c 128,-1,15
 434 1008 434 1008 434 1001 c 0,0,1
EndSplineSet
EndChar
StartChar: paragraph
Encoding: 182 182 150
Width: 698
Flags: W
LayerCount: 2
Fore
SplineSet
602 981 m 1,0,-1
 602 -334 l 1,1,-1
 547 -334 l 1,2,-1
 547 981 l 1,3,-1
 408 981 l 1,4,-1
 408 -334 l 1,5,-1
 352 -334 l 1,6,-1
 352 455 l 1,7,8
 281 457 281 457 215.5 470.5 c 128,-1,9
 150 484 150 484 100 516.5 c 128,-1,10
 50 549 50 549 20 603 c 128,-1,11
 -10 657 -10 657 -10 739 c 0,12,13
 -10 815 -10 815 17.5 869 c 128,-1,14
 45 923 45 923 91.5 957 c 128,-1,15
 138 991 138 991 199.5 1006.5 c 128,-1,16
 261 1022 261 1022 330 1022 c 2,17,-1
 702 1022 l 1,18,-1
 702 981 l 1,19,-1
 602 981 l 1,0,-1
EndSplineSet
EndChar
StartChar: cedilla
Encoding: 184 184 153
Width: 362
Flags: W
LayerCount: 2
Fore
SplineSet
342 -203 m 0,0,1
 342 -239 342 -239 322 -263.5 c 128,-1,2
 302 -288 302 -288 272 -303.5 c 128,-1,3
 242 -319 242 -319 207 -325.5 c 128,-1,4
 172 -332 172 -332 143 -332 c 0,5,6
 81 -332 81 -332 18 -309 c 1,7,-1
 41 -260 l 1,8,9
 90 -279 90 -279 137 -279 c 0,10,11
 154 -279 154 -279 170 -276 c 128,-1,12
 186 -273 186 -273 199 -265.5 c 128,-1,13
 212 -258 212 -258 219.5 -245.5 c 128,-1,14
 227 -233 227 -233 227 -213 c 0,15,16
 227 -179 227 -179 207 -166.5 c 128,-1,17
 187 -154 187 -154 156 -154 c 0,18,19
 142 -154 142 -154 128 -155.5 c 128,-1,20
 114 -157 114 -157 100 -162 c 1,21,-1
 90 -154 l 1,22,-1
 154 0 l 1,23,-1
 209 0 l 1,24,-1
 170 -100 l 1,25,26
 181 -98 181 -98 191.5 -97 c 128,-1,27
 202 -96 202 -96 213 -96 c 0,28,29
 239 -96 239 -96 262 -102.5 c 128,-1,30
 285 -109 285 -109 303 -122 c 128,-1,31
 321 -135 321 -135 331.5 -155 c 128,-1,32
 342 -175 342 -175 342 -203 c 0,0,1
EndSplineSet
EndChar
StartChar: onesuperior
Encoding: 185 185 154
Width: 543
Flags: W
LayerCount: 2
Fore
SplineSet
137 387 m 1,0,-1
 137 403 l 1,1,2
 168 403 168 403 186.5 405.5 c 128,-1,3
 205 408 205 408 215 418 c 128,-1,4
 225 428 225 428 228 446.5 c 128,-1,5
 231 465 231 465 231 496 c 2,6,-1
 231 842 l 2,7,8
 231 855 231 855 231.5 872 c 128,-1,9
 232 889 232 889 229 904 c 128,-1,10
 226 919 226 919 217 929.5 c 128,-1,11
 208 940 208 940 188 940 c 0,12,13
 174 940 174 940 160 936 c 128,-1,14
 146 932 146 932 133 926 c 1,15,-1
 125 942 l 1,16,-1
 303 1014 l 1,17,-1
 322 1014 l 1,18,-1
 322 496 l 2,19,20
 322 465 322 465 325 446.5 c 128,-1,21
 328 428 328 428 337.5 418 c 128,-1,22
 347 408 347 408 365 405.5 c 128,-1,23
 383 403 383 403 414 403 c 1,24,-1
 414 387 l 1,25,-1
 137 387 l 1,0,-1
EndSplineSet
EndChar
StartChar: ordmasculine
Encoding: 186 186 155
Width: 566
Flags: W
LayerCount: 2
Fore
SplineSet
523 823 m 0,0,1
 523 783 523 783 507.5 742 c 128,-1,2
 492 701 492 701 461.5 668 c 128,-1,3
 431 635 431 635 385.5 614.5 c 128,-1,4
 340 594 340 594 279 594 c 0,5,6
 227 594 227 594 183.5 611.5 c 128,-1,7
 140 629 140 629 109 659 c 128,-1,8
 78 689 78 689 60.5 728.5 c 128,-1,9
 43 768 43 768 43 811 c 0,10,11
 43 853 43 853 59.5 893 c 128,-1,12
 76 933 76 933 107 964.5 c 128,-1,13
 138 996 138 996 182.5 1015 c 128,-1,14
 227 1034 227 1034 284 1034 c 0,15,16
 338 1034 338 1034 382 1017.5 c 128,-1,17
 426 1001 426 1001 457.5 972.5 c 128,-1,18
 489 944 489 944 506 905.5 c 128,-1,19
 523 867 523 867 523 823 c 0,0,1
52 493 m 1,20,-1
 52 526 l 1,21,-1
 516 526 l 1,22,-1
 516 493 l 1,23,-1
 52 493 l 1,20,-1
422 787 m 0,24,25
 422 833 422 833 411.5 873 c 128,-1,26
 401 913 401 913 381 942 c 128,-1,27
 361 971 361 971 332.5 988 c 128,-1,28
 304 1005 304 1005 268 1005 c 0,29,30
 247 1005 247 1005 225 997.5 c 128,-1,31
 203 990 203 990 185 971.5 c 128,-1,32
 167 953 167 953 155.5 923 c 128,-1,33
 144 893 144 893 144 848 c 0,34,35
 144 804 144 804 155.5 764 c 128,-1,36
 167 724 167 724 187.5 693.5 c 128,-1,37
 208 663 208 663 237 645 c 128,-1,38
 266 627 266 627 302 627 c 0,39,40
 329 627 329 627 351 635.5 c 128,-1,41
 373 644 373 644 388.5 663 c 128,-1,42
 404 682 404 682 413 712.5 c 128,-1,43
 422 743 422 743 422 787 c 0,24,25
EndSplineSet
EndChar
StartChar: onehalf
Encoding: 189 189 157
Width: 1188
Flags: W
LayerCount: 2
Fore
SplineSet
1018 -6 m 1,0,-1
 653 -6 l 1,1,-1
 653 12 l 1,2,3
 679 35 679 35 710.5 64 c 128,-1,4
 742 93 742 93 774.5 126 c 128,-1,5
 807 159 807 159 838 195 c 128,-1,6
 869 231 869 231 893 269 c 128,-1,7
 917 307 917 307 931.5 345.5 c 128,-1,8
 946 384 946 384 946 422 c 0,9,10
 946 448 946 448 937.5 472.5 c 128,-1,11
 929 497 929 497 913 516 c 128,-1,12
 897 535 897 535 874.5 546 c 128,-1,13
 852 557 852 557 823 557 c 0,14,15
 771 557 771 557 738 529.5 c 128,-1,16
 705 502 705 502 688 453 c 1,17,-1
 672 453 l 1,18,19
 677 490 677 490 690 521.5 c 128,-1,20
 703 553 703 553 724.5 576.5 c 128,-1,21
 746 600 746 600 777 613.5 c 128,-1,22
 808 627 808 627 848 627 c 0,23,24
 883 627 883 627 915 615.5 c 128,-1,25
 947 604 947 604 971 582.5 c 128,-1,26
 995 561 995 561 1009.5 531 c 128,-1,27
 1024 501 1024 501 1024 463 c 0,28,29
 1024 410 1024 410 994.5 355 c 128,-1,30
 965 300 965 300 923 247.5 c 128,-1,31
 881 195 881 195 834 147.5 c 128,-1,32
 787 100 787 100 752 63 c 1,33,-1
 913 63 l 2,34,35
 936 63 936 63 954 63 c 128,-1,36
 972 63 972 63 987.5 67.5 c 128,-1,37
 1003 72 1003 72 1017 82.5 c 128,-1,38
 1031 93 1031 93 1044 113 c 1,39,-1
 1063 113 l 1,40,-1
 1018 -6 l 1,0,-1
272 -12 m 1,41,-1
 199 -12 l 1,42,-1
 850 1040 l 1,43,-1
 922 1040 l 1,44,-1
 272 -12 l 1,41,-1
135 395 m 1,45,-1
 135 414 l 1,46,47
 163 414 163 414 179 417 c 128,-1,48
 195 420 195 420 203 429 c 128,-1,49
 211 438 211 438 213 454.5 c 128,-1,50
 215 471 215 471 215 498 c 2,51,-1
 215 852 l 2,52,53
 215 862 215 862 215.5 879 c 128,-1,54
 216 896 216 896 213 912 c 128,-1,55
 210 928 210 928 202.5 940 c 128,-1,56
 195 952 195 952 180 952 c 0,57,58
 166 952 166 952 154 948 c 128,-1,59
 142 944 142 944 131 938 c 1,60,-1
 125 954 l 1,61,-1
 274 1028 l 1,62,-1
 291 1028 l 1,63,-1
 291 506 l 2,64,65
 291 478 291 478 292 460 c 128,-1,66
 293 442 293 442 300.5 431.5 c 128,-1,67
 308 421 308 421 324 417.5 c 128,-1,68
 340 414 340 414 371 414 c 1,69,-1
 371 395 l 1,70,-1
 135 395 l 1,45,-1
EndSplineSet
EndChar
StartChar: threequarters
Encoding: 190 190 158
Width: 1188
Flags: W
LayerCount: 2
Fore
SplineSet
979 160 m 1,0,-1
 979 -6 l 1,1,-1
 903 -6 l 1,2,-1
 903 160 l 1,3,-1
 639 160 l 1,4,-1
 639 215 l 1,5,-1
 928 627 l 1,6,-1
 979 627 l 1,7,-1
 979 223 l 1,8,-1
 1061 223 l 1,9,-1
 1061 160 l 1,10,-1
 979 160 l 1,0,-1
322 -12 m 1,11,-1
 246 -12 l 1,12,-1
 948 1040 l 1,13,-1
 1018 1040 l 1,14,-1
 322 -12 l 1,11,-1
479 600 m 0,15,16
 479 546 479 546 459.5 505.5 c 128,-1,17
 440 465 440 465 407 438 c 128,-1,18
 374 411 374 411 330 397 c 128,-1,19
 286 383 286 383 236 383 c 0,20,21
 223 383 223 383 204.5 384 c 128,-1,22
 186 385 186 385 168.5 390 c 128,-1,23
 151 395 151 395 139 405.5 c 128,-1,24
 127 416 127 416 127 434 c 0,25,26
 127 451 127 451 137.5 458 c 128,-1,27
 148 465 148 465 164 465 c 0,28,29
 179 465 179 465 193.5 458.5 c 128,-1,30
 208 452 208 452 224.5 444.5 c 128,-1,31
 241 437 241 437 258.5 430.5 c 128,-1,32
 276 424 276 424 297 424 c 0,33,34
 321 424 321 424 342.5 434 c 128,-1,35
 364 444 364 444 380 460.5 c 128,-1,36
 396 477 396 477 405 498.5 c 128,-1,37
 414 520 414 520 414 543 c 0,38,39
 414 586 414 586 400 615.5 c 128,-1,40
 386 645 386 645 361.5 663.5 c 128,-1,41
 337 682 337 682 303.5 690.5 c 128,-1,42
 270 699 270 699 231 700 c 1,43,-1
 231 715 l 1,44,45
 260 718 260 718 286 729.5 c 128,-1,46
 312 741 312 741 331.5 760 c 128,-1,47
 351 779 351 779 362 804 c 128,-1,48
 373 829 373 829 373 860 c 0,49,50
 373 905 373 905 346 935 c 128,-1,51
 319 965 319 965 272 965 c 0,52,53
 232 965 232 965 203 943 c 128,-1,54
 174 921 174 921 154 889 c 1,55,-1
 137 895 l 1,56,57
 151 924 151 924 165.5 948 c 128,-1,58
 180 972 180 972 199.5 990 c 128,-1,59
 219 1008 219 1008 244.5 1018 c 128,-1,60
 270 1028 270 1028 305 1028 c 0,61,62
 333 1028 333 1028 359 1019.5 c 128,-1,63
 385 1011 385 1011 405 995 c 128,-1,64
 425 979 425 979 437 955.5 c 128,-1,65
 449 932 449 932 449 901 c 0,66,67
 449 880 449 880 441 861 c 128,-1,68
 433 842 433 842 421 824 c 128,-1,69
 409 806 409 806 394 790.5 c 128,-1,70
 379 775 379 775 365 762 c 1,71,72
 420 740 420 740 449.5 700 c 128,-1,73
 479 660 479 660 479 600 c 0,15,16
903 530 m 1,74,-1
 684 223 l 1,75,-1
 903 223 l 1,76,-1
 903 530 l 1,74,-1
EndSplineSet
EndChar
StartChar: Eth
Encoding: 208 208 176
Width: 1116
Flags: W
LayerCount: 2
Fore
SplineSet
1055 519 m 0,0,1
 1055 411 1055 411 1023 316.5 c 128,-1,2
 991 222 991 222 922 151.5 c 128,-1,3
 853 81 853 81 745 40.5 c 128,-1,4
 637 0 637 0 485 0 c 2,5,-1
 27 0 l 1,6,-1
 27 28 l 1,7,-1
 65 28 l 2,8,9
 132 28 132 28 157 70 c 0,10,11
 173 93 173 93 173 181 c 2,12,-1
 173 511 l 1,13,-1
 27 511 l 1,14,-1
 27 597 l 1,15,-1
 173 597 l 1,16,-1
 173 842 l 2,17,18
 173 935 173 935 153 963 c 1,19,20
 121 995 121 995 65 995 c 2,21,-1
 27 995 l 1,22,-1
 27 1022 l 1,23,-1
 442 1022 l 2,24,25
 681 1022 681 1022 795 968 c 0,26,27
 852 941 852 941 900 898 c 128,-1,28
 948 855 948 855 982.5 797.5 c 128,-1,29
 1017 740 1017 740 1036 669.5 c 128,-1,30
 1055 599 1055 599 1055 519 c 0,0,1
886 511 m 256,31,32
 886 617 886 617 855.5 701.5 c 128,-1,33
 825 786 825 786 770.5 845 c 128,-1,34
 716 904 716 904 640 935.5 c 128,-1,35
 564 967 564 967 472 967 c 0,36,37
 439 967 439 967 401 962 c 128,-1,38
 363 957 363 957 318 945 c 1,39,-1
 318 597 l 1,40,-1
 617 597 l 1,41,-1
 617 511 l 1,42,-1
 318 511 l 1,43,-1
 318 75 l 1,44,45
 366 65 366 65 406 59.5 c 128,-1,46
 446 54 446 54 478 54 c 0,47,48
 566 53 566 53 640.5 84.5 c 128,-1,49
 715 116 715 116 769.5 175.5 c 128,-1,50
 824 235 824 235 855 320 c 128,-1,51
 886 405 886 405 886 511 c 256,31,32
EndSplineSet
EndChar
StartChar: multiply
Encoding: 215 215 183
Width: 915
Flags: W
LayerCount: 2
Fore
SplineSet
729 104 m 1,0,-1
 455 377 l 1,1,-1
 182 104 l 1,2,-1
 137 147 l 1,3,-1
 412 422 l 1,4,-1
 137 694 l 1,5,-1
 182 739 l 1,6,-1
 455 465 l 1,7,-1
 729 739 l 1,8,-1
 772 694 l 1,9,-1
 500 422 l 1,10,-1
 772 147 l 1,11,-1
 729 104 l 1,0,-1
EndSplineSet
EndChar
StartChar: Oslash
Encoding: 216 216 184
Width: 1116
Flags: W
LayerCount: 2
Fore
SplineSet
1056 519 m 0,0,1
 1056 401 1056 401 1015.5 301.5 c 128,-1,2
 975 202 975 202 906.5 129.5 c 128,-1,3
 838 57 838 57 748.5 16.5 c 128,-1,4
 659 -24 659 -24 561 -24 c 0,5,6
 524 -24 524 -24 483 -17.5 c 128,-1,7
 442 -11 442 -11 401.5 2.5 c 128,-1,8
 361 16 361 16 322 36.5 c 128,-1,9
 283 57 283 57 248 85 c 1,10,-1
 152 -36 l 1,11,-1
 107 0 l 1,12,-1
 207 123 l 1,13,14
 55 278 55 278 55 523 c 0,15,16
 55 633 55 633 94 728.5 c 128,-1,17
 133 824 133 824 201 894.5 c 128,-1,18
 269 965 269 965 361 1005.5 c 128,-1,19
 453 1046 453 1046 559 1046 c 0,20,21
 730 1046 730 1046 865 933 c 1,22,-1
 964 1055 l 1,23,-1
 1009 1022 l 1,24,-1
 906 897 l 1,25,26
 947 854 947 854 975.5 811.5 c 128,-1,27
 1004 769 1004 769 1022 723 c 128,-1,28
 1040 677 1040 677 1048 627 c 128,-1,29
 1056 577 1056 577 1056 519 c 0,0,1
802 856 m 1,30,31
 715 992 715 992 554 992 c 0,32,33
 460 992 460 992 397 949.5 c 128,-1,34
 334 907 334 907 296 839.5 c 128,-1,35
 258 772 258 772 242.5 689.5 c 128,-1,36
 227 607 227 607 227 526 c 0,37,38
 227 352 227 352 282 218 c 1,39,-1
 802 856 l 1,30,31
883 495 m 0,40,41
 883 534 883 534 881.5 568.5 c 128,-1,42
 880 603 880 603 874.5 639 c 128,-1,43
 869 675 869 675 858.5 714.5 c 128,-1,44
 848 754 848 754 829 802 c 1,45,-1
 313 163 l 1,46,47
 365 89 365 89 423 60 c 128,-1,48
 481 31 481 31 550 31 c 0,49,50
 620 31 620 31 680.5 56.5 c 128,-1,51
 741 82 741 82 786 137.5 c 128,-1,52
 831 193 831 193 857 281 c 128,-1,53
 883 369 883 369 883 495 c 0,40,41
EndSplineSet
EndChar
StartChar: Thorn
Encoding: 222 222 190
Width: 859
Flags: W
LayerCount: 2
Fore
SplineSet
801 513 m 0,0,1
 801 456 801 456 778.5 407 c 128,-1,2
 756 358 756 358 719 321 c 0,3,4
 699 301 699 301 676 284.5 c 128,-1,5
 653 268 653 268 615 256 c 128,-1,6
 577 244 577 244 518.5 237 c 128,-1,7
 460 230 460 230 370 230 c 2,8,-1
 316 230 l 1,9,-1
 316 184 l 2,10,11
 316 89 316 89 343 57 c 0,12,13
 369 28 369 28 432 28 c 2,14,-1
 464 28 l 1,15,-1
 464 0 l 1,16,-1
 28 0 l 1,17,-1
 28 28 l 1,18,-1
 55 28 l 2,19,20
 127 28 127 28 156 70 c 0,21,22
 171 90 171 90 171 181 c 2,23,-1
 171 836 l 2,24,25
 171 924 171 924 162 940 c 0,26,27
 155 963 155 963 127 979 c 128,-1,28
 99 995 99 995 57 995 c 2,29,-1
 28 995 l 1,30,-1
 28 1022 l 1,31,-1
 464 1022 l 1,32,-1
 464 995 l 1,33,-1
 432 995 l 2,34,35
 420 995 420 995 404.5 992 c 128,-1,36
 389 989 389 989 374 982.5 c 128,-1,37
 359 976 359 976 347 965.5 c 128,-1,38
 335 955 335 955 330 940 c 0,39,40
 326 928 326 928 323 917.5 c 128,-1,41
 320 907 320 907 318.5 896.5 c 128,-1,42
 317 886 317 886 316.5 872.5 c 128,-1,43
 316 859 316 859 316 841 c 2,44,-1
 316 791 l 1,45,-1
 373 791 l 2,46,47
 441 791 441 791 488 788 c 128,-1,48
 535 785 535 785 569.5 778 c 128,-1,49
 604 771 604 771 629 760 c 128,-1,50
 654 749 654 749 678 733 c 0,51,52
 730 697 730 697 765.5 642.5 c 128,-1,53
 801 588 801 588 801 513 c 0,0,1
625 511 m 0,54,55
 625 566 625 566 603.5 612.5 c 128,-1,56
 582 659 582 659 540 689 c 0,57,58
 525 700 525 700 513.5 708 c 128,-1,59
 502 716 502 716 483 721.5 c 128,-1,60
 464 727 464 727 433.5 730 c 128,-1,61
 403 733 403 733 352 733 c 2,62,-1
 316 733 l 1,63,-1
 316 282 l 1,64,-1
 350 282 l 2,65,66
 425 282 425 282 477.5 299.5 c 128,-1,67
 530 317 530 317 563 348 c 128,-1,68
 596 379 596 379 610.5 421 c 128,-1,69
 625 463 625 463 625 511 c 0,54,55
EndSplineSet
EndChar
StartChar: ae
Encoding: 230 230 198
Width: 1031
Flags: W
LayerCount: 2
Fore
SplineSet
984 241 m 1,0,1
 970 190 970 190 947.5 142.5 c 128,-1,2
 925 95 925 95 891 58.5 c 128,-1,3
 857 22 857 22 811 0 c 128,-1,4
 765 -22 765 -22 704 -22 c 0,5,6
 678 -22 678 -22 652 -19 c 128,-1,7
 626 -16 626 -16 599 -4 c 128,-1,8
 572 8 572 8 543.5 32 c 128,-1,9
 515 56 515 56 482 99 c 1,10,11
 466 85 466 85 440.5 64.5 c 128,-1,12
 415 44 415 44 382 24.5 c 128,-1,13
 349 5 349 5 309 -8.5 c 128,-1,14
 269 -22 269 -22 224 -22 c 0,15,16
 189 -22 189 -22 158.5 -8.5 c 128,-1,17
 128 5 128 5 105 28.5 c 128,-1,18
 82 52 82 52 68.5 84 c 128,-1,19
 55 116 55 116 55 152 c 0,20,21
 55 204 55 204 75 242 c 128,-1,22
 95 280 95 280 139 312.5 c 128,-1,23
 183 345 183 345 253.5 377.5 c 128,-1,24
 324 410 324 410 425 450 c 1,25,-1
 425 519 l 2,26,27
 425 602 425 602 395 635.5 c 128,-1,28
 365 669 365 669 313 669 c 0,29,30
 264 669 264 669 236 645.5 c 128,-1,31
 208 622 208 622 207 588 c 0,32,33
 206 549 206 549 202 525.5 c 128,-1,34
 198 502 198 502 191 490 c 128,-1,35
 184 478 184 478 173 474 c 128,-1,36
 162 470 162 470 147 468 c 0,37,38
 110 468 110 468 94.5 489.5 c 128,-1,39
 79 511 79 511 79 540 c 0,40,41
 79 568 79 568 94 598 c 128,-1,42
 109 628 109 628 140 653 c 128,-1,43
 171 678 171 678 219 694 c 128,-1,44
 267 710 267 710 333 710 c 0,45,46
 427 710 427 710 474 684.5 c 128,-1,47
 521 659 521 659 536 619 c 1,48,49
 573 670 573 670 622 690 c 128,-1,50
 671 710 671 710 738 710 c 0,51,52
 850 710 850 710 916 637 c 128,-1,53
 982 564 982 564 984 428 c 1,54,-1
 553 428 l 1,55,56
 553 335 553 335 560.5 276 c 128,-1,57
 568 217 568 217 591 180 c 0,58,59
 606 154 606 154 625.5 137 c 128,-1,60
 645 120 645 120 666 110 c 128,-1,61
 687 100 687 100 708 96 c 128,-1,62
 729 92 729 92 746 92 c 0,63,64
 757 92 757 92 782 94.5 c 128,-1,65
 807 97 807 97 838 112.5 c 128,-1,66
 869 128 869 128 902 162 c 128,-1,67
 935 196 935 196 960 258 c 1,68,-1
 984 241 l 1,0,1
839 477 m 1,69,70
 838 525 838 525 827 559.5 c 128,-1,71
 816 594 816 594 797.5 616 c 128,-1,72
 779 638 779 638 754 648 c 128,-1,73
 729 658 729 658 700 658 c 256,74,75
 671 658 671 658 644.5 647 c 128,-1,76
 618 636 618 636 598 613.5 c 128,-1,77
 578 591 578 591 566 557 c 128,-1,78
 554 523 554 523 553 477 c 1,79,-1
 839 477 l 1,69,70
461 140 m 1,80,81
 453 155 453 155 446.5 177 c 128,-1,82
 440 199 440 199 435 224.5 c 128,-1,83
 430 250 430 250 427.5 278.5 c 128,-1,84
 425 307 425 307 425 334 c 2,85,-1
 425 401 l 1,86,87
 383 385 383 385 339.5 367 c 128,-1,88
 296 349 296 349 261.5 325 c 128,-1,89
 227 301 227 301 205 269 c 128,-1,90
 183 237 183 237 183 194 c 0,91,92
 183 166 183 166 192.5 142 c 128,-1,93
 202 118 202 118 218 99.5 c 128,-1,94
 234 81 234 81 256 70.5 c 128,-1,95
 278 60 278 60 303 59 c 0,96,97
 318 59 318 59 332.5 62 c 128,-1,98
 347 65 347 65 365 74 c 128,-1,99
 383 83 383 83 406.5 99 c 128,-1,100
 430 115 430 115 461 140 c 1,80,81
EndSplineSet
EndChar
StartChar: eth
Encoding: 240 240 208
Width: 773
Flags: W
LayerCount: 2
Fore
SplineSet
716 357 m 256,0,1
 716 285 716 285 693 217 c 128,-1,2
 670 149 670 149 626.5 96 c 128,-1,3
 583 43 583 43 520 10.5 c 128,-1,4
 457 -22 457 -22 377 -22 c 0,5,6
 308 -22 308 -22 248.5 5 c 128,-1,7
 189 32 189 32 145 79.5 c 128,-1,8
 101 127 101 127 76 192 c 128,-1,9
 51 257 51 257 51 333 c 0,10,11
 51 405 51 405 74.5 472 c 128,-1,12
 98 539 98 539 140.5 590.5 c 128,-1,13
 183 642 183 642 241.5 673 c 128,-1,14
 300 704 300 704 369 704 c 0,15,16
 385 704 385 704 398.5 703.5 c 128,-1,17
 412 703 412 703 426 699 c 128,-1,18
 440 695 440 695 457 686 c 128,-1,19
 474 677 474 677 496 661 c 1,20,21
 466 723 466 723 431 778 c 128,-1,22
 396 833 396 833 353 883 c 1,23,-1
 166 780 l 1,24,-1
 146 822 l 1,25,-1
 321 921 l 1,26,27
 296 946 296 946 279 962 c 128,-1,28
 262 978 262 978 247 990.5 c 128,-1,29
 232 1003 232 1003 216.5 1014 c 128,-1,30
 201 1025 201 1025 180 1040 c 1,31,-1
 199 1073 l 1,32,33
 245 1050 245 1050 291 1021 c 128,-1,34
 337 992 337 992 386 957 c 1,35,-1
 574 1061 l 1,36,-1
 600 1019 l 1,37,-1
 427 921 l 1,38,39
 496 859 496 859 550 790 c 128,-1,40
 604 721 604 721 641 648.5 c 128,-1,41
 678 576 678 576 697 502.5 c 128,-1,42
 716 429 716 429 716 357 c 256,0,1
577 284 m 0,43,44
 577 370 577 370 561.5 439.5 c 128,-1,45
 546 509 546 509 517.5 557.5 c 128,-1,46
 489 606 489 606 449 632.5 c 128,-1,47
 409 659 409 659 361 659 c 0,48,49
 328 659 328 659 297.5 646 c 128,-1,50
 267 633 267 633 243.5 602 c 128,-1,51
 220 571 220 571 205.5 519.5 c 128,-1,52
 191 468 191 468 190 391 c 0,53,54
 190 316 190 316 205.5 251 c 128,-1,55
 221 186 221 186 250.5 137.5 c 128,-1,56
 280 89 280 89 321 61 c 128,-1,57
 362 33 362 33 413 33 c 0,58,59
 448 33 448 33 478 47 c 128,-1,60
 508 61 508 61 530 91.5 c 128,-1,61
 552 122 552 122 564.5 169.5 c 128,-1,62
 577 217 577 217 577 284 c 0,43,44
EndSplineSet
EndChar
StartChar: divide
Encoding: 247 247 215
Width: 1485
Flags: W
LayerCount: 2
Fore
SplineSet
831 684 m 256,0,1
 831 647 831 647 806 621.5 c 128,-1,2
 781 596 781 596 743 596 c 0,3,4
 724 596 724 596 707.5 603 c 128,-1,5
 691 610 691 610 679 622 c 128,-1,6
 667 634 667 634 660 650 c 128,-1,7
 653 666 653 666 653 684 c 256,8,9
 653 702 653 702 660 718.5 c 128,-1,10
 667 735 667 735 679 747.5 c 128,-1,11
 691 760 691 760 707.5 767 c 128,-1,12
 724 774 724 774 743 774 c 0,13,14
 781 774 781 774 806 747.5 c 128,-1,15
 831 721 831 721 831 684 c 256,0,1
297 399 m 1,16,-1
 297 492 l 1,17,-1
 1188 492 l 1,18,-1
 1188 399 l 1,19,-1
 297 399 l 1,16,-1
831 207 m 256,20,21
 831 170 831 170 806 144.5 c 128,-1,22
 781 119 781 119 743 119 c 0,23,24
 724 119 724 119 707.5 126 c 128,-1,25
 691 133 691 133 679 145 c 128,-1,26
 667 157 667 157 660 173 c 128,-1,27
 653 189 653 189 653 207 c 256,28,29
 653 225 653 225 660 241 c 128,-1,30
 667 257 667 257 679 269 c 128,-1,31
 691 281 691 281 707.5 288 c 128,-1,32
 724 295 724 295 743 295 c 0,33,34
 781 295 781 295 806 269.5 c 128,-1,35
 831 244 831 244 831 207 c 256,20,21
EndSplineSet
EndChar
StartChar: dotlessi
Encoding: 305 305 224
Width: 430
Flags: W
LayerCount: 2
Fore
SplineSet
57 0 m 1,0,-1
 57 29 l 1,1,2
 91 29 91 29 112 34 c 128,-1,3
 133 39 133 39 144.5 52 c 128,-1,4
 156 65 156 65 160 86.5 c 128,-1,5
 164 108 164 108 164 141 c 2,6,-1
 164 510 l 2,7,8
 164 523 164 523 162.5 540.5 c 128,-1,9
 161 558 161 558 156 574 c 128,-1,10
 151 590 151 590 140 601 c 128,-1,11
 129 612 129 612 111 612 c 0,12,13
 98 612 98 612 84.5 608.5 c 128,-1,14
 71 605 71 605 57 600 c 1,15,-1
 47 627 l 1,16,-1
 256 711 l 1,17,-1
 289 711 l 1,18,-1
 289 141 l 2,19,20
 289 108 289 108 293 86.5 c 128,-1,21
 297 65 297 65 308.5 52 c 128,-1,22
 320 39 320 39 340.5 34 c 128,-1,23
 361 29 361 29 395 29 c 1,24,-1
 395 0 l 1,25,-1
 57 0 l 1,0,-1
EndSplineSet
EndChar
StartChar: florin
Encoding: 402 402 101
Width: 772
Flags: W
LayerCount: 2
Fore
SplineSet
754 963 m 0,0,1
 754 937 754 937 742 920 c 128,-1,2
 730 903 730 903 702 903 c 0,3,4
 681 903 681 903 668 912.5 c 128,-1,5
 655 922 655 922 655 944 c 0,6,7
 655 957 655 957 663.5 971 c 128,-1,8
 672 985 672 985 672 991 c 0,9,10
 672 1004 672 1004 664 1008 c 128,-1,11
 656 1012 656 1012 645 1012 c 0,12,13
 621 1012 621 1012 602.5 990.5 c 128,-1,14
 584 969 584 969 570.5 935 c 128,-1,15
 557 901 557 901 548.5 860 c 128,-1,16
 540 819 540 819 534 780 c 128,-1,17
 528 741 528 741 524.5 708.5 c 128,-1,18
 521 676 521 676 518 659 c 1,19,-1
 651 659 l 1,20,-1
 639 610 l 1,21,-1
 508 610 l 1,22,23
 485 474 485 474 449.5 341.5 c 128,-1,24
 414 209 414 209 379 76 c 0,25,26
 370 43 370 43 357 1 c 128,-1,27
 344 -41 344 -41 326.5 -85.5 c 128,-1,28
 309 -130 309 -130 286.5 -173 c 128,-1,29
 264 -216 264 -216 235.5 -249.5 c 128,-1,30
 207 -283 207 -283 171.5 -303.5 c 128,-1,31
 136 -324 136 -324 92 -324 c 0,32,33
 57 -324 57 -324 29.5 -304 c 128,-1,34
 2 -284 2 -284 2 -246 c 0,35,36
 2 -217 2 -217 15 -198.5 c 128,-1,37
 28 -180 28 -180 59 -180 c 0,38,39
 76 -180 76 -180 92.5 -191.5 c 128,-1,40
 109 -203 109 -203 109 -221 c 0,41,42
 109 -235 109 -235 99.5 -245.5 c 128,-1,43
 90 -256 90 -256 90 -264 c 0,44,45
 90 -273 90 -273 96.5 -276 c 128,-1,46
 103 -279 103 -279 111 -279 c 0,47,48
 137 -279 137 -279 156.5 -257 c 128,-1,49
 176 -235 176 -235 190.5 -204.5 c 128,-1,50
 205 -174 205 -174 214 -142.5 c 128,-1,51
 223 -111 223 -111 227 -92 c 0,52,53
 247 -15 247 -15 262 64 c 128,-1,54
 277 143 277 143 293 221 c 0,55,56
 313 320 313 320 336.5 416.5 c 128,-1,57
 360 513 360 513 385 610 c 1,58,-1
 254 610 l 1,59,-1
 264 659 l 1,60,61
 275 660 275 660 291.5 661.5 c 128,-1,62
 308 663 308 663 325 666 c 128,-1,63
 342 669 342 669 357 673 c 128,-1,64
 372 677 372 677 381 684 c 0,65,66
 398 698 398 698 411 730 c 128,-1,67
 424 762 424 762 437.5 802 c 128,-1,68
 451 842 451 842 468 884.5 c 128,-1,69
 485 927 485 927 509 962.5 c 128,-1,70
 533 998 533 998 567.5 1021 c 128,-1,71
 602 1044 602 1044 651 1044 c 0,72,73
 669 1044 669 1044 687.5 1039 c 128,-1,74
 706 1034 706 1034 721 1024 c 128,-1,75
 736 1014 736 1014 745 999 c 128,-1,76
 754 984 754 984 754 963 c 0,0,1
EndSplineSet
EndChar
StartChar: circumflex
Encoding: 710 710 106
Width: 483
Flags: W
LayerCount: 2
Fore
SplineSet
430 786 m 1,0,-1
 242 946 l 1,1,-1
 53 786 l 1,2,-1
 0 786 l 1,3,-1
 195 1044 l 1,4,-1
 291 1044 l 1,5,-1
 483 786 l 1,6,-1
 430 786 l 1,0,-1
EndSplineSet
EndChar
StartChar: caron
Encoding: 711 711 1118
Width: 485
Flags: W
LayerCount: 2
Fore
SplineSet
291 786 m 1,0,-1
 194 786 l 1,1,-1
 0 1045 l 1,2,-1
 54 1045 l 1,3,-1
 242 886 l 1,4,-1
 431 1045 l 1,5,-1
 485 1045 l 1,6,-1
 291 786 l 1,0,-1
EndSplineSet
EndChar
StartChar: uni02C9
Encoding: 713 713 143
Width: 483
Flags: W
LayerCount: 2
Fore
SplineSet
0 848 m 1,0,-1
 0 932 l 1,1,-1
 483 932 l 1,2,-1
 483 848 l 1,3,-1
 0 848 l 1,0,-1
EndSplineSet
EndChar
StartChar: uni0601
Encoding: 1537 1537 946
Width: 2740
GlyphClass: 2
Flags: W
AnchorPoint: "Anchor-6" 1275 0 basechar 0
LayerCount: 2
Fore
SplineSet
1278 0 m 0,0,1
 1416 0 1416 0 1541 5 c 128,-1,2
 1666 10 1666 10 1772.5 19 c 128,-1,3
 1879 28 1879 28 1964 41 c 128,-1,4
 2049 54 2049 54 2107 70 c 0,5,6
 2240 108 2240 108 2359 155 c 128,-1,7
 2478 202 2478 202 2563 256 c 0,8,9
 2626 296 2626 296 2652 313 c 128,-1,10
 2678 330 2678 330 2680 330 c 0,11,12
 2710 330 2710 330 2710 302 c 0,13,14
 2710 296 2710 296 2705.5 283 c 128,-1,15
 2701 270 2701 270 2693.5 256.5 c 128,-1,16
 2686 243 2686 243 2677.5 231 c 128,-1,17
 2669 219 2669 219 2660 216 c 0,18,19
 2607 180 2607 180 2537.5 143 c 128,-1,20
 2468 106 2468 106 2388.5 70.5 c 128,-1,21
 2309 35 2309 35 2222 2.5 c 128,-1,22
 2135 -30 2135 -30 2045 -56 c 0,23,24
 1985 -74 1985 -74 1900 -90 c 128,-1,25
 1815 -106 1815 -106 1709 -118.5 c 128,-1,26
 1603 -131 1603 -131 1477.5 -138.5 c 128,-1,27
 1352 -146 1352 -146 1212 -146 c 0,28,29
 1128 -146 1128 -146 1038.5 -141 c 128,-1,30
 949 -136 949 -136 869.5 -129 c 128,-1,31
 790 -122 790 -122 727 -113.5 c 128,-1,32
 664 -105 664 -105 632 -99 c 0,33,34
 622 -97 622 -97 601.5 -92.5 c 128,-1,35
 581 -88 581 -88 555.5 -82 c 128,-1,36
 530 -76 530 -76 500 -69 c 128,-1,37
 470 -62 470 -62 440 -53 c 1,38,39
 376 -197 376 -197 280 -197 c 0,40,41
 270 -197 270 -197 256 -195 c 128,-1,42
 242 -193 242 -193 228 -191 c 128,-1,43
 214 -189 214 -189 202.5 -187 c 128,-1,44
 191 -185 191 -185 186 -185 c 0,45,46
 169 -185 169 -185 150.5 -195 c 128,-1,47
 132 -205 132 -205 100 -231 c 0,48,49
 81 -246 81 -246 69.5 -256 c 128,-1,50
 58 -266 58 -266 54 -271 c 1,51,52
 40 -266 40 -266 30 -237 c 1,53,54
 53 -202 53 -202 74 -169.5 c 128,-1,55
 95 -137 95 -137 114 -112 c 128,-1,56
 133 -87 133 -87 150 -72 c 128,-1,57
 167 -57 167 -57 181 -57 c 0,58,59
 224 -57 224 -57 253.5 -59 c 128,-1,60
 283 -61 283 -61 298 -61 c 0,61,62
 328 -61 328 -61 351 -47.5 c 128,-1,63
 374 -34 374 -34 388 1 c 0,64,65
 400 30 400 30 408.5 47 c 128,-1,66
 417 64 417 64 426.5 73 c 128,-1,67
 436 82 436 82 449.5 83 c 128,-1,68
 463 84 463 84 484 79 c 0,69,70
 524 71 524 71 580 62 c 128,-1,71
 636 53 636 53 702.5 44.5 c 128,-1,72
 769 36 769 36 843.5 27.5 c 128,-1,73
 918 19 918 19 993 13 c 128,-1,74
 1068 7 1068 7 1141 3.5 c 128,-1,75
 1214 0 1214 0 1278 0 c 0,0,1
EndSplineSet
Substitution2: "Single Substitution lookup 20 subtable" uni0601.2
Substitution2: "Single Substitution lookup 19 subtable" uni0601.3
Substitution2: "Single Substitution lookup 18 subtable" uni0601.4
EndChar
StartChar: uni060B
Encoding: 1547 1547 949
Width: 571
GlyphClass: 2
Flags: W
LayerCount: 2
Fore
SplineSet
318 -189 m 1,0,-1
 334 -381 l 2,1,2
 334 -391 334 -391 331.5 -418.5 c 128,-1,3
 329 -446 329 -446 325 -475 c 128,-1,4
 321 -504 321 -504 316 -526.5 c 128,-1,5
 311 -549 311 -549 305 -549 c 0,6,7
 289 -549 289 -549 289 -537 c 2,8,-1
 289 -479 l 2,9,10
 289 -445 289 -445 285 -409 c 128,-1,11
 281 -373 281 -373 275.5 -340 c 128,-1,12
 270 -307 270 -307 266 -280 c 128,-1,13
 262 -253 262 -253 262 -236 c 0,14,15
 262 -218 262 -218 267.5 -191.5 c 128,-1,16
 273 -165 273 -165 280.5 -140.5 c 128,-1,17
 288 -116 288 -116 296 -98 c 128,-1,18
 304 -80 304 -80 309 -78 c 0,19,20
 311 -81 311 -81 312.5 -89.5 c 128,-1,21
 314 -98 314 -98 315.5 -108 c 128,-1,22
 317 -118 317 -118 317.5 -128 c 128,-1,23
 318 -138 318 -138 318 -144 c 2,24,-1
 318 -189 l 1,0,-1
514 274 m 0,25,26
 514 256 514 256 511 236 c 128,-1,27
 508 216 508 216 502 195 c 128,-1,28
 496 174 496 174 486.5 154 c 128,-1,29
 477 134 477 134 463 117 c 256,30,31
 449 100 449 100 421 79.5 c 128,-1,32
 393 59 393 59 354 41.5 c 128,-1,33
 315 24 315 24 267 12 c 128,-1,34
 219 0 219 0 166 0 c 2,35,-1
 55 0 l 1,36,-1
 55 125 l 1,37,-1
 166 125 l 2,38,39
 229 125 229 125 285 138 c 128,-1,40
 341 151 341 151 383.5 169.5 c 128,-1,41
 426 188 426 188 450.5 208.5 c 128,-1,42
 475 229 475 229 475 244 c 256,43,44
 475 259 475 259 462.5 280.5 c 128,-1,45
 450 302 450 302 436 317 c 1,46,47
 428 301 428 301 417.5 282.5 c 128,-1,48
 407 264 407 264 392 248.5 c 128,-1,49
 377 233 377 233 355.5 223 c 128,-1,50
 334 213 334 213 305 213 c 0,51,52
 274 213 274 213 255 223 c 128,-1,53
 236 233 236 233 225.5 249.5 c 128,-1,54
 215 266 215 266 211 288 c 128,-1,55
 207 310 207 310 207 334 c 0,56,57
 207 344 207 344 211.5 366.5 c 128,-1,58
 216 389 216 389 224 417 c 128,-1,59
 232 445 232 445 244 474.5 c 128,-1,60
 256 504 256 504 271 528.5 c 128,-1,61
 286 553 286 553 303.5 568.5 c 128,-1,62
 321 584 321 584 340 584 c 0,63,64
 361 584 361 584 391 557 c 128,-1,65
 421 530 421 530 448.5 486 c 128,-1,66
 476 442 476 442 495 386.5 c 128,-1,67
 514 331 514 331 514 274 c 0,25,26
368 391 m 0,68,69
 368 394 368 394 360.5 401 c 128,-1,70
 353 408 353 408 342.5 415.5 c 128,-1,71
 332 423 332 423 321 428.5 c 128,-1,72
 310 434 310 434 303 434 c 0,73,74
 292 434 292 434 282 422 c 128,-1,75
 272 410 272 410 272 399 c 0,76,77
 272 387 272 387 284.5 370.5 c 128,-1,78
 297 354 297 354 315 354 c 0,79,80
 322 354 322 354 331 358.5 c 128,-1,81
 340 363 340 363 348.5 369 c 128,-1,82
 357 375 357 375 362.5 381 c 128,-1,83
 368 387 368 387 368 391 c 0,68,69
400 782 m 0,84,85
 400 778 400 778 391 762.5 c 128,-1,86
 382 747 382 747 370.5 729.5 c 128,-1,87
 359 712 359 712 348 698 c 128,-1,88
 337 684 337 684 332 684 c 0,89,90
 330 684 330 684 315.5 693 c 128,-1,91
 301 702 301 702 284.5 713.5 c 128,-1,92
 268 725 268 725 255 736 c 128,-1,93
 242 747 242 747 242 751 c 256,94,95
 242 755 242 755 251.5 770.5 c 128,-1,96
 261 786 261 786 272.5 803.5 c 128,-1,97
 284 821 284 821 295 835 c 128,-1,98
 306 849 306 849 309 849 c 0,99,100
 313 849 313 849 328 839.5 c 128,-1,101
 343 830 343 830 359 818 c 128,-1,102
 375 806 375 806 387.5 795 c 128,-1,103
 400 784 400 784 400 782 c 0,84,85
EndSplineSet
EndChar
StartChar: uni0613
Encoding: 1555 1555 958
Width: 0
GlyphClass: 4
Flags: W
AnchorPoint: "Anchor-3" 508 986 mark 0
AnchorPoint: "Anchor-1" 508 986 mark 0
LayerCount: 2
Fore
SplineSet
702 1022 m 0,0,1
 667 994 667 994 592 994 c 0,2,3
 563 994 563 994 524 1010 c 0,4,5
 490 1023 490 1023 490 1028 c 0,6,7
 490 1040 490 1040 500 1040 c 0,8,9
 550 1034 550 1034 560 1034 c 0,10,11
 625 1034 625 1034 704 1102 c 0,12,13
 778 1164 778 1164 778 1204 c 0,14,15
 778 1211 778 1211 738 1292 c 0,16,17
 730 1310 730 1310 730 1314 c 0,18,19
 730 1322 730 1322 745 1349 c 256,20,21
 760 1376 760 1376 766 1382 c 1,22,23
 812 1317 812 1317 812 1226 c 0,24,25
 812 1172 812 1172 780 1113 c 0,26,27
 748 1053 748 1053 702 1022 c 0,0,1
350 1302 m 0,28,29
 346 1302 346 1302 326 1317 c 256,30,31
 306 1332 306 1332 306 1336 c 0,32,33
 306 1341 306 1341 320 1364 c 0,34,35
 333 1386 333 1386 340 1386 c 0,36,37
 345 1386 345 1386 364 1371 c 0,38,39
 384 1356 384 1356 384 1350 c 0,40,41
 384 1347 384 1347 370 1324 c 0,42,43
 357 1302 357 1302 350 1302 c 0,28,29
354 1124 m 1,44,45
 350 1118 350 1118 346 1107.5 c 128,-1,46
 342 1097 342 1097 338 1082 c 1,47,48
 312 1082 312 1082 312 1106 c 1,49,-1
 320 1122 l 1,50,51
 306 1122 306 1122 296 1124 c 1,52,53
 296 1108 296 1108 294 1089.5 c 128,-1,54
 292 1071 292 1071 288 1050 c 1,55,-1
 242 1006 l 1,56,57
 247 1039 247 1039 246 1078 c 128,-1,58
 245 1117 245 1117 238 1162 c 1,59,-1
 238 1168 l 2,60,61
 238 1175 238 1175 251 1198 c 0,62,63
 265 1222 265 1222 270 1222 c 1,64,65
 281 1206 281 1206 288 1186 c 1,66,67
 314 1185 314 1185 329.5 1184.5 c 128,-1,68
 345 1184 345 1184 350 1184 c 1,69,70
 464 1350 464 1350 570 1350 c 0,71,72
 636 1350 636 1350 636 1274 c 256,73,74
 636 1198 636 1198 526 1156 c 0,75,76
 442 1125 442 1125 354 1124 c 1,44,45
538 1276 m 0,77,78
 445 1276 445 1276 390 1188 c 1,79,80
 455 1188 455 1188 528 1214 c 0,81,82
 594 1237 594 1237 594 1248 c 0,83,84
 594 1276 594 1276 538 1276 c 0,77,78
EndSplineSet
EndChar
StartChar: uni061B
Encoding: 1563 1563 961
Width: 641
GlyphClass: 2
Flags: W
AnchorPoint: "Anchor-4" 270 -195 basechar 0
AnchorPoint: "Anchor-1" 270 930 basechar 0
LayerCount: 2
Fore
SplineSet
432 315 m 0,0,1
 432 272 432 272 402.5 242.5 c 128,-1,2
 373 213 373 213 330 213 c 0,3,4
 290 213 290 213 259.5 235 c 128,-1,5
 229 257 229 257 209 291 c 128,-1,6
 189 325 189 325 178.5 365 c 128,-1,7
 168 405 168 405 168 442 c 0,8,9
 168 468 168 468 170.5 497 c 128,-1,10
 173 526 173 526 184 557 c 0,11,12
 197 592 197 592 217 626 c 128,-1,13
 237 660 237 660 258.5 688.5 c 128,-1,14
 280 717 280 717 300.5 737 c 128,-1,15
 321 757 321 757 336 762 c 1,16,-1
 360 727 l 1,17,18
 346 713 346 713 324.5 689 c 128,-1,19
 303 665 303 665 283.5 632.5 c 128,-1,20
 264 600 264 600 250 560 c 128,-1,21
 236 520 236 520 236 475 c 0,22,23
 236 472 236 472 238 458.5 c 128,-1,24
 240 445 240 445 243.5 430 c 128,-1,25
 247 415 247 415 252 403 c 128,-1,26
 257 391 257 391 262 391 c 0,27,28
 265 391 265 391 273 395 c 128,-1,29
 281 399 281 399 291.5 403.5 c 128,-1,30
 302 408 302 408 312.5 412 c 128,-1,31
 323 416 323 416 332 416 c 0,32,33
 351 416 351 416 369 407.5 c 128,-1,34
 387 399 387 399 401 384.5 c 128,-1,35
 415 370 415 370 423.5 352 c 128,-1,36
 432 334 432 334 432 315 c 0,0,1
408 14 m 0,37,38
 408 -4 408 -4 401 -19.5 c 128,-1,39
 394 -35 394 -35 382 -46.5 c 128,-1,40
 370 -58 370 -58 354 -65 c 128,-1,41
 338 -72 338 -72 319 -72 c 0,42,43
 301 -72 301 -72 285.5 -65 c 128,-1,44
 270 -58 270 -58 258.5 -46.5 c 128,-1,45
 247 -35 247 -35 240 -19.5 c 128,-1,46
 233 -4 233 -4 233 14 c 256,47,48
 233 32 233 32 240 48 c 128,-1,49
 247 64 247 64 258.5 76 c 128,-1,50
 270 88 270 88 285.5 95 c 128,-1,51
 301 102 301 102 319 102 c 0,52,53
 357 102 357 102 382.5 76.5 c 128,-1,54
 408 51 408 51 408 14 c 0,37,38
EndSplineSet
EndChar
StartChar: uni061E
Encoding: 1566 1566 963
Width: 524
GlyphClass: 2
Flags: W
LayerCount: 2
Fore
SplineSet
336 350 m 0,0,1
 336 346 336 346 326 327.5 c 128,-1,2
 316 309 316 309 302.5 288.5 c 128,-1,3
 289 268 289 268 276 252 c 128,-1,4
 263 236 263 236 258 236 c 0,5,6
 256 236 256 236 239.5 247 c 128,-1,7
 223 258 223 258 204 272.5 c 128,-1,8
 185 287 185 287 169.5 300.5 c 128,-1,9
 154 314 154 314 154 318 c 0,10,11
 154 323 154 323 165 341 c 128,-1,12
 176 359 176 359 189.5 378.5 c 128,-1,13
 203 398 203 398 215.5 414 c 128,-1,14
 228 430 228 430 230 430 c 0,15,16
 235 430 235 430 252.5 418.5 c 128,-1,17
 270 407 270 407 288.5 393 c 128,-1,18
 307 379 307 379 321.5 366 c 128,-1,19
 336 353 336 353 336 350 c 0,0,1
236 120 m 0,20,21
 236 116 236 116 226 97.5 c 128,-1,22
 216 79 216 79 202.5 58.5 c 128,-1,23
 189 38 189 38 176 22 c 128,-1,24
 163 6 163 6 158 6 c 0,25,26
 156 6 156 6 139.5 17 c 128,-1,27
 123 28 123 28 104 42.5 c 128,-1,28
 85 57 85 57 69.5 70.5 c 128,-1,29
 54 84 54 84 54 88 c 0,30,31
 54 93 54 93 65 111 c 128,-1,32
 76 129 76 129 89.5 148.5 c 128,-1,33
 103 168 103 168 115.5 184 c 128,-1,34
 128 200 128 200 130 200 c 0,35,36
 135 200 135 200 152.5 188.5 c 128,-1,37
 170 177 170 177 188.5 163 c 128,-1,38
 207 149 207 149 221.5 136 c 128,-1,39
 236 123 236 123 236 120 c 0,20,21
472 124 m 0,40,41
 472 120 472 120 462 101.5 c 128,-1,42
 452 83 452 83 438.5 62.5 c 128,-1,43
 425 42 425 42 412 26 c 128,-1,44
 399 10 399 10 394 10 c 0,45,46
 392 10 392 10 375.5 21 c 128,-1,47
 359 32 359 32 340 46.5 c 128,-1,48
 321 61 321 61 305.5 74.5 c 128,-1,49
 290 88 290 88 290 92 c 0,50,51
 290 97 290 97 301 115 c 128,-1,52
 312 133 312 133 325.5 152.5 c 128,-1,53
 339 172 339 172 351.5 188 c 128,-1,54
 364 204 364 204 366 204 c 0,55,56
 371 204 371 204 388.5 192.5 c 128,-1,57
 406 181 406 181 424.5 167 c 128,-1,58
 443 153 443 153 457.5 140 c 128,-1,59
 472 127 472 127 472 124 c 0,40,41
EndSplineSet
EndChar
StartChar: uni061F
Encoding: 1567 1567 964
Width: 627
GlyphClass: 2
Flags: W
AnchorPoint: "Anchor-4" 300 -195 basechar 0
AnchorPoint: "Anchor-1" 300 1185 basechar 0
LayerCount: 2
Fore
SplineSet
557 754 m 0,0,1
 557 718 557 718 547 690.5 c 128,-1,2
 537 663 537 663 519.5 643.5 c 128,-1,3
 502 624 502 624 479.5 614 c 128,-1,4
 457 604 457 604 432 604 c 0,5,6
 397 604 397 604 374.5 629.5 c 128,-1,7
 352 655 352 655 352 690 c 0,8,9
 352 720 352 720 368.5 737.5 c 128,-1,10
 385 755 385 755 404.5 769.5 c 128,-1,11
 424 784 424 784 440.5 800 c 128,-1,12
 457 816 457 816 457 842 c 0,13,14
 457 863 457 863 447.5 879.5 c 128,-1,15
 438 896 438 896 423 906.5 c 128,-1,16
 408 917 408 917 389 922.5 c 128,-1,17
 370 928 370 928 350 928 c 0,18,19
 322 928 322 928 295 918 c 128,-1,20
 268 908 268 908 248 889.5 c 128,-1,21
 228 871 228 871 215.5 845.5 c 128,-1,22
 203 820 203 820 203 788 c 0,23,24
 203 759 203 759 215.5 728 c 128,-1,25
 228 697 228 697 247.5 661.5 c 128,-1,26
 267 626 267 626 289 585.5 c 128,-1,27
 311 545 311 545 330.5 497.5 c 128,-1,28
 350 450 350 450 362.5 394 c 128,-1,29
 375 338 375 338 375 272 c 0,30,31
 375 240 375 240 373.5 223 c 128,-1,32
 372 206 372 206 367 186 c 0,33,34
 363 172 363 172 359 170 c 128,-1,35
 355 168 355 168 344 168 c 0,36,37
 332 168 332 168 329 174 c 128,-1,38
 326 180 326 180 326 188 c 0,39,40
 326 193 326 193 326.5 202 c 128,-1,41
 327 211 327 211 328 220 c 128,-1,42
 329 229 329 229 329.5 237 c 128,-1,43
 330 245 330 245 330 248 c 0,44,45
 330 286 330 286 323 310 c 128,-1,46
 316 334 316 334 303 352 c 128,-1,47
 290 370 290 370 271 386.5 c 128,-1,48
 252 403 252 403 227 426 c 0,49,50
 196 456 196 456 168 484.5 c 128,-1,51
 140 513 140 513 119 545.5 c 128,-1,52
 98 578 98 578 86 617 c 128,-1,53
 74 656 74 656 74 707 c 0,54,55
 74 762 74 762 95.5 811 c 128,-1,56
 117 860 117 860 153.5 896.5 c 128,-1,57
 190 933 190 933 238 954 c 128,-1,58
 286 975 286 975 340 975 c 0,59,60
 388 975 388 975 427.5 956.5 c 128,-1,61
 467 938 467 938 496 907.5 c 128,-1,62
 525 877 525 877 541 837 c 128,-1,63
 557 797 557 797 557 754 c 0,0,1
426 14 m 256,64,65
 426 -4 426 -4 419 -19.5 c 128,-1,66
 412 -35 412 -35 400 -46.5 c 128,-1,67
 388 -58 388 -58 372 -65 c 128,-1,68
 356 -72 356 -72 338 -72 c 256,69,70
 320 -72 320 -72 304 -65 c 128,-1,71
 288 -58 288 -58 276 -46.5 c 128,-1,72
 264 -35 264 -35 257 -19.5 c 128,-1,73
 250 -4 250 -4 250 14 c 0,74,75
 250 51 250 51 275.5 76.5 c 128,-1,76
 301 102 301 102 338 102 c 0,77,78
 356 102 356 102 372 95 c 128,-1,79
 388 88 388 88 400 76 c 128,-1,80
 412 64 412 64 419 48 c 128,-1,81
 426 32 426 32 426 14 c 256,64,65
EndSplineSet
EndChar
StartChar: uni062D
Encoding: 1581 1581 340
Width: 1053
GlyphClass: 2
Flags: W
AnchorPoint: "Anchor-4" 400 -825 basechar 0
AnchorPoint: "Anchor-1" 400 750 basechar 0
LayerCount: 2
Fore
SplineSet
1008 -600 m 0,0,1
 1008 -602 1008 -602 983.5 -612.5 c 128,-1,2
 959 -623 959 -623 921.5 -637 c 128,-1,3
 884 -651 884 -651 838.5 -667 c 128,-1,4
 793 -683 793 -683 751.5 -696.5 c 128,-1,5
 710 -710 710 -710 678 -718.5 c 128,-1,6
 646 -727 646 -727 635 -727 c 0,7,8
 561 -727 561 -727 488.5 -719.5 c 128,-1,9
 416 -712 416 -712 350.5 -694 c 128,-1,10
 285 -676 285 -676 228.5 -645.5 c 128,-1,11
 172 -615 172 -615 131 -569.5 c 128,-1,12
 90 -524 90 -524 66.5 -462.5 c 128,-1,13
 43 -401 43 -401 43 -319 c 0,14,15
 43 -226 43 -226 68 -144.5 c 128,-1,16
 93 -63 93 -63 139 6.5 c 128,-1,17
 185 76 185 76 250 134 c 128,-1,18
 315 192 315 192 395 238 c 1,19,20
 384 246 384 246 361.5 251 c 128,-1,21
 339 256 339 256 315 259 c 128,-1,22
 291 262 291 262 270 263 c 128,-1,23
 249 264 249 264 240 264 c 0,24,25
 206 264 206 264 164 258.5 c 128,-1,26
 122 253 122 253 90 242 c 1,27,28
 90 246 90 246 92.5 258 c 128,-1,29
 95 270 95 270 98.5 284.5 c 128,-1,30
 102 299 102 299 105.5 312.5 c 128,-1,31
 109 326 109 326 111 332 c 0,32,33
 113 340 113 340 129 350.5 c 128,-1,34
 145 361 145 361 170 370.5 c 128,-1,35
 195 380 195 380 225.5 386.5 c 128,-1,36
 256 393 256 393 287 393 c 0,37,38
 332 393 332 393 377.5 386.5 c 128,-1,39
 423 380 423 380 468 372.5 c 128,-1,40
 513 365 513 365 558.5 359 c 128,-1,41
 604 353 604 353 649 354 c 0,42,43
 693 356 693 356 737 360.5 c 128,-1,44
 781 365 781 365 823 365 c 0,45,46
 829 365 829 365 838.5 364.5 c 128,-1,47
 848 364 848 364 848 354 c 0,48,49
 848 350 848 350 841 335.5 c 128,-1,50
 834 321 834 321 825.5 305 c 128,-1,51
 817 289 817 289 808.5 276.5 c 128,-1,52
 800 264 800 264 797 264 c 0,53,54
 763 258 763 258 715.5 251 c 128,-1,55
 668 244 668 244 625 238 c 0,56,57
 574 230 574 230 515 211 c 128,-1,58
 456 192 456 192 397.5 162.5 c 128,-1,59
 339 133 339 133 285.5 93.5 c 128,-1,60
 232 54 232 54 190.5 4.5 c 128,-1,61
 149 -45 149 -45 124.5 -103.5 c 128,-1,62
 100 -162 100 -162 100 -229 c 0,63,64
 100 -307 100 -307 126 -365.5 c 128,-1,65
 152 -424 152 -424 197 -466.5 c 128,-1,66
 242 -509 242 -509 301.5 -536.5 c 128,-1,67
 361 -564 361 -564 427.5 -580.5 c 128,-1,68
 494 -597 494 -597 563.5 -603.5 c 128,-1,69
 633 -610 633 -610 698 -610 c 0,70,71
 735 -610 735 -610 778 -606.5 c 128,-1,72
 821 -603 821 -603 862 -599 c 128,-1,73
 903 -595 903 -595 938.5 -591.5 c 128,-1,74
 974 -588 974 -588 997 -588 c 0,75,76
 1008 -588 1008 -588 1008 -600 c 0,0,1
EndSplineSet
Substitution2: "'medi' Medial Forms in Arabic lookup 3 subtable" uni062D.medi
Substitution2: "'fina' Terminal Forms in Arabic lookup 2 subtable" uni062D.fina
Substitution2: "'init' Initial Forms in Arabic lookup 1 subtable" uni062D.init
EndChar
StartChar: uni062F
Encoding: 1583 1583 276
Width: 621
GlyphClass: 2
Flags: W
AnchorPoint: "Anchor-4" 250 -180 basechar 0
AnchorPoint: "Anchor-1" 266 859 basechar 0
LayerCount: 2
Fore
SplineSet
551 199 m 0,0,1
 551 185 551 185 547.5 168 c 128,-1,2
 544 151 544 151 538.5 134.5 c 128,-1,3
 533 118 533 118 525.5 105 c 128,-1,4
 518 92 518 92 510 86 c 0,5,6
 429 32 429 32 348 12 c 128,-1,7
 267 -8 267 -8 182 -8 c 0,8,9
 131 -8 131 -8 103.5 -5.5 c 128,-1,10
 76 -3 76 -3 76 6 c 0,11,12
 76 9 76 9 78.5 31.5 c 128,-1,13
 81 54 81 54 84 79.5 c 128,-1,14
 87 105 87 105 91 126 c 128,-1,15
 95 147 95 147 98 147 c 0,16,17
 100 147 100 147 110.5 146 c 128,-1,18
 121 145 121 145 135.5 143.5 c 128,-1,19
 150 142 150 142 166 140.5 c 128,-1,20
 182 139 182 139 195 139 c 0,21,22
 231 139 231 139 280 145.5 c 128,-1,23
 329 152 329 152 375.5 163 c 128,-1,24
 422 174 422 174 458.5 187.5 c 128,-1,25
 495 201 495 201 506 215 c 1,26,27
 501 263 501 263 469.5 303.5 c 128,-1,28
 438 344 438 344 396 375 c 128,-1,29
 354 406 354 406 308.5 425.5 c 128,-1,30
 263 445 263 445 229 451 c 0,31,32
 226 453 226 453 224.5 456.5 c 128,-1,33
 223 460 223 460 223 463 c 0,34,35
 223 471 223 471 228.5 493.5 c 128,-1,36
 234 516 234 516 240.5 539 c 128,-1,37
 247 562 247 562 253.5 580 c 128,-1,38
 260 598 260 598 262 598 c 0,39,40
 266 598 266 598 272 596 c 0,41,42
 341 573 341 573 393 529.5 c 128,-1,43
 445 486 445 486 480 432 c 128,-1,44
 515 378 515 378 533 317 c 128,-1,45
 551 256 551 256 551 199 c 0,0,1
EndSplineSet
Substitution2: "'fina' Terminal Forms in Arabic lookup 2 subtable" uni062F.fina
EndChar
StartChar: uni0631
Encoding: 1585 1585 290
Width: 530
GlyphClass: 2
Flags: W
AnchorPoint: "Anchor-4" 150 -530 basechar 0
AnchorPoint: "Anchor-1" 224 750 basechar 0
LayerCount: 2
Fore
SplineSet
453 49 m 0,0,1
 453 -4 453 -4 437.5 -60.5 c 128,-1,2
 422 -117 422 -117 396 -170 c 128,-1,3
 370 -223 370 -223 334.5 -269.5 c 128,-1,4
 299 -316 299 -316 260 -348 c 0,5,6
 236 -367 236 -367 209 -377.5 c 128,-1,7
 182 -388 182 -388 156 -392.5 c 128,-1,8
 130 -397 130 -397 107 -398 c 128,-1,9
 84 -399 84 -399 68 -399 c 0,10,11
 41 -399 41 -399 10 -390.5 c 128,-1,12
 -21 -382 -21 -382 -47.5 -371.5 c 128,-1,13
 -74 -361 -74 -361 -91.5 -351.5 c 128,-1,14
 -109 -342 -109 -342 -109 -340 c 0,15,16
 -109 -337 -109 -337 -106 -332.5 c 128,-1,17
 -103 -328 -103 -328 -100 -328 c 0,18,19
 -99 -328 -99 -328 -85.5 -330 c 128,-1,20
 -72 -332 -72 -332 -55 -334 c 128,-1,21
 -38 -336 -38 -336 -20.5 -338 c 128,-1,22
 -3 -340 -3 -340 8 -340 c 0,23,24
 65 -340 65 -340 132.5 -306 c 128,-1,25
 200 -272 200 -272 274 -203 c 0,26,27
 340 -141 340 -141 375 -85 c 128,-1,28
 410 -29 410 -29 410 8 c 0,29,30
 410 22 410 22 396.5 54 c 128,-1,31
 383 86 383 86 367 120.5 c 128,-1,32
 351 155 351 155 337.5 184.5 c 128,-1,33
 324 214 324 214 324 223 c 0,34,35
 324 230 324 230 332 249 c 128,-1,36
 340 268 340 268 349.5 288.5 c 128,-1,37
 359 309 359 309 368 325.5 c 128,-1,38
 377 342 377 342 379 344 c 1,39,40
 400 310 400 310 414.5 271.5 c 128,-1,41
 429 233 429 233 437.5 195 c 128,-1,42
 446 157 446 157 449.5 119.5 c 128,-1,43
 453 82 453 82 453 49 c 0,0,1
EndSplineSet
Substitution2: "'fina' Terminal Forms in Arabic lookup 2 subtable" uni0631.fina
EndChar
StartChar: uni0637
Encoding: 1591 1591 372
Width: 1092
GlyphClass: 2
Flags: W
AnchorPoint: "Anchor-4" 500 -180 basechar 0
AnchorPoint: "Anchor-1" 389 1231 basechar 0
LayerCount: 2
Fore
SplineSet
1020 348 m 0,0,1
 1020 284 1020 284 984 233.5 c 128,-1,2
 948 183 948 183 888 144.5 c 128,-1,3
 828 106 828 106 749 79 c 128,-1,4
 670 52 670 52 583.5 35 c 128,-1,5
 497 18 497 18 409 10 c 128,-1,6
 321 2 321 2 242 2 c 0,7,8
 224 2 224 2 212.5 2.5 c 128,-1,9
 201 3 201 3 192.5 4 c 128,-1,10
 184 5 184 5 177 7 c 128,-1,11
 170 9 170 9 162 12 c 0,12,13
 155 14 155 14 133.5 30.5 c 128,-1,14
 112 47 112 47 88.5 67 c 128,-1,15
 65 87 65 87 47 105 c 128,-1,16
 29 123 29 123 29 129 c 0,17,18
 29 137 29 137 39 137 c 0,19,20
 65 137 65 137 86.5 135 c 128,-1,21
 108 133 108 133 128.5 130 c 128,-1,22
 149 127 149 127 170.5 125 c 128,-1,23
 192 123 192 123 219 123 c 0,24,25
 287 123 287 123 339 134.5 c 128,-1,26
 391 146 391 146 428 184 c 1,27,28
 434 199 434 199 439 220 c 128,-1,29
 444 241 444 241 447.5 261.5 c 128,-1,30
 451 282 451 282 453 300 c 128,-1,31
 455 318 455 318 455 328 c 0,32,33
 455 381 455 381 453.5 423 c 128,-1,34
 452 465 452 465 448 503 c 128,-1,35
 444 541 444 541 439 578 c 128,-1,36
 434 615 434 615 426 657 c 0,37,38
 419 701 419 701 410.5 743 c 128,-1,39
 402 785 402 785 394.5 821 c 128,-1,40
 387 857 387 857 382 884 c 128,-1,41
 377 911 377 911 377 926 c 0,42,43
 377 939 377 939 382.5 960.5 c 128,-1,44
 388 982 388 982 396 1002.5 c 128,-1,45
 404 1023 404 1023 412.5 1038 c 128,-1,46
 421 1053 421 1053 428 1053 c 0,47,48
 432 1053 432 1053 445.5 1035 c 128,-1,49
 459 1017 459 1017 473.5 995 c 128,-1,50
 488 973 488 973 499 954.5 c 128,-1,51
 510 936 510 936 508 934 c 0,52,53
 500 928 500 928 491.5 919.5 c 128,-1,54
 483 911 483 911 476.5 898.5 c 128,-1,55
 470 886 470 886 465.5 869 c 128,-1,56
 461 852 461 852 461 829 c 0,57,58
 461 811 461 811 467.5 770.5 c 128,-1,59
 474 730 474 730 481.5 679.5 c 128,-1,60
 489 629 489 629 495.5 573.5 c 128,-1,61
 502 518 502 518 502 469 c 0,62,63
 502 451 502 451 501 423 c 128,-1,64
 500 395 500 395 498.5 364 c 128,-1,65
 497 333 497 333 494.5 302.5 c 128,-1,66
 492 272 492 272 489 250 c 1,67,68
 539 301 539 301 591 346.5 c 128,-1,69
 643 392 643 392 693 426 c 128,-1,70
 743 460 743 460 789.5 480 c 128,-1,71
 836 500 836 500 874 500 c 0,72,73
 910 500 910 500 937 488 c 128,-1,74
 964 476 964 476 982.5 455 c 128,-1,75
 1001 434 1001 434 1010.5 406.5 c 128,-1,76
 1020 379 1020 379 1020 348 c 0,0,1
946 285 m 0,77,78
 946 299 946 299 933 311.5 c 128,-1,79
 920 324 920 324 900.5 333.5 c 128,-1,80
 881 343 881 343 858 348.5 c 128,-1,81
 835 354 835 354 815 354 c 0,82,83
 774 354 774 354 728.5 345 c 128,-1,84
 683 336 683 336 636.5 311.5 c 128,-1,85
 590 287 590 287 543.5 243.5 c 128,-1,86
 497 200 497 200 453 131 c 1,87,88
 584 139 584 139 677.5 162 c 128,-1,89
 771 185 771 185 830.5 211 c 128,-1,90
 890 237 890 237 918 258.5 c 128,-1,91
 946 280 946 280 946 285 c 0,77,78
EndSplineSet
Substitution2: "'medi' Medial Forms in Arabic lookup 3 subtable" uni0637.medi
Substitution2: "'fina' Terminal Forms in Arabic lookup 2 subtable" uni0637.fina
Substitution2: "'init' Initial Forms in Arabic lookup 1 subtable" uni0637.init
EndChar
StartChar: uni0639
Encoding: 1593 1593 375
Width: 1008
GlyphClass: 2
Flags: W
AnchorPoint: "Anchor-4" 300 -840 basechar 0
AnchorPoint: "Anchor-1" 270 900 basechar 0
LayerCount: 2
Fore
SplineSet
1010 -590 m 0,0,1
 1010 -592 1010 -592 985.5 -602.5 c 128,-1,2
 961 -613 961 -613 923.5 -627 c 128,-1,3
 886 -641 886 -641 840.5 -657 c 128,-1,4
 795 -673 795 -673 753.5 -686.5 c 128,-1,5
 712 -700 712 -700 680 -708.5 c 128,-1,6
 648 -717 648 -717 637 -717 c 0,7,8
 526 -717 526 -717 420 -699 c 128,-1,9
 314 -681 314 -681 230.5 -634.5 c 128,-1,10
 147 -588 147 -588 96 -508.5 c 128,-1,11
 45 -429 45 -429 45 -307 c 0,12,13
 45 -229 45 -229 66.5 -152 c 128,-1,14
 88 -75 88 -75 121.5 -7 c 128,-1,15
 155 61 155 61 195 116 c 128,-1,16
 235 171 235 171 272 205 c 1,17,18
 248 208 248 208 217.5 218 c 128,-1,19
 187 228 187 228 160.5 245 c 128,-1,20
 134 262 134 262 116 285.5 c 128,-1,21
 98 309 98 309 98 340 c 0,22,23
 98 358 98 358 107.5 388 c 128,-1,24
 117 418 117 418 132 451.5 c 128,-1,25
 147 485 147 485 165 517.5 c 128,-1,26
 183 550 183 550 201 573 c 0,27,28
 222 599 222 599 241 613.5 c 128,-1,29
 260 628 260 628 276.5 635 c 128,-1,30
 293 642 293 642 307 643.5 c 128,-1,31
 321 645 321 645 330 645 c 0,32,33
 342 645 342 645 355.5 643.5 c 128,-1,34
 369 642 369 642 377 637 c 0,35,36
 389 631 389 631 404 622 c 128,-1,37
 419 613 419 613 431.5 604 c 128,-1,38
 444 595 444 595 452.5 587 c 128,-1,39
 461 579 461 579 461 575 c 0,40,41
 461 573 461 573 460 571 c 0,42,43
 458 567 458 567 455 567 c 0,44,45
 433 567 433 567 389 561.5 c 128,-1,46
 345 556 345 556 285 530 c 0,47,48
 249 514 249 514 224.5 496 c 128,-1,49
 200 478 200 478 185 460.5 c 128,-1,50
 170 443 170 443 163 427 c 128,-1,51
 156 411 156 411 156 399 c 0,52,53
 156 384 156 384 176.5 367 c 128,-1,54
 197 350 197 350 226 335.5 c 128,-1,55
 255 321 255 321 286.5 312 c 128,-1,56
 318 303 318 303 340 303 c 0,57,58
 346 303 346 303 362.5 304 c 128,-1,59
 379 305 379 305 393 313 c 0,60,61
 411 322 411 322 437.5 336.5 c 128,-1,62
 464 351 464 351 493 367 c 128,-1,63
 522 383 522 383 551 399 c 128,-1,64
 580 415 580 415 603 428 c 128,-1,65
 626 441 626 441 641 449 c 128,-1,66
 656 457 656 457 657 457 c 0,67,68
 662 457 662 457 662 451 c 0,69,70
 662 448 662 448 648.5 427 c 128,-1,71
 635 406 635 406 618 381.5 c 128,-1,72
 601 357 601 357 586 336 c 128,-1,73
 571 315 571 315 569 313 c 0,74,75
 563 308 563 308 536 294 c 128,-1,76
 509 280 509 280 475 260 c 0,77,78
 395 213 395 213 327 161.5 c 128,-1,79
 259 110 259 110 209 51.5 c 128,-1,80
 159 -7 159 -7 130.5 -74 c 128,-1,81
 102 -141 102 -141 102 -219 c 0,82,83
 102 -295 102 -295 128 -352.5 c 128,-1,84
 154 -410 154 -410 199 -452.5 c 128,-1,85
 244 -495 244 -495 303.5 -523 c 128,-1,86
 363 -551 363 -551 429.5 -568.5 c 128,-1,87
 496 -586 496 -586 565.5 -593 c 128,-1,88
 635 -600 635 -600 700 -600 c 0,89,90
 737 -600 737 -600 780 -596.5 c 128,-1,91
 823 -593 823 -593 864 -589 c 128,-1,92
 905 -585 905 -585 940.5 -581.5 c 128,-1,93
 976 -578 976 -578 999 -578 c 0,94,95
 1010 -578 1010 -578 1010 -590 c 0,0,1
EndSplineSet
Substitution2: "'medi' Medial Forms in Arabic lookup 3 subtable" uni0639.medi
Substitution2: "'fina' Terminal Forms in Arabic lookup 2 subtable" uni0639.fina
Substitution2: "'init' Initial Forms in Arabic lookup 1 subtable" uni0639.init
EndChar
StartChar: uni0643
Encoding: 1603 1603 395
Width: 940
GlyphClass: 2
Flags: W
AnchorPoint: "Anchor-4" 400 -210 basechar 0
AnchorPoint: "Anchor-1" 315 1155 basechar 0
LayerCount: 2
Fore
SplineSet
860 205 m 0,0,1
 860 190 860 190 849 163 c 128,-1,2
 838 136 838 136 823 107.5 c 128,-1,3
 808 79 808 79 792 55 c 128,-1,4
 776 31 776 31 766 23 c 0,5,6
 755 14 755 14 720 7 c 128,-1,7
 685 0 685 0 631 -4 c 128,-1,8
 577 -8 577 -8 506 -10 c 128,-1,9
 435 -12 435 -12 352 -12 c 0,10,11
 283 -12 283 -12 231.5 -11 c 128,-1,12
 180 -10 180 -10 146 -3 c 128,-1,13
 112 4 112 4 95 19 c 128,-1,14
 78 34 78 34 78 61 c 0,15,16
 78 77 78 77 81.5 96.5 c 128,-1,17
 85 116 85 116 89.5 135 c 128,-1,18
 94 154 94 154 99.5 171 c 128,-1,19
 105 188 105 188 109 199 c 0,20,21
 112 208 112 208 122 205 c 128,-1,22
 132 202 132 202 129 193 c 0,23,24
 125 169 125 169 133 155 c 128,-1,25
 141 141 141 141 168.5 133.5 c 128,-1,26
 196 126 196 126 246 123.5 c 128,-1,27
 296 121 296 121 375 121 c 0,28,29
 438 121 438 121 504 122 c 128,-1,30
 570 123 570 123 628 126.5 c 128,-1,31
 686 130 686 130 730 138 c 128,-1,32
 774 146 774 146 793 160 c 0,33,34
 802 166 802 166 803.5 178.5 c 128,-1,35
 805 191 805 191 805 201 c 0,36,37
 805 225 805 225 794.5 285.5 c 128,-1,38
 784 346 784 346 768 424.5 c 128,-1,39
 752 503 752 503 733.5 591 c 128,-1,40
 715 679 715 679 699 757 c 128,-1,41
 683 835 683 835 672.5 894 c 128,-1,42
 662 953 662 953 662 975 c 0,43,44
 662 987 662 987 665 1004.5 c 128,-1,45
 668 1022 668 1022 674.5 1039.5 c 128,-1,46
 681 1057 681 1057 690.5 1072 c 128,-1,47
 700 1087 700 1087 713 1094 c 1,48,-1
 791 983 l 1,49,50
 775 961 775 961 762.5 938.5 c 128,-1,51
 750 916 750 916 750 879 c 0,52,53
 750 858 750 858 758 815.5 c 128,-1,54
 766 773 766 773 778.5 717 c 128,-1,55
 791 661 791 661 805 595.5 c 128,-1,56
 819 530 819 530 831.5 462.5 c 128,-1,57
 844 395 844 395 852 328.5 c 128,-1,58
 860 262 860 262 860 205 c 0,0,1
514 555 m 0,59,60
 514 527 514 527 501 496.5 c 128,-1,61
 488 466 488 466 466 440.5 c 128,-1,62
 444 415 444 415 414.5 399 c 128,-1,63
 385 383 385 383 352 383 c 0,64,65
 338 383 338 383 317.5 387.5 c 128,-1,66
 297 392 297 392 276 399 c 128,-1,67
 255 406 255 406 235 416 c 128,-1,68
 215 426 215 426 203 436 c 1,69,70
 228 438 228 438 264.5 443 c 128,-1,71
 301 448 301 448 334.5 454.5 c 128,-1,72
 368 461 368 461 392 470 c 128,-1,73
 416 479 416 479 416 489 c 0,74,75
 416 504 416 504 396 507 c 128,-1,76
 376 510 376 510 351.5 513.5 c 128,-1,77
 327 517 327 517 307 528.5 c 128,-1,78
 287 540 287 540 287 573 c 0,79,80
 287 601 287 601 299 636 c 128,-1,81
 311 671 311 671 333 706 c 128,-1,82
 355 741 355 741 385.5 772 c 128,-1,83
 416 803 416 803 453 823 c 1,84,85
 455 819 455 819 458 805.5 c 128,-1,86
 461 792 461 792 463.5 777 c 128,-1,87
 466 762 466 762 468 749 c 128,-1,88
 470 736 470 736 471 731 c 1,89,90
 460 727 460 727 443.5 720 c 128,-1,91
 427 713 427 713 411 704 c 128,-1,92
 395 695 395 695 384 685 c 128,-1,93
 373 675 373 675 373 664 c 0,94,95
 373 648 373 648 383.5 641.5 c 128,-1,96
 394 635 394 635 409.5 631.5 c 128,-1,97
 425 628 425 628 443.5 625.5 c 128,-1,98
 462 623 462 623 477.5 616 c 128,-1,99
 493 609 493 609 503.5 595 c 128,-1,100
 514 581 514 581 514 555 c 0,59,60
EndSplineSet
Substitution2: "'medi' Medial Forms in Arabic lookup 3 subtable" uni0643.medi
Substitution2: "'fina' Terminal Forms in Arabic lookup 2 subtable" uni0643.fina
Substitution2: "'init' Initial Forms in Arabic lookup 1 subtable" uni0643.init
EndChar
StartChar: uni0645
Encoding: 1605 1605 418
Width: 582
GlyphClass: 2
Flags: W
AnchorPoint: "Anchor-4" 165 -660 basechar 0
AnchorPoint: "Anchor-1" 192 837 basechar 0
LayerCount: 2
Fore
SplineSet
526 272 m 0,0,1
 526 266 526 266 523 249.5 c 128,-1,2
 520 233 520 233 514.5 216 c 128,-1,3
 509 199 509 199 502.5 185.5 c 128,-1,4
 496 172 496 172 489 172 c 2,5,-1
 430 172 l 2,6,7
 360 172 360 172 306 165 c 128,-1,8
 252 158 252 158 199 133 c 256,9,10
 146 108 146 108 126 78.5 c 128,-1,11
 106 49 106 49 106 14 c 0,12,13
 106 8 106 8 111.5 -20 c 128,-1,14
 117 -48 117 -48 125.5 -89 c 128,-1,15
 134 -130 134 -130 145 -180.5 c 128,-1,16
 156 -231 156 -231 167.5 -283 c 128,-1,17
 179 -335 179 -335 190 -385 c 128,-1,18
 201 -435 201 -435 209.5 -474.5 c 128,-1,19
 218 -514 218 -514 223.5 -539.5 c 128,-1,20
 229 -565 229 -565 229 -569 c 256,21,22
 229 -573 229 -573 226.5 -585 c 128,-1,23
 224 -597 224 -597 220 -610 c 128,-1,24
 216 -623 216 -623 211.5 -633 c 128,-1,25
 207 -643 207 -643 203 -643 c 0,26,27
 197 -643 197 -643 197 -639 c 0,28,29
 183 -552 183 -552 161 -462.5 c 128,-1,30
 139 -373 139 -373 118.5 -291.5 c 128,-1,31
 98 -210 98 -210 83 -141 c 128,-1,32
 68 -72 68 -72 68 -27 c 0,33,34
 68 -9 68 -9 69 6.5 c 128,-1,35
 70 22 70 22 73 39.5 c 128,-1,36
 76 57 76 57 80.5 79 c 128,-1,37
 85 101 85 101 91 131 c 0,38,39
 99 171 99 171 114.5 198 c 128,-1,40
 130 225 130 225 157.5 245.5 c 128,-1,41
 185 266 185 266 227.5 281.5 c 128,-1,42
 270 297 270 297 332 315 c 1,43,44
 330 323 330 323 321.5 330.5 c 128,-1,45
 313 338 313 338 302 343.5 c 128,-1,46
 291 349 291 349 277.5 352.5 c 128,-1,47
 264 356 264 356 252 356 c 0,48,49
 239 356 239 356 227 348.5 c 128,-1,50
 215 341 215 341 203 331.5 c 128,-1,51
 191 322 191 322 179 314.5 c 128,-1,52
 167 307 167 307 154 307 c 0,53,54
 151 307 151 307 145 308 c 128,-1,55
 139 309 139 309 139 315 c 0,56,57
 139 316 139 316 141.5 323.5 c 128,-1,58
 144 331 144 331 148 342 c 128,-1,59
 152 353 152 353 156.5 364.5 c 128,-1,60
 161 376 161 376 165 385 c 0,61,62
 178 412 178 412 192 432.5 c 128,-1,63
 206 453 206 453 224 467.5 c 128,-1,64
 242 482 242 482 265.5 489 c 128,-1,65
 289 496 289 496 319 496 c 0,66,67
 348 496 348 496 383.5 473 c 128,-1,68
 419 450 419 450 451 416 c 128,-1,69
 483 382 483 382 504.5 343 c 128,-1,70
 526 304 526 304 526 272 c 0,0,1
EndSplineSet
Substitution2: "'calt' Contextual Alternates in Arabic lookup 11 subtable" uni0645.sindhi
Substitution2: "'medi' Medial Forms in Arabic lookup 3 subtable" uni0645.medi
Substitution2: "'fina' Terminal Forms in Arabic lookup 2 subtable" uni0645.fina
Substitution2: "'init' Initial Forms in Arabic lookup 1 subtable" uni0645.init
EndChar
StartChar: uni0648
Encoding: 1608 1608 263
Width: 573
GlyphClass: 2
Flags: W
AnchorPoint: "Anchor-4" 250 -600 basechar 0
AnchorPoint: "Anchor-1" 363 691 basechar 0
LayerCount: 2
Fore
SplineSet
522 125 m 0,0,1
 522 64 522 64 508 -3.5 c 128,-1,2
 494 -71 494 -71 469.5 -136 c 128,-1,3
 445 -201 445 -201 411.5 -260 c 128,-1,4
 378 -319 378 -319 337.5 -363.5 c 128,-1,5
 297 -408 297 -408 252 -434.5 c 128,-1,6
 207 -461 207 -461 160 -461 c 256,7,8
 113 -461 113 -461 70.5 -449 c 128,-1,9
 28 -437 28 -437 -4.5 -422 c 128,-1,10
 -37 -407 -37 -407 -56.5 -393.5 c 128,-1,11
 -76 -380 -76 -380 -76 -377 c 0,12,13
 -76 -372 -76 -372 -73.5 -367 c 128,-1,14
 -71 -362 -71 -362 -68 -362 c 256,15,16
 -65 -362 -65 -362 -50 -366 c 128,-1,17
 -35 -370 -35 -370 -15.5 -374.5 c 128,-1,18
 4 -379 4 -379 24 -383 c 128,-1,19
 44 -387 44 -387 57 -387 c 0,20,21
 107 -387 107 -387 157 -367.5 c 128,-1,22
 207 -348 207 -348 253 -315 c 128,-1,23
 299 -282 299 -282 338.5 -238 c 128,-1,24
 378 -194 378 -194 407.5 -145.5 c 128,-1,25
 437 -97 437 -97 454 -46 c 128,-1,26
 471 5 471 5 471 51 c 0,27,28
 471 76 471 76 467 92.5 c 128,-1,29
 463 109 463 109 457 123 c 1,30,31
 449 113 449 113 439 101.5 c 128,-1,32
 429 90 429 90 417 80.5 c 128,-1,33
 405 71 405 71 390.5 65 c 128,-1,34
 376 59 376 59 360 59 c 0,35,36
 341 59 341 59 320.5 68 c 128,-1,37
 300 77 300 77 283.5 92.5 c 128,-1,38
 267 108 267 108 256.5 130 c 128,-1,39
 246 152 246 152 246 178 c 0,40,41
 246 217 246 217 261 263 c 128,-1,42
 276 309 276 309 298 349.5 c 128,-1,43
 320 390 320 390 343.5 417 c 128,-1,44
 367 444 367 444 385 444 c 0,45,46
 407 444 407 444 431 423.5 c 128,-1,47
 455 403 455 403 475.5 362.5 c 128,-1,48
 496 322 496 322 509 262.5 c 128,-1,49
 522 203 522 203 522 125 c 0,0,1
403 246 m 1,50,51
 392 263 392 263 377 272 c 128,-1,52
 362 281 362 281 352 281 c 0,53,54
 337 281 337 281 330.5 269 c 128,-1,55
 324 257 324 257 324 240 c 0,56,57
 324 232 324 232 333 220.5 c 128,-1,58
 342 209 342 209 356 209 c 0,59,60
 367 209 367 209 382 220.5 c 128,-1,61
 397 232 397 232 403 246 c 1,50,51
EndSplineSet
Substitution2: "'fina' Terminal Forms in Arabic lookup 2 subtable" uni0648.fina
EndChar
StartChar: uni064B
Encoding: 1611 1611 904
Width: 0
GlyphClass: 4
Flags: W
AnchorPoint: "Anchor-3" 90 1425 basemark 0
AnchorPoint: "Anchor-3" 120 1020 mark 0
AnchorPoint: "Anchor-1" 120 1020 mark 0
LayerCount: 2
Fore
SplineSet
274 1357 m 0,0,1
 274 1355 274 1355 268.5 1341.5 c 128,-1,2
 263 1328 263 1328 260 1318 c 0,3,4
 251 1297 251 1297 232 1287 c 128,-1,5
 213 1277 213 1277 199 1269 c 2,6,-1
 6 1169 l 2,7,8
 -19 1157 -19 1157 -28 1150.5 c 128,-1,9
 -37 1144 -37 1144 -43 1144 c 0,10,11
 -48 1144 -48 1144 -48.5 1146 c 128,-1,12
 -49 1148 -49 1148 -49 1153 c 0,13,14
 -49 1155 -49 1155 -46.5 1167 c 128,-1,15
 -44 1179 -44 1179 -39 1187 c 0,16,17
 -34 1197 -34 1197 -30 1203.5 c 128,-1,18
 -26 1210 -26 1210 -21 1214.5 c 128,-1,19
 -16 1219 -16 1219 -9.5 1223.5 c 128,-1,20
 -3 1228 -3 1228 8 1234 c 2,21,-1
 207 1339 l 2,22,23
 224 1348 224 1348 241 1359 c 128,-1,24
 258 1370 258 1370 264 1370 c 256,25,26
 270 1370 270 1370 272 1367.5 c 128,-1,27
 274 1365 274 1365 274 1357 c 0,0,1
274 1210 m 0,28,29
 274 1208 274 1208 268.5 1194.5 c 128,-1,30
 263 1181 263 1181 260 1171 c 0,31,32
 251 1150 251 1150 232 1140 c 128,-1,33
 213 1130 213 1130 199 1122 c 2,34,-1
 6 1022 l 2,35,36
 -19 1010 -19 1010 -28 1003.5 c 128,-1,37
 -37 997 -37 997 -43 997 c 0,38,39
 -48 997 -48 997 -48.5 999 c 128,-1,40
 -49 1001 -49 1001 -49 1006 c 0,41,42
 -49 1008 -49 1008 -46.5 1020 c 128,-1,43
 -44 1032 -44 1032 -39 1040 c 0,44,45
 -34 1050 -34 1050 -30 1056.5 c 128,-1,46
 -26 1063 -26 1063 -21 1067.5 c 128,-1,47
 -16 1072 -16 1072 -9.5 1076.5 c 128,-1,48
 -3 1081 -3 1081 8 1087 c 2,49,-1
 207 1192 l 2,50,51
 224 1201 224 1201 241 1212 c 128,-1,52
 258 1223 258 1223 264 1223 c 256,53,54
 270 1223 270 1223 272 1220.5 c 128,-1,55
 274 1218 274 1218 274 1210 c 0,28,29
EndSplineSet
EndChar
StartChar: uni064C
Encoding: 1612 1612 905
Width: 0
GlyphClass: 4
Flags: W
AnchorPoint: "Anchor-3" 90 1455 basemark 0
AnchorPoint: "Anchor-3" 180 1005 mark 0
AnchorPoint: "Anchor-1" 180 1005 mark 0
LayerCount: 2
Fore
SplineSet
338 1120 m 0,0,1
 338 1100 338 1100 333 1088.5 c 128,-1,2
 328 1077 328 1077 317 1077 c 0,3,4
 312 1077 312 1077 302.5 1082.5 c 128,-1,5
 293 1088 293 1088 283 1095.5 c 128,-1,6
 273 1103 273 1103 263 1111.5 c 128,-1,7
 253 1120 253 1120 246 1126 c 1,8,9
 214 1094 214 1094 182.5 1068 c 128,-1,10
 151 1042 151 1042 123 1024 c 128,-1,11
 95 1006 95 1006 71 996.5 c 128,-1,12
 47 987 47 987 29 987 c 0,13,14
 21 987 21 987 16.5 990.5 c 128,-1,15
 12 994 12 994 12 997 c 256,16,17
 12 1000 12 1000 18 1012 c 128,-1,18
 24 1024 24 1024 30.5 1039.5 c 128,-1,19
 37 1055 37 1055 43 1073 c 128,-1,20
 49 1091 49 1091 49 1106 c 0,21,22
 49 1114 49 1114 48 1123.5 c 128,-1,23
 47 1133 47 1133 43 1141 c 128,-1,24
 39 1149 39 1149 31 1154 c 128,-1,25
 23 1159 23 1159 10 1159 c 0,26,27
 -5 1159 -5 1159 -14 1149 c 128,-1,28
 -23 1139 -23 1139 -27.5 1126.5 c 128,-1,29
 -32 1114 -32 1114 -34 1104 c 128,-1,30
 -36 1094 -36 1094 -37 1094 c 0,31,32
 -45 1094 -45 1094 -47 1099 c 128,-1,33
 -49 1104 -49 1104 -49 1112 c 0,34,35
 -49 1127 -49 1127 -46 1150.5 c 128,-1,36
 -43 1174 -43 1174 -35.5 1196.5 c 128,-1,37
 -28 1219 -28 1219 -14.5 1235 c 128,-1,38
 -1 1251 -1 1251 20 1251 c 0,39,40
 52 1251 52 1251 69 1234.5 c 128,-1,41
 86 1218 86 1218 92 1184 c 0,42,43
 95 1162 95 1162 94.5 1129 c 128,-1,44
 94 1096 94 1096 92 1071 c 1,45,46
 123 1082 123 1082 152.5 1105 c 128,-1,47
 182 1128 182 1128 205 1153 c 1,48,49
 195 1161 195 1161 183.5 1168 c 128,-1,50
 172 1175 172 1175 162.5 1184.5 c 128,-1,51
 153 1194 153 1194 147 1207 c 128,-1,52
 141 1220 141 1220 141 1241 c 0,53,54
 141 1266 141 1266 150 1291.5 c 128,-1,55
 159 1317 159 1317 174.5 1337.5 c 128,-1,56
 190 1358 190 1358 212 1371 c 128,-1,57
 234 1384 234 1384 260 1384 c 0,58,59
 277 1384 277 1384 289.5 1376.5 c 128,-1,60
 302 1369 302 1369 310.5 1357.5 c 128,-1,61
 319 1346 319 1346 323.5 1331.5 c 128,-1,62
 328 1317 328 1317 328 1303 c 0,63,64
 328 1293 328 1293 325 1279.5 c 128,-1,65
 322 1266 322 1266 317 1252.5 c 128,-1,66
 312 1239 312 1239 306 1225.5 c 128,-1,67
 300 1212 300 1212 295 1202 c 1,68,69
 315 1184 315 1184 326.5 1166.5 c 128,-1,70
 338 1149 338 1149 338 1120 c 0,0,1
252 1233 m 1,71,72
 259 1247 259 1247 259.5 1261.5 c 128,-1,73
 260 1276 260 1276 255 1288 c 128,-1,74
 250 1300 250 1300 240 1307.5 c 128,-1,75
 230 1315 230 1315 215 1315 c 0,76,77
 207 1315 207 1315 202 1309 c 128,-1,78
 197 1303 197 1303 197 1296 c 0,79,80
 197 1282 197 1282 209 1267.5 c 128,-1,81
 221 1253 221 1253 252 1233 c 1,71,72
EndSplineSet
EndChar
StartChar: uni064D
Encoding: 1613 1613 906
Width: 0
GlyphClass: 4
Flags: W
AnchorPoint: "Anchor-8" 141 -560 mark 0
AnchorPoint: "Anchor-5" 165 -975 basemark 0
AnchorPoint: "Anchor-5" 141 -560 mark 0
AnchorPoint: "Anchor-4" 141 -560 mark 0
LayerCount: 2
Fore
SplineSet
324 -563 m 0,0,1
 324 -566 324 -566 319 -579.5 c 128,-1,2
 314 -593 314 -593 309 -602 c 0,3,4
 300 -625 300 -625 282 -635 c 128,-1,5
 264 -645 264 -645 250 -653 c 2,6,-1
 57 -754 l 2,7,8
 33 -766 33 -766 23 -772 c 128,-1,9
 13 -778 13 -778 8 -778 c 0,10,11
 0 -778 0 -778 0 -770 c 0,12,13
 0 -767 0 -767 2.5 -755 c 128,-1,14
 5 -743 5 -743 10 -735 c 0,15,16
 16 -725 16 -725 20 -719 c 128,-1,17
 24 -713 24 -713 28.5 -708 c 128,-1,18
 33 -703 33 -703 40 -698.5 c 128,-1,19
 47 -694 47 -694 57 -688 c 2,20,-1
 256 -584 l 2,21,22
 273 -574 273 -574 290.5 -563.5 c 128,-1,23
 308 -553 308 -553 313 -553 c 0,24,25
 320 -553 320 -553 322 -554 c 128,-1,26
 324 -555 324 -555 324 -563 c 0,0,1
324 -729 m 0,27,28
 324 -732 324 -732 319 -745.5 c 128,-1,29
 314 -759 314 -759 309 -768 c 0,30,31
 300 -791 300 -791 282 -801 c 128,-1,32
 264 -811 264 -811 250 -817 c 2,33,-1
 57 -918 l 2,34,35
 33 -930 33 -930 23 -936 c 128,-1,36
 13 -942 13 -942 8 -942 c 0,37,38
 0 -942 0 -942 0 -936 c 0,39,40
 0 -933 0 -933 2.5 -920.5 c 128,-1,41
 5 -908 5 -908 10 -899 c 0,42,43
 16 -889 16 -889 20 -882.5 c 128,-1,44
 24 -876 24 -876 28.5 -871.5 c 128,-1,45
 33 -867 33 -867 40 -863 c 128,-1,46
 47 -859 47 -859 57 -854 c 2,47,-1
 256 -748 l 2,48,49
 273 -738 273 -738 290.5 -727.5 c 128,-1,50
 308 -717 308 -717 313 -717 c 0,51,52
 320 -717 320 -717 322 -719 c 128,-1,53
 324 -721 324 -721 324 -729 c 0,27,28
EndSplineSet
EndChar
StartChar: uni064F
Encoding: 1615 1615 908
Width: 0
GlyphClass: 4
Flags: W
AnchorPoint: "Anchor-3" 105 1515 basemark 0
AnchorPoint: "Anchor-3" 150 1020 mark 0
AnchorPoint: "Anchor-1" 150 1020 mark 0
LayerCount: 2
Fore
SplineSet
285 1171 m 0,0,1
 285 1166 285 1166 282.5 1155 c 128,-1,2
 280 1144 280 1144 276 1130 c 0,3,4
 274 1113 274 1113 272.5 1100 c 128,-1,5
 271 1087 271 1087 268 1087 c 0,6,7
 253 1087 253 1087 232.5 1101.5 c 128,-1,8
 212 1116 212 1116 190 1135 c 1,9,10
 138 1065 138 1065 93 1031 c 128,-1,11
 48 997 48 997 14 997 c 0,12,13
 0 997 0 997 -18.5 1001.5 c 128,-1,14
 -37 1006 -37 1006 -49 1012 c 1,15,16
 -27 1025 -27 1025 0 1042 c 128,-1,17
 27 1059 27 1059 53.5 1078.5 c 128,-1,18
 80 1098 80 1098 104 1119.5 c 128,-1,19
 128 1141 128 1141 145 1165 c 1,20,21
 119 1184 119 1184 104.5 1202.5 c 128,-1,22
 90 1221 90 1221 90 1249 c 0,23,24
 90 1270 90 1270 100 1298.5 c 128,-1,25
 110 1327 110 1327 125.5 1352.5 c 128,-1,26
 141 1378 141 1378 161.5 1395.5 c 128,-1,27
 182 1413 182 1413 203 1413 c 0,28,29
 221 1413 221 1413 233.5 1405 c 128,-1,30
 246 1397 246 1397 254 1384.5 c 128,-1,31
 262 1372 262 1372 266 1355.5 c 128,-1,32
 270 1339 270 1339 270 1321 c 0,33,34
 270 1290 270 1290 261 1262.5 c 128,-1,35
 252 1235 252 1235 240 1210 c 1,36,37
 245 1205 245 1205 253 1199.5 c 128,-1,38
 261 1194 261 1194 268 1188.5 c 128,-1,39
 275 1183 275 1183 280 1178.5 c 128,-1,40
 285 1174 285 1174 285 1171 c 0,0,1
207 1276 m 0,41,42
 207 1294 207 1294 192.5 1308.5 c 128,-1,43
 178 1323 178 1323 160 1323 c 0,44,45
 154 1323 154 1323 149.5 1319 c 128,-1,46
 145 1315 145 1315 145 1309 c 0,47,48
 145 1301 145 1301 157.5 1282 c 128,-1,49
 170 1263 170 1263 195 1243 c 1,50,51
 200 1251 200 1251 203.5 1258 c 128,-1,52
 207 1265 207 1265 207 1276 c 0,41,42
EndSplineSet
EndChar
StartChar: uni0650
Encoding: 1616 1616 909
Width: 0
GlyphClass: 4
Flags: W
AnchorPoint: "Anchor-8" 145 -560 mark 0
AnchorPoint: "Anchor-5" 165 -810 basemark 0
AnchorPoint: "Anchor-5" 145 -560 mark 0
AnchorPoint: "Anchor-4" 145 -560 mark 0
LayerCount: 2
Fore
SplineSet
324 -563 m 0,0,1
 324 -566 324 -566 319 -579.5 c 128,-1,2
 314 -593 314 -593 309 -602 c 0,3,4
 300 -625 300 -625 282 -635 c 128,-1,5
 264 -645 264 -645 250 -653 c 2,6,-1
 57 -754 l 2,7,8
 33 -766 33 -766 23 -772 c 128,-1,9
 13 -778 13 -778 8 -778 c 0,10,11
 0 -778 0 -778 0 -770 c 0,12,13
 0 -767 0 -767 2.5 -755 c 128,-1,14
 5 -743 5 -743 10 -735 c 0,15,16
 16 -725 16 -725 20 -719 c 128,-1,17
 24 -713 24 -713 28.5 -708 c 128,-1,18
 33 -703 33 -703 40 -698.5 c 128,-1,19
 47 -694 47 -694 57 -688 c 2,20,-1
 256 -584 l 2,21,22
 273 -574 273 -574 290.5 -563.5 c 128,-1,23
 308 -553 308 -553 313 -553 c 0,24,25
 320 -553 320 -553 322 -554 c 128,-1,26
 324 -555 324 -555 324 -563 c 0,0,1
EndSplineSet
EndChar
StartChar: uni0651
Encoding: 1617 1617 910
Width: 0
GlyphClass: 4
Flags: W
AnchorPoint: "Anchor-3" 150 1365 basemark 0
AnchorPoint: "Anchor-3" 195 960 mark 0
AnchorPoint: "Anchor-1" 195 960 mark 0
LayerCount: 2
Fore
SplineSet
342 1253 m 0,0,1
 342 1220 342 1220 336.5 1187 c 128,-1,2
 331 1154 331 1154 319 1127 c 128,-1,3
 307 1100 307 1100 287.5 1083.5 c 128,-1,4
 268 1067 268 1067 240 1067 c 0,5,6
 199 1067 199 1067 170 1087 c 1,7,8
 159 1071 159 1071 148 1055 c 128,-1,9
 137 1039 137 1039 124 1026 c 128,-1,10
 111 1013 111 1013 95 1005 c 128,-1,11
 79 997 79 997 59 997 c 0,12,13
 25 997 25 997 0 1027.5 c 128,-1,14
 -25 1058 -25 1058 -25 1112 c 0,15,16
 -25 1117 -25 1117 -23.5 1130.5 c 128,-1,17
 -22 1144 -22 1144 -19 1160.5 c 128,-1,18
 -16 1177 -16 1177 -11.5 1194 c 128,-1,19
 -7 1211 -7 1211 0 1223 c 0,20,21
 2 1228 2 1228 6.5 1226.5 c 128,-1,22
 11 1225 11 1225 16 1225 c 0,23,24
 23 1225 23 1225 23.5 1206.5 c 128,-1,25
 24 1188 24 1188 26 1166.5 c 128,-1,26
 28 1145 28 1145 35 1126.5 c 128,-1,27
 42 1108 42 1108 63 1108 c 0,28,29
 80 1108 80 1108 92.5 1120 c 128,-1,30
 105 1132 105 1132 115 1150 c 128,-1,31
 125 1168 125 1168 132 1189.5 c 128,-1,32
 139 1211 139 1211 143.5 1229.5 c 128,-1,33
 148 1248 148 1248 150.5 1261.5 c 128,-1,34
 153 1275 153 1275 154 1276 c 0,35,36
 156 1281 156 1281 164 1280.5 c 128,-1,37
 172 1280 172 1280 174 1280 c 0,38,39
 180 1280 180 1280 183 1264.5 c 128,-1,40
 186 1249 186 1249 191 1231 c 128,-1,41
 196 1213 196 1213 206 1197.5 c 128,-1,42
 216 1182 216 1182 236 1182 c 0,43,44
 257 1182 257 1182 269 1204.5 c 128,-1,45
 281 1227 281 1227 288 1254.5 c 128,-1,46
 295 1282 295 1282 297 1305.5 c 128,-1,47
 299 1329 299 1329 299 1331 c 0,48,49
 301 1337 301 1337 310 1341.5 c 128,-1,50
 319 1346 319 1346 324 1346 c 0,51,52
 328 1346 328 1346 331 1335.5 c 128,-1,53
 334 1325 334 1325 336.5 1310.5 c 128,-1,54
 339 1296 339 1296 340.5 1280 c 128,-1,55
 342 1264 342 1264 342 1253 c 0,0,1
EndSplineSet
EndChar
StartChar: uni0652
Encoding: 1618 1618 911
Width: 0
GlyphClass: 4
Flags: W
AnchorPoint: "Anchor-3" 90 1425 basemark 0
AnchorPoint: "Anchor-3" 120 930 mark 0
AnchorPoint: "Anchor-1" 120 930 mark 0
LayerCount: 2
Fore
SplineSet
227 1159 m 0,0,1
 227 1126 227 1126 215 1096.5 c 128,-1,2
 203 1067 203 1067 182.5 1045 c 128,-1,3
 162 1023 162 1023 133.5 1010 c 128,-1,4
 105 997 105 997 72 997 c 0,5,6
 25 997 25 997 0 1032 c 128,-1,7
 -25 1067 -25 1067 -25 1143 c 0,8,9
 -25 1173 -25 1173 -14.5 1200.5 c 128,-1,10
 -4 1228 -4 1228 14.5 1249.5 c 128,-1,11
 33 1271 33 1271 59.5 1283.5 c 128,-1,12
 86 1296 86 1296 117 1296 c 0,13,14
 139 1296 139 1296 159 1282.5 c 128,-1,15
 179 1269 179 1269 194 1248.5 c 128,-1,16
 209 1228 209 1228 218 1204 c 128,-1,17
 227 1180 227 1180 227 1159 c 0,0,1
178 1128 m 0,18,19
 178 1143 178 1143 167.5 1159 c 128,-1,20
 157 1175 157 1175 140.5 1188.5 c 128,-1,21
 124 1202 124 1202 104.5 1211 c 128,-1,22
 85 1220 85 1220 67 1220 c 0,23,24
 39 1220 39 1220 23.5 1199 c 128,-1,25
 8 1178 8 1178 8 1152 c 0,26,27
 8 1123 8 1123 34.5 1106.5 c 128,-1,28
 61 1090 61 1090 96 1090 c 0,29,30
 108 1090 108 1090 122 1093 c 128,-1,31
 136 1096 136 1096 148.5 1101.5 c 128,-1,32
 161 1107 161 1107 169.5 1114 c 128,-1,33
 178 1121 178 1121 178 1128 c 0,18,19
EndSplineSet
EndChar
StartChar: uni0653
Encoding: 1619 1619 912
Width: 0
GlyphClass: 4
Flags: W
AnchorPoint: "Anchor-3" 90 1305 basemark 0
AnchorPoint: "Anchor-3" 120 1110 mark 0
AnchorPoint: "Anchor-1" 120 1110 mark 0
LayerCount: 2
Fore
SplineSet
498 1210 m 0,0,1
 498 1196 498 1196 476 1180.5 c 128,-1,2
 454 1165 454 1165 419 1150 c 128,-1,3
 384 1135 384 1135 341 1121 c 128,-1,4
 298 1107 298 1107 254.5 1096.5 c 128,-1,5
 211 1086 211 1086 172.5 1079.5 c 128,-1,6
 134 1073 134 1073 109 1073 c 0,7,8
 83 1073 83 1073 50.5 1074 c 128,-1,9
 18 1075 18 1075 -11 1077 c 0,10,11
 -44 1079 -44 1079 -78 1081 c 0,12,13
 -87 1081 -87 1081 -90 1070 c 128,-1,14
 -93 1059 -93 1059 -95 1046.5 c 128,-1,15
 -97 1034 -97 1034 -100.5 1023 c 128,-1,16
 -104 1012 -104 1012 -115 1012 c 0,17,18
 -128 1012 -128 1012 -141 1023.5 c 128,-1,19
 -154 1035 -154 1035 -164 1051.5 c 128,-1,20
 -174 1068 -174 1068 -180 1086 c 128,-1,21
 -186 1104 -186 1104 -186 1116 c 0,22,23
 -186 1140 -186 1140 -176 1155 c 128,-1,24
 -166 1170 -166 1170 -150.5 1179 c 128,-1,25
 -135 1188 -135 1188 -116.5 1191 c 128,-1,26
 -98 1194 -98 1194 -82 1194 c 0,27,28
 -70 1194 -70 1194 -48 1192 c 128,-1,29
 -26 1190 -26 1190 1.5 1188 c 128,-1,30
 29 1186 29 1186 60.5 1184 c 128,-1,31
 92 1182 92 1182 123 1182 c 0,32,33
 209 1182 209 1182 272 1190.5 c 128,-1,34
 335 1199 335 1199 378 1208.5 c 128,-1,35
 421 1218 421 1218 445.5 1226.5 c 128,-1,36
 470 1235 470 1235 477 1235 c 0,37,38
 498 1235 498 1235 498 1210 c 0,0,1
EndSplineSet
EndChar
StartChar: uni0659
Encoding: 1625 1625 918
Width: 0
GlyphClass: 4
Flags: W
AnchorPoint: "Anchor-3" 90 1290 basemark 0
AnchorPoint: "Anchor-3" 207 969 mark 0
AnchorPoint: "Anchor-1" 207 969 mark 0
LayerCount: 2
Fore
SplineSet
404 1120 m 256,0,1
 402 1119 402 1119 392 1110 c 128,-1,2
 382 1101 382 1101 374 1094 c 0,3,4
 359 1080 359 1080 337 1078 c 128,-1,5
 315 1076 315 1076 298 1076 c 2,6,-1
 80 1076 l 2,7,8
 62 1076 62 1076 51.5 1075.5 c 128,-1,9
 41 1075 41 1075 35 1075 c 0,10,11
 30 1075 30 1075 24.5 1076.5 c 128,-1,12
 19 1078 19 1078 19 1083 c 0,13,14
 19 1085 19 1085 22 1088 c 0,15,16
 27 1091 27 1091 33 1100 c 128,-1,17
 39 1109 39 1109 46 1114 c 0,18,19
 60 1124 60 1124 73 1128.5 c 128,-1,20
 86 1133 86 1133 112 1135 c 2,21,-1
 336 1135 l 2,22,23
 351 1135 351 1135 366 1137 c 128,-1,24
 381 1139 381 1139 392 1139 c 0,25,26
 397 1139 397 1139 402.5 1137.5 c 128,-1,27
 408 1136 408 1136 408 1131 c 0,28,29
 408 1128 408 1128 407 1124.5 c 128,-1,30
 406 1121 406 1121 404 1120 c 256,0,1
EndSplineSet
EndChar
StartChar: uni065A
Encoding: 1626 1626 919
Width: 0
GlyphClass: 4
Flags: W
AnchorPoint: "Anchor-3" 197 1275 basemark 0
AnchorPoint: "Anchor-3" 203 941 mark 0
AnchorPoint: "Anchor-1" 203 941 mark 0
LayerCount: 2
Fore
SplineSet
403 1198 m 0,0,1
 403 1194 403 1194 387 1170.5 c 128,-1,2
 371 1147 371 1147 348.5 1117.5 c 128,-1,3
 326 1088 326 1088 301 1057.5 c 128,-1,4
 276 1027 276 1027 258 1008 c 0,5,6
 250 998 250 998 245 992.5 c 128,-1,7
 240 987 240 987 233 987 c 2,8,-1
 174 987 l 2,9,10
 169 987 169 987 162 993.5 c 128,-1,11
 155 1000 155 1000 147 1010 c 0,12,13
 129 1030 129 1030 103.5 1061 c 128,-1,14
 78 1092 78 1092 55 1121.5 c 128,-1,15
 32 1151 32 1151 16 1173.5 c 128,-1,16
 0 1196 0 1196 0 1198 c 0,17,18
 0 1203 0 1203 8 1206 c 2,19,-1
 43 1206 l 2,20,21
 46 1206 46 1206 58 1196 c 128,-1,22
 70 1186 70 1186 86.5 1170.5 c 128,-1,23
 103 1155 103 1155 122 1137.5 c 128,-1,24
 141 1120 141 1120 157.5 1104.5 c 128,-1,25
 174 1089 174 1089 186.5 1079 c 128,-1,26
 199 1069 199 1069 203 1069 c 0,27,28
 206 1069 206 1069 218.5 1079 c 128,-1,29
 231 1089 231 1089 248 1104.5 c 128,-1,30
 265 1120 265 1120 284 1137.5 c 128,-1,31
 303 1155 303 1155 319.5 1170.5 c 128,-1,32
 336 1186 336 1186 348.5 1196 c 128,-1,33
 361 1206 361 1206 365 1206 c 2,34,-1
 395 1206 l 2,35,36
 401 1206 401 1206 402 1203.5 c 128,-1,37
 403 1201 403 1201 403 1198 c 0,0,1
EndSplineSet
EndChar
StartChar: uni065D
Encoding: 1629 1629 922
Width: 0
GlyphClass: 4
Flags: W
AnchorPoint: "Anchor-3" 106 1516 basemark 0
AnchorPoint: "Anchor-3" 150 1020 mark 0
AnchorPoint: "Anchor-1" 150 1020 mark 0
LayerCount: 2
Fore
SplineSet
12 1172 m 0,0,1
 12 1175 12 1175 17 1179.5 c 128,-1,2
 22 1184 22 1184 29.5 1189 c 128,-1,3
 37 1194 37 1194 45 1199.5 c 128,-1,4
 53 1205 53 1205 58 1210 c 1,5,6
 46 1236 46 1236 37 1263 c 128,-1,7
 28 1290 28 1290 28 1322 c 0,8,9
 28 1339 28 1339 32 1355.5 c 128,-1,10
 36 1372 36 1372 44 1385 c 128,-1,11
 52 1398 52 1398 64.5 1406 c 128,-1,12
 77 1414 77 1414 94 1414 c 0,13,14
 115 1414 115 1414 135.5 1396.5 c 128,-1,15
 156 1379 156 1379 172 1353.5 c 128,-1,16
 188 1328 188 1328 198 1299.5 c 128,-1,17
 208 1271 208 1271 208 1250 c 0,18,19
 208 1221 208 1221 193 1202.5 c 128,-1,20
 178 1184 178 1184 152 1166 c 1,21,22
 169 1142 169 1142 193.5 1120 c 128,-1,23
 218 1098 218 1098 245 1078.5 c 128,-1,24
 272 1059 272 1059 299 1042.5 c 128,-1,25
 326 1026 326 1026 348 1012 c 1,26,27
 336 1006 336 1006 317 1002 c 128,-1,28
 298 998 298 998 284 998 c 0,29,30
 249 998 249 998 204 1031.5 c 128,-1,31
 159 1065 159 1065 108 1136 c 1,32,33
 85 1116 85 1116 65 1102 c 128,-1,34
 45 1088 45 1088 30 1088 c 0,35,36
 27 1088 27 1088 25.5 1100.5 c 128,-1,37
 24 1113 24 1113 22 1130 c 0,38,39
 17 1145 17 1145 14.5 1156 c 128,-1,40
 12 1167 12 1167 12 1172 c 0,0,1
90 1276 m 0,41,42
 90 1265 90 1265 93.5 1258.5 c 128,-1,43
 97 1252 97 1252 102 1244 c 1,44,45
 128 1264 128 1264 140 1282.5 c 128,-1,46
 152 1301 152 1301 152 1310 c 0,47,48
 152 1324 152 1324 138 1324 c 0,49,50
 120 1324 120 1324 105 1309 c 128,-1,51
 90 1294 90 1294 90 1276 c 0,41,42
EndSplineSet
EndChar
StartChar: uni065E
Encoding: 1630 1630 923
Width: 0
GlyphClass: 4
Flags: W
AnchorPoint: "Anchor-3" 105 1319 basemark 0
AnchorPoint: "Anchor-3" 105 945 mark 0
AnchorPoint: "Anchor-1" 105 945 mark 0
LayerCount: 2
Fore
SplineSet
57 1210 m 0,0,1
 57 1208 57 1208 53 1200 c 128,-1,2
 49 1192 49 1192 43.5 1183.5 c 128,-1,3
 38 1175 38 1175 32.5 1168 c 128,-1,4
 27 1161 27 1161 25 1161 c 256,5,6
 23 1161 23 1161 16 1165.5 c 128,-1,7
 9 1170 9 1170 1 1176 c 128,-1,8
 -7 1182 -7 1182 -13.5 1188 c 128,-1,9
 -20 1194 -20 1194 -20 1196 c 256,10,11
 -20 1198 -20 1198 -15.5 1205.5 c 128,-1,12
 -11 1213 -11 1213 -5.5 1221 c 128,-1,13
 0 1229 0 1229 5.5 1236 c 128,-1,14
 11 1243 11 1243 12 1243 c 0,15,16
 14 1243 14 1243 21.5 1238 c 128,-1,17
 29 1233 29 1233 37 1227 c 128,-1,18
 45 1221 45 1221 51 1216 c 128,-1,19
 57 1211 57 1211 57 1210 c 0,0,1
244 1028 m 0,20,21
 244 1027 244 1027 239.5 1019 c 128,-1,22
 235 1011 235 1011 229.5 1002 c 128,-1,23
 224 993 224 993 218.5 986 c 128,-1,24
 213 979 213 979 211 979 c 0,25,26
 210 979 210 979 202.5 983.5 c 128,-1,27
 195 988 195 988 187 994 c 128,-1,28
 179 1000 179 1000 172.5 1006 c 128,-1,29
 166 1012 166 1012 166 1014 c 256,30,31
 166 1016 166 1016 170.5 1023.5 c 128,-1,32
 175 1031 175 1031 181 1040 c 128,-1,33
 187 1049 187 1049 192.5 1056 c 128,-1,34
 198 1063 198 1063 199 1063 c 0,35,36
 201 1063 201 1063 208.5 1058 c 128,-1,37
 216 1053 216 1053 224 1047 c 128,-1,38
 232 1041 232 1041 238 1035.5 c 128,-1,39
 244 1030 244 1030 244 1028 c 0,20,21
274 1210 m 0,40,41
 274 1208 274 1208 268.5 1194.5 c 128,-1,42
 263 1181 263 1181 260 1171 c 0,43,44
 251 1150 251 1150 232 1140 c 128,-1,45
 213 1130 213 1130 199 1122 c 2,46,-1
 6 1022 l 2,47,48
 -19 1010 -19 1010 -28 1003.5 c 128,-1,49
 -37 997 -37 997 -43 997 c 0,50,51
 -48 997 -48 997 -48.5 999 c 128,-1,52
 -49 1001 -49 1001 -49 1006 c 0,53,54
 -49 1008 -49 1008 -46.5 1020 c 128,-1,55
 -44 1032 -44 1032 -39 1040 c 0,56,57
 -34 1050 -34 1050 -30 1056.5 c 128,-1,58
 -26 1063 -26 1063 -21 1067.5 c 128,-1,59
 -16 1072 -16 1072 -9.5 1076.5 c 128,-1,60
 -3 1081 -3 1081 8 1087 c 2,61,-1
 207 1192 l 2,62,63
 224 1201 224 1201 241 1212 c 128,-1,64
 258 1223 258 1223 264 1223 c 256,65,66
 270 1223 270 1223 272 1220.5 c 128,-1,67
 274 1218 274 1218 274 1210 c 0,40,41
EndSplineSet
EndChar
StartChar: uni0663
Encoding: 1635 1635 982
Width: 801
GlyphClass: 2
Flags: W
LayerCount: 2
Fore
SplineSet
721 692 m 2,0,1
 721 659 721 659 710.5 623.5 c 128,-1,2
 700 588 700 588 680 559 c 128,-1,3
 660 530 660 530 629.5 511 c 128,-1,4
 599 492 599 492 559 492 c 0,5,6
 514 492 514 492 490 509 c 128,-1,7
 466 526 466 526 451 549 c 1,8,9
 437 521 437 521 419.5 504 c 128,-1,10
 402 487 402 487 383 478 c 128,-1,11
 364 469 364 469 344.5 466 c 128,-1,12
 325 463 325 463 307 463 c 1,13,14
 313 445 313 445 323.5 407.5 c 128,-1,15
 334 370 334 370 343.5 327 c 128,-1,16
 353 284 353 284 360 243.5 c 128,-1,17
 367 203 367 203 367 178 c 0,18,19
 367 134 367 134 365.5 89 c 128,-1,20
 364 44 364 44 361.5 5 c 128,-1,21
 359 -34 359 -34 355.5 -64 c 128,-1,22
 352 -94 352 -94 348 -109 c 0,23,24
 348 -119 348 -119 334 -119 c 0,25,26
 328 -119 328 -119 323.5 -115.5 c 128,-1,27
 319 -112 319 -112 319 -102 c 2,28,-1
 319 -49 l 2,29,30
 319 76 319 76 291 188 c 128,-1,31
 263 300 263 300 221 387 c 0,32,33
 201 429 201 429 179 462.5 c 128,-1,34
 157 496 157 496 138.5 520 c 128,-1,35
 120 544 120 544 108 557.5 c 128,-1,36
 96 571 96 571 96 573 c 256,37,38
 96 575 96 575 99 588 c 128,-1,39
 102 601 102 601 106 618.5 c 128,-1,40
 110 636 110 636 115.5 656 c 128,-1,41
 121 676 121 676 126 693.5 c 128,-1,42
 131 711 131 711 135 722 c 128,-1,43
 139 733 139 733 141 733 c 0,44,45
 147 733 147 733 160.5 712.5 c 128,-1,46
 174 692 174 692 196.5 667.5 c 128,-1,47
 219 643 219 643 250.5 622.5 c 128,-1,48
 282 602 282 602 324 602 c 0,49,50
 357 602 357 602 383.5 613.5 c 128,-1,51
 410 625 410 625 429.5 645 c 128,-1,52
 449 665 449 665 461.5 691.5 c 128,-1,53
 474 718 474 718 479 748 c 0,54,55
 480 753 480 753 485 753.5 c 128,-1,56
 490 754 490 754 498 754 c 0,57,58
 504 754 504 754 505 748 c 128,-1,59
 506 742 506 742 506 739 c 0,60,61
 509 720 509 720 515 701.5 c 128,-1,62
 521 683 521 683 532 669 c 128,-1,63
 543 655 543 655 559 646 c 128,-1,64
 575 637 575 637 598 637 c 0,65,66
 622 637 622 637 639.5 649.5 c 128,-1,67
 657 662 657 662 669 679.5 c 128,-1,68
 681 697 681 697 687.5 716.5 c 128,-1,69
 694 736 694 736 696 750 c 0,70,71
 698 752 698 752 699.5 753 c 128,-1,72
 701 754 701 754 709 754 c 0,73,74
 721 754 721 754 721 748 c 2,75,-1
 721 692 l 2,0,1
EndSplineSet
Substitution2: "Single Substitution lookup 22 subtable" uni0663.Small
Substitution2: "Single Substitution lookup 21 subtable" uni0663.Medium
EndChar
StartChar: uni0664
Encoding: 1636 1636 983
Width: 801
GlyphClass: 2
Flags: W
LayerCount: 2
Fore
SplineSet
627 10 m 0,0,1
 627 7 627 7 621.5 -15 c 128,-1,2
 616 -37 616 -37 609 -61.5 c 128,-1,3
 602 -86 602 -86 595 -106.5 c 128,-1,4
 588 -127 588 -127 586 -127 c 0,5,6
 571 -127 571 -127 540 -121 c 128,-1,7
 509 -115 509 -115 472 -105 c 128,-1,8
 435 -95 435 -95 396 -82.5 c 128,-1,9
 357 -70 357 -70 325 -56.5 c 128,-1,10
 293 -43 293 -43 272.5 -30 c 128,-1,11
 252 -17 252 -17 252 -6 c 0,12,13
 252 29 252 29 264 63.5 c 128,-1,14
 276 98 276 98 294 129.5 c 128,-1,15
 312 161 312 161 333 188 c 128,-1,16
 354 215 354 215 372 236 c 128,-1,17
 390 257 390 257 402 269.5 c 128,-1,18
 414 282 414 282 414 285 c 0,19,20
 414 290 414 290 400 297.5 c 128,-1,21
 386 305 386 305 364.5 314.5 c 128,-1,22
 343 324 343 324 318.5 336 c 128,-1,23
 294 348 294 348 272.5 361 c 128,-1,24
 251 374 251 374 237 388 c 128,-1,25
 223 402 223 402 223 416 c 0,26,27
 223 448 223 448 250.5 494.5 c 128,-1,28
 278 541 278 541 332 606 c 0,29,30
 356 635 356 635 381 659.5 c 128,-1,31
 406 684 406 684 428.5 702 c 128,-1,32
 451 720 451 720 469 730.5 c 128,-1,33
 487 741 487 741 496 741 c 0,34,35
 497 741 497 741 495 730.5 c 128,-1,36
 493 720 493 720 490 704.5 c 128,-1,37
 487 689 487 689 482.5 670.5 c 128,-1,38
 478 652 478 652 473.5 636 c 128,-1,39
 469 620 469 620 466 609.5 c 128,-1,40
 463 599 463 599 461 598 c 0,41,42
 443 594 443 594 421.5 584.5 c 128,-1,43
 400 575 400 575 382 563.5 c 128,-1,44
 364 552 364 552 352 538.5 c 128,-1,45
 340 525 340 525 340 512 c 0,46,47
 340 502 340 502 355 490.5 c 128,-1,48
 370 479 370 479 393 467.5 c 128,-1,49
 416 456 416 456 442.5 444 c 128,-1,50
 469 432 469 432 492 420.5 c 128,-1,51
 515 409 515 409 530 397.5 c 128,-1,52
 545 386 545 386 545 375 c 0,53,54
 545 365 545 365 530 344 c 128,-1,55
 515 323 515 323 492 297 c 128,-1,56
 469 271 469 271 442.5 242 c 128,-1,57
 416 213 416 213 393 186.5 c 128,-1,58
 370 160 370 160 355 138.5 c 128,-1,59
 340 117 340 117 340 106 c 0,60,61
 340 98 340 98 355.5 88.5 c 128,-1,62
 371 79 371 79 395 69.5 c 128,-1,63
 419 60 419 60 449 50.5 c 128,-1,64
 479 41 479 41 509 33.5 c 128,-1,65
 539 26 539 26 564.5 21 c 128,-1,66
 590 16 590 16 606 14 c 0,67,68
 620 12 620 12 623.5 12 c 128,-1,69
 627 12 627 12 627 10 c 0,0,1
EndSplineSet
Substitution2: "Single Substitution lookup 22 subtable" uni0664.Small
Substitution2: "Single Substitution lookup 21 subtable" uni0664.Medium
EndChar
StartChar: uni0665
Encoding: 1637 1637 984
Width: 801
GlyphClass: 2
Flags: W
LayerCount: 2
Fore
SplineSet
639 336 m 0,0,1
 639 297 639 297 629 263 c 128,-1,2
 619 229 619 229 604 200.5 c 128,-1,3
 589 172 589 172 572 150.5 c 128,-1,4
 555 129 555 129 541 115 c 0,5,6
 529 103 529 103 509 91.5 c 128,-1,7
 489 80 489 80 465.5 71.5 c 128,-1,8
 442 63 442 63 416.5 58 c 128,-1,9
 391 53 391 53 367 53 c 0,10,11
 335 53 335 53 299 62.5 c 128,-1,12
 263 72 263 72 232.5 90 c 128,-1,13
 202 108 202 108 182 135 c 128,-1,14
 162 162 162 162 162 197 c 0,15,16
 162 215 162 215 165 233 c 128,-1,17
 168 251 168 251 175.5 275 c 128,-1,18
 183 299 183 299 196 330.5 c 128,-1,19
 209 362 209 362 229 406 c 0,20,21
 252 453 252 453 271 483 c 128,-1,22
 290 513 290 513 309 530 c 128,-1,23
 328 547 328 547 349 553 c 128,-1,24
 370 559 370 559 397 559 c 0,25,26
 436 559 436 559 478.5 540.5 c 128,-1,27
 521 522 521 522 556.5 491.5 c 128,-1,28
 592 461 592 461 615.5 420.5 c 128,-1,29
 639 380 639 380 639 336 c 0,0,1
584 258 m 0,30,31
 584 272 584 272 557.5 303.5 c 128,-1,32
 531 335 531 335 492 367.5 c 128,-1,33
 453 400 453 400 409.5 424.5 c 128,-1,34
 366 449 366 449 332 449 c 0,35,36
 312 449 312 449 293.5 428.5 c 128,-1,37
 275 408 275 408 260.5 380.5 c 128,-1,38
 246 353 246 353 237.5 324.5 c 128,-1,39
 229 296 229 296 229 281 c 0,40,41
 229 259 229 259 243.5 241.5 c 128,-1,42
 258 224 258 224 284.5 212 c 128,-1,43
 311 200 311 200 347.5 194 c 128,-1,44
 384 188 384 188 428 188 c 0,45,46
 478 188 478 188 508.5 196 c 128,-1,47
 539 204 539 204 556 215 c 128,-1,48
 573 226 573 226 578.5 238 c 128,-1,49
 584 250 584 250 584 258 c 0,30,31
EndSplineSet
Substitution2: "Single Substitution lookup 22 subtable" uni0665.Small
Substitution2: "Single Substitution lookup 21 subtable" uni0665.Medium
EndChar
StartChar: uni0666
Encoding: 1638 1638 985
Width: 801
GlyphClass: 2
Flags: W
LayerCount: 2
Fore
SplineSet
649 63 m 256,0,1
 649 60 649 60 648 32.5 c 128,-1,2
 647 5 647 5 645 -27 c 128,-1,3
 643 -59 643 -59 640.5 -85 c 128,-1,4
 638 -111 638 -111 635 -111 c 0,5,6
 628 -111 628 -111 614 -106 c 128,-1,7
 600 -101 600 -101 584 -86.5 c 128,-1,8
 568 -72 568 -72 551 -46 c 128,-1,9
 534 -20 534 -20 520.5 22.5 c 128,-1,10
 507 65 507 65 498 126.5 c 128,-1,11
 489 188 489 188 489 272 c 0,12,13
 489 312 489 312 488.5 355 c 128,-1,14
 488 398 488 398 486.5 434 c 128,-1,15
 485 470 485 470 483 493 c 128,-1,16
 481 516 481 516 479 516 c 0,17,18
 461 516 461 516 446 512 c 128,-1,19
 431 508 431 508 413.5 502.5 c 128,-1,20
 396 497 396 497 375 493 c 128,-1,21
 354 489 354 489 324 489 c 0,22,23
 269 489 269 489 235 496.5 c 128,-1,24
 201 504 201 504 182 521 c 128,-1,25
 163 538 163 538 156.5 564.5 c 128,-1,26
 150 591 150 591 150 629 c 2,27,-1
 150 719 l 2,28,29
 150 721 150 721 152 723 c 0,30,31
 156 727 156 727 160 727 c 0,32,33
 165 727 165 727 169.5 723 c 128,-1,34
 174 719 174 719 178.5 713.5 c 128,-1,35
 183 708 183 708 187 702 c 128,-1,36
 191 696 191 696 195 692 c 0,37,38
 203 683 203 683 220 674.5 c 128,-1,39
 237 666 237 666 259.5 659.5 c 128,-1,40
 282 653 282 653 309.5 649 c 128,-1,41
 337 645 337 645 365 645 c 0,42,43
 394 645 394 645 423 650.5 c 128,-1,44
 452 656 452 656 476.5 662.5 c 128,-1,45
 501 669 501 669 517.5 674.5 c 128,-1,46
 534 680 534 680 537 680 c 0,47,48
 547 680 547 680 547 666 c 0,49,50
 547 663 547 663 543 651.5 c 128,-1,51
 539 640 539 640 534.5 617 c 128,-1,52
 530 594 530 594 526 558 c 128,-1,53
 522 522 522 522 522 471 c 0,54,55
 522 435 522 435 527 388.5 c 128,-1,56
 532 342 532 342 540.5 296 c 128,-1,57
 549 250 549 250 559.5 210 c 128,-1,58
 570 170 570 170 582 147 c 0,59,60
 591 129 591 129 602.5 114.5 c 128,-1,61
 614 100 614 100 624.5 89.5 c 128,-1,62
 635 79 635 79 642 72.5 c 128,-1,63
 649 66 649 66 649 63 c 256,0,1
EndSplineSet
Substitution2: "Single Substitution lookup 22 subtable" uni0666.Small
Substitution2: "Single Substitution lookup 21 subtable" uni0666.Medium
EndChar
StartChar: uni066C
Encoding: 1644 1644 967
Width: 553
GlyphClass: 2
Flags: W
LayerCount: 2
Fore
SplineSet
377 596 m 0,0,1
 377 562 377 562 365 523 c 128,-1,2
 353 484 353 484 331.5 445.5 c 128,-1,3
 310 407 310 407 280 372 c 128,-1,4
 250 337 250 337 213 311 c 1,5,-1
 182 348 l 1,6,7
 199 362 199 362 219.5 382.5 c 128,-1,8
 240 403 240 403 257.5 428 c 128,-1,9
 275 453 275 453 287 481 c 128,-1,10
 299 509 299 509 299 538 c 0,11,12
 299 543 299 543 298.5 550 c 128,-1,13
 298 557 298 557 293 557 c 0,14,15
 275 561 275 561 257 567 c 128,-1,16
 239 573 239 573 224 583.5 c 128,-1,17
 209 594 209 594 199.5 609 c 128,-1,18
 190 624 190 624 190 645 c 0,19,20
 190 663 190 663 197.5 678 c 128,-1,21
 205 693 205 693 217 704.5 c 128,-1,22
 229 716 229 716 244.5 722.5 c 128,-1,23
 260 729 260 729 276 729 c 0,24,25
 302 729 302 729 321 718 c 128,-1,26
 340 707 340 707 352.5 688.5 c 128,-1,27
 365 670 365 670 371 646 c 128,-1,28
 377 622 377 622 377 596 c 0,0,1
EndSplineSet
EndChar
StartChar: uni066E
Encoding: 1646 1646 320
Width: 1352
GlyphClass: 2
Flags: W
AnchorPoint: "Anchor-4" 651 -310 basechar 0
AnchorPoint: "Anchor-1" 660 585 basechar 0
LayerCount: 2
Fore
SplineSet
1262 338 m 0,0,1
 1262 313 1262 313 1257.5 282.5 c 128,-1,2
 1253 252 1253 252 1240.5 220.5 c 128,-1,3
 1228 189 1228 189 1204 159.5 c 128,-1,4
 1180 130 1180 130 1141 106 c 0,5,6
 1084 74 1084 74 1008.5 47 c 128,-1,7
 933 20 933 20 848.5 1 c 128,-1,8
 764 -18 764 -18 675 -28.5 c 128,-1,9
 586 -39 586 -39 502 -39 c 0,10,11
 402 -39 402 -39 324.5 -24 c 128,-1,12
 247 -9 247 -9 194 20 c 128,-1,13
 141 49 141 49 113.5 92.5 c 128,-1,14
 86 136 86 136 86 193 c 0,15,16
 86 224 86 224 99.5 262 c 128,-1,17
 113 300 113 300 130.5 333 c 128,-1,18
 148 366 148 366 164 388 c 128,-1,19
 180 410 180 410 184 410 c 0,20,21
 189 410 189 410 193.5 406 c 128,-1,22
 198 402 198 402 195 397 c 0,23,24
 191 390 191 390 183.5 378 c 128,-1,25
 176 366 176 366 169 350 c 128,-1,26
 162 334 162 334 157 315 c 128,-1,27
 152 296 152 296 152 274 c 0,28,29
 152 240 152 240 168.5 213 c 128,-1,30
 185 186 185 186 212.5 166 c 128,-1,31
 240 146 240 146 276.5 132.5 c 128,-1,32
 313 119 313 119 353.5 110.5 c 128,-1,33
 394 102 394 102 436.5 98 c 128,-1,34
 479 94 479 94 518 94 c 0,35,36
 592 94 592 94 672 102.5 c 128,-1,37
 752 111 752 111 829.5 126 c 128,-1,38
 907 141 907 141 976.5 160 c 128,-1,39
 1046 179 1046 179 1099 199.5 c 128,-1,40
 1152 220 1152 220 1183 241.5 c 128,-1,41
 1214 263 1214 263 1214 281 c 0,42,43
 1214 291 1214 291 1205 306.5 c 128,-1,44
 1196 322 1196 322 1184.5 340 c 128,-1,45
 1173 358 1173 358 1164 376 c 128,-1,46
 1155 394 1155 394 1155 408 c 0,47,48
 1155 418 1155 418 1160.5 435 c 128,-1,49
 1166 452 1166 452 1172.5 470 c 128,-1,50
 1179 488 1179 488 1186 504 c 128,-1,51
 1193 520 1193 520 1196 528 c 1,52,53
 1211 510 1211 510 1223.5 486 c 128,-1,54
 1236 462 1236 462 1244.5 435.5 c 128,-1,55
 1253 409 1253 409 1257.5 383.5 c 128,-1,56
 1262 358 1262 358 1262 338 c 0,0,1
EndSplineSet
Substitution2: "'medi' Medial Forms in Arabic lookup 3 subtable" uni066E.medi
Substitution2: "'fina' Terminal Forms in Arabic lookup 2 subtable" uni066E.fina
Substitution2: "'init' Initial Forms in Arabic lookup 1 subtable" uni066E.init
EndChar
StartChar: uni066F
Encoding: 1647 1647 391
Width: 1018
GlyphClass: 2
Flags: W
AnchorPoint: "Anchor-4" 400 -300 basechar 0
AnchorPoint: "Anchor-1" 405 795 basechar 0
LayerCount: 2
Fore
SplineSet
938 299 m 0,0,1
 938 236 938 236 922 172 c 128,-1,2
 906 108 906 108 864 49 c 0,3,4
 832 4 832 4 786.5 -35.5 c 128,-1,5
 741 -75 741 -75 685.5 -104 c 128,-1,6
 630 -133 630 -133 566 -149.5 c 128,-1,7
 502 -166 502 -166 432 -166 c 0,8,9
 364 -166 364 -166 306 -151 c 128,-1,10
 248 -136 248 -136 206 -105 c 128,-1,11
 164 -74 164 -74 140.5 -27.5 c 128,-1,12
 117 19 117 19 117 82 c 0,13,14
 117 118 117 118 126 158 c 128,-1,15
 135 198 135 198 148.5 236.5 c 128,-1,16
 162 275 162 275 178 309.5 c 128,-1,17
 194 344 194 344 208.5 370.5 c 128,-1,18
 223 397 223 397 233 412.5 c 128,-1,19
 243 428 243 428 244 428 c 0,20,21
 250 428 250 428 255 424.5 c 128,-1,22
 260 421 260 421 260 416 c 0,23,24
 260 413 260 413 248 389.5 c 128,-1,25
 236 366 236 366 222 331.5 c 128,-1,26
 208 297 208 297 196 256.5 c 128,-1,27
 184 216 184 216 184 180 c 0,28,29
 184 127 184 127 202 88 c 128,-1,30
 220 49 220 49 253.5 23.5 c 128,-1,31
 287 -2 287 -2 334.5 -14.5 c 128,-1,32
 382 -27 382 -27 440 -27 c 0,33,34
 490 -27 490 -27 543 -16.5 c 128,-1,35
 596 -6 596 -6 647 12.5 c 128,-1,36
 698 31 698 31 744 56.5 c 128,-1,37
 790 82 790 82 824.5 112 c 128,-1,38
 859 142 859 142 879 175 c 128,-1,39
 899 208 899 208 899 242 c 0,40,41
 899 304 899 304 862 360 c 1,42,43
 833 317 833 317 794 296.5 c 128,-1,44
 755 276 755 276 717 276 c 0,45,46
 664 276 664 276 631 308.5 c 128,-1,47
 598 341 598 341 598 393 c 0,48,49
 598 415 598 415 604 444 c 128,-1,50
 610 473 610 473 621 503.5 c 128,-1,51
 632 534 632 534 647.5 563 c 128,-1,52
 663 592 663 592 681 615 c 128,-1,53
 699 638 699 638 720 652 c 128,-1,54
 741 666 741 666 762 666 c 0,55,56
 782 666 782 666 812 641 c 128,-1,57
 842 616 842 616 870 569 c 128,-1,58
 898 522 898 522 918 454 c 128,-1,59
 938 386 938 386 938 299 c 0,0,1
780 467 m 1,60,61
 765 482 765 482 747.5 496 c 128,-1,62
 730 510 730 510 709 510 c 0,63,64
 690 510 690 510 682 499 c 128,-1,65
 674 488 674 488 674 475 c 0,66,67
 674 458 674 458 690.5 449 c 128,-1,68
 707 440 707 440 721 440 c 0,69,70
 727 440 727 440 736 442.5 c 128,-1,71
 745 445 745 445 754 449 c 128,-1,72
 763 453 763 453 770.5 458 c 128,-1,73
 778 463 778 463 780 467 c 1,60,61
EndSplineSet
Substitution2: "'medi' Medial Forms in Arabic lookup 3 subtable" uni066F.medi
Substitution2: "'fina' Terminal Forms in Arabic lookup 2 subtable" uni066F.fina
Substitution2: "'init' Initial Forms in Arabic lookup 1 subtable" uni066F.init
EndChar
StartChar: uni0674
Encoding: 1652 1652 901
Width: 332
GlyphClass: 4
Flags: W
AnchorPoint: "Anchor-4" 150 885 basechar 0
AnchorPoint: "Anchor-1" 135 1365 basechar 0
LayerCount: 2
Fore
SplineSet
303 1067 m 0,0,1
 303 1064 303 1064 300.5 1055.5 c 128,-1,2
 298 1047 298 1047 293 1037 c 128,-1,3
 288 1027 288 1027 281.5 1018.5 c 128,-1,4
 275 1010 275 1010 266 1008 c 0,5,6
 260 1005 260 1005 247 1000.5 c 128,-1,7
 234 996 234 996 217 989.5 c 128,-1,8
 200 983 200 983 179.5 976 c 128,-1,9
 159 969 159 969 139 961 c 0,10,11
 90 941 90 941 66.5 929.5 c 128,-1,12
 43 918 43 918 35 918 c 0,13,14
 32 918 32 918 29.5 921 c 128,-1,15
 27 924 27 924 27 926 c 0,16,17
 27 930 27 930 30 937.5 c 128,-1,18
 33 945 33 945 37 953.5 c 128,-1,19
 41 962 41 962 45.5 969 c 128,-1,20
 50 976 50 976 53 979 c 0,21,22
 55 982 55 982 61.5 986.5 c 128,-1,23
 68 991 68 991 75.5 995.5 c 128,-1,24
 83 1000 83 1000 90.5 1004 c 128,-1,25
 98 1008 98 1008 102 1010 c 1,26,27
 94 1012 94 1012 84 1017 c 128,-1,28
 74 1022 74 1022 65.5 1030 c 128,-1,29
 57 1038 57 1038 51 1048.5 c 128,-1,30
 45 1059 45 1059 45 1073 c 0,31,32
 45 1085 45 1085 51 1100 c 128,-1,33
 57 1115 57 1115 66.5 1130 c 128,-1,34
 76 1145 76 1145 88.5 1159.5 c 128,-1,35
 101 1174 101 1174 113 1186 c 0,36,37
 133 1206 133 1206 146.5 1216.5 c 128,-1,38
 160 1227 160 1227 170 1231.5 c 128,-1,39
 180 1236 180 1236 189 1236.5 c 128,-1,40
 198 1237 198 1237 209 1237 c 0,41,42
 229 1237 229 1237 239.5 1218.5 c 128,-1,43
 250 1200 250 1200 250 1182 c 0,44,45
 250 1176 250 1176 247 1166 c 128,-1,46
 244 1156 244 1156 240 1145.5 c 128,-1,47
 236 1135 236 1135 231.5 1127.5 c 128,-1,48
 227 1120 227 1120 225 1120 c 0,49,50
 221 1120 221 1120 213 1123.5 c 128,-1,51
 205 1127 205 1127 195 1131.5 c 128,-1,52
 185 1136 185 1136 174 1139.5 c 128,-1,53
 163 1143 163 1143 154 1143 c 0,54,55
 135 1143 135 1143 119.5 1131 c 128,-1,56
 104 1119 104 1119 104 1108 c 0,57,58
 104 1105 104 1105 115.5 1096.5 c 128,-1,59
 127 1088 127 1088 143.5 1079 c 128,-1,60
 160 1070 160 1070 179 1062.5 c 128,-1,61
 198 1055 198 1055 213 1053 c 1,62,63
 225 1057 225 1057 238.5 1060 c 128,-1,64
 252 1063 252 1063 264 1065.5 c 128,-1,65
 276 1068 276 1068 285 1069.5 c 128,-1,66
 294 1071 294 1071 297 1071 c 0,67,68
 303 1071 303 1071 303 1067 c 0,0,1
EndSplineSet
EndChar
StartChar: uni06A1
Encoding: 1697 1697 383
Width: 1446
GlyphClass: 2
Flags: W
AnchorPoint: "Anchor-4" 600 -210 basechar 0
AnchorPoint: "Anchor-1" 480 900 basechar 0
LayerCount: 2
Fore
SplineSet
1360 399 m 0,0,1
 1360 318 1360 318 1328 265.5 c 128,-1,2
 1296 213 1296 213 1237 182 c 0,3,4
 1189 157 1189 157 1108.5 124.5 c 128,-1,5
 1028 92 1028 92 924.5 63 c 128,-1,6
 821 34 821 34 699.5 14 c 128,-1,7
 578 -6 578 -6 446 -6 c 0,8,9
 390 -6 390 -6 327 6.5 c 128,-1,10
 264 19 264 19 211 47.5 c 128,-1,11
 158 76 158 76 123 122 c 128,-1,12
 88 168 88 168 88 236 c 0,13,14
 88 285 88 285 102 328.5 c 128,-1,15
 116 372 116 372 134 404.5 c 128,-1,16
 152 437 152 437 167.5 456 c 128,-1,17
 183 475 183 475 186 475 c 256,18,19
 189 475 189 475 193 472.5 c 128,-1,20
 197 470 197 470 197 467 c 0,21,22
 197 463 197 463 188.5 451 c 128,-1,23
 180 439 180 439 170 417 c 128,-1,24
 160 395 160 395 151.5 363.5 c 128,-1,25
 143 332 143 332 143 289 c 0,26,27
 143 258 143 258 160 233.5 c 128,-1,28
 177 209 177 209 205 190 c 128,-1,29
 233 171 233 171 269.5 157 c 128,-1,30
 306 143 306 143 346 134 c 128,-1,31
 386 125 386 125 426 121 c 128,-1,32
 466 117 466 117 500 117 c 0,33,34
 607 117 607 117 710 132 c 128,-1,35
 813 147 813 147 905 171 c 128,-1,36
 997 195 997 195 1074 224.5 c 128,-1,37
 1151 254 1151 254 1207.5 283 c 128,-1,38
 1264 312 1264 312 1295.5 337 c 128,-1,39
 1327 362 1327 362 1327 377 c 0,40,41
 1327 385 1327 385 1321.5 398 c 128,-1,42
 1316 411 1316 411 1309.5 424.5 c 128,-1,43
 1303 438 1303 438 1296 449.5 c 128,-1,44
 1289 461 1289 461 1286 465 c 1,45,46
 1258 422 1258 422 1223.5 392 c 128,-1,47
 1189 362 1189 362 1157 362 c 0,48,49
 1138 362 1138 362 1117.5 368.5 c 128,-1,50
 1097 375 1097 375 1080.5 389.5 c 128,-1,51
 1064 404 1064 404 1053 426.5 c 128,-1,52
 1042 449 1042 449 1042 481 c 0,53,54
 1042 497 1042 497 1049 521.5 c 128,-1,55
 1056 546 1056 546 1067.5 574 c 128,-1,56
 1079 602 1079 602 1095 630.5 c 128,-1,57
 1111 659 1111 659 1128.5 681.5 c 128,-1,58
 1146 704 1146 704 1165 718.5 c 128,-1,59
 1184 733 1184 733 1202 733 c 0,60,61
 1218 733 1218 733 1235 721.5 c 128,-1,62
 1252 710 1252 710 1268.5 690 c 128,-1,63
 1285 670 1285 670 1299.5 643.5 c 128,-1,64
 1314 617 1314 617 1325 588 c 0,65,66
 1344 538 1344 538 1352 487.5 c 128,-1,67
 1360 437 1360 437 1360 399 c 0,0,1
1217 543 m 1,68,69
 1204 572 1204 572 1180.5 580 c 128,-1,70
 1157 588 1157 588 1137 588 c 0,71,72
 1123 588 1123 588 1114.5 575 c 128,-1,73
 1106 562 1106 562 1106 551 c 0,74,75
 1106 542 1106 542 1110.5 533.5 c 128,-1,76
 1115 525 1115 525 1122.5 518 c 128,-1,77
 1130 511 1130 511 1139 506.5 c 128,-1,78
 1148 502 1148 502 1157 502 c 0,79,80
 1176 502 1176 502 1193 514.5 c 128,-1,81
 1210 527 1210 527 1217 543 c 1,68,69
EndSplineSet
Substitution2: "'medi' Medial Forms in Arabic lookup 3 subtable" uni06A1.medi
Substitution2: "'fina' Terminal Forms in Arabic lookup 2 subtable" uni06A1.fina
Substitution2: "'init' Initial Forms in Arabic lookup 1 subtable" uni06A1.init
EndChar
StartChar: uni06A9
Encoding: 1705 1705 399
Width: 1544
GlyphClass: 2
Flags: W
AnchorPoint: "Anchor-4" 585 -299 basechar 0
AnchorPoint: "Anchor-1" 510 800 basechar 0
LayerCount: 2
Fore
SplineSet
1550 920 m 1,0,1
 1534 901 1534 901 1525.5 881.5 c 128,-1,2
 1517 862 1517 862 1511.5 846 c 128,-1,3
 1506 830 1506 830 1500 818.5 c 128,-1,4
 1494 807 1494 807 1483 803 c 0,5,6
 1452 793 1452 793 1406.5 778 c 128,-1,7
 1361 763 1361 763 1307.5 744 c 128,-1,8
 1254 725 1254 725 1196 704 c 128,-1,9
 1138 683 1138 683 1082.5 661 c 128,-1,10
 1027 639 1027 639 977 617 c 128,-1,11
 927 595 927 595 889 575 c 128,-1,12
 851 555 851 555 829 538 c 128,-1,13
 807 521 807 521 807 508 c 0,14,15
 807 499 807 499 823.5 488.5 c 128,-1,16
 840 478 840 478 866.5 464 c 128,-1,17
 893 450 893 450 927 431.5 c 128,-1,18
 961 413 961 413 995 387 c 0,19,20
 1028 363 1028 363 1058.5 332 c 128,-1,21
 1089 301 1089 301 1112 264 c 128,-1,22
 1135 227 1135 227 1149 184.5 c 128,-1,23
 1163 142 1163 142 1163 96 c 0,24,25
 1163 21 1163 21 1108.5 -24.5 c 128,-1,26
 1054 -70 1054 -70 961 -94.5 c 128,-1,27
 868 -119 868 -119 745.5 -127 c 128,-1,28
 623 -135 623 -135 487 -135 c 0,29,30
 367 -135 367 -135 287.5 -122.5 c 128,-1,31
 208 -110 208 -110 160 -81 c 128,-1,32
 112 -52 112 -52 92 -5.5 c 128,-1,33
 72 41 72 41 72 109 c 0,34,35
 72 116 72 116 75 135 c 128,-1,36
 78 154 78 154 83 177.5 c 128,-1,37
 88 201 88 201 94 226.5 c 128,-1,38
 100 252 100 252 106.5 273.5 c 128,-1,39
 113 295 113 295 119 308.5 c 128,-1,40
 125 322 125 322 129 322 c 0,41,42
 134 322 134 322 137.5 318 c 128,-1,43
 141 314 141 314 141 309 c 0,44,45
 141 305 141 305 138 293 c 128,-1,46
 135 281 135 281 132 265.5 c 128,-1,47
 129 250 129 250 126 233 c 128,-1,48
 123 216 123 216 123 203 c 0,49,50
 123 154 123 154 142.5 116 c 128,-1,51
 162 78 162 78 208 52.5 c 128,-1,52
 254 27 254 27 330 13.5 c 128,-1,53
 406 0 406 0 518 0 c 0,54,55
 626 0 626 0 704.5 0 c 128,-1,56
 783 0 783 0 838 1.5 c 128,-1,57
 893 3 893 3 928.5 5.5 c 128,-1,58
 964 8 964 8 987 12 c 0,59,60
 1026 20 1026 20 1052 30 c 128,-1,61
 1078 40 1078 40 1094 51 c 128,-1,62
 1110 62 1110 62 1117 72.5 c 128,-1,63
 1124 83 1124 83 1124 92 c 0,64,65
 1124 111 1124 111 1108.5 135.5 c 128,-1,66
 1093 160 1093 160 1071 184.5 c 128,-1,67
 1049 209 1049 209 1024 231 c 128,-1,68
 999 253 999 253 981 268 c 0,69,70
 960 285 960 285 933.5 299.5 c 128,-1,71
 907 314 907 314 881.5 326.5 c 128,-1,72
 856 339 856 339 834 350 c 128,-1,73
 812 361 812 361 801 371 c 0,74,75
 781 386 781 386 773.5 407 c 128,-1,76
 766 428 766 428 766 469 c 0,77,78
 766 514 766 514 770 542.5 c 128,-1,79
 774 571 774 571 786 582 c 0,80,81
 814 607 814 607 854 632.5 c 128,-1,82
 894 658 894 658 940 683.5 c 128,-1,83
 986 709 986 709 1035.5 733.5 c 128,-1,84
 1085 758 1085 758 1132.5 779 c 128,-1,85
 1180 800 1180 800 1222 816.5 c 128,-1,86
 1264 833 1264 833 1296 844 c 0,87,88
 1316 851 1316 851 1355 865 c 128,-1,89
 1394 879 1394 879 1434.5 893 c 128,-1,90
 1475 907 1475 907 1506.5 917.5 c 128,-1,91
 1538 928 1538 928 1542 928 c 0,92,93
 1545 928 1545 928 1546 925.5 c 128,-1,94
 1547 923 1547 923 1550 920 c 1,0,1
EndSplineSet
Substitution2: "'medi' Medial Forms in Arabic lookup 3 subtable" uni06A9.medi
Substitution2: "'fina' Terminal Forms in Arabic lookup 2 subtable" uni06A9.fina
Substitution2: "'init' Initial Forms in Arabic lookup 1 subtable" uni06A9.init
EndChar
StartChar: uni06BA
Encoding: 1722 1722 424
Width: 840
GlyphClass: 2
Flags: W
AnchorPoint: "Anchor-4" 400 -210 basechar 0
AnchorPoint: "Anchor-1" 300 870 basechar 0
LayerCount: 2
Fore
SplineSet
756 295 m 0,0,1
 756 255 756 255 753 221 c 128,-1,2
 750 187 750 187 737 152 c 0,3,4
 719 102 719 102 686 58.5 c 128,-1,5
 653 15 653 15 606 -17 c 128,-1,6
 559 -49 559 -49 499 -67.5 c 128,-1,7
 439 -86 439 -86 365 -86 c 0,8,9
 314 -86 314 -86 265.5 -72 c 128,-1,10
 217 -58 217 -58 179.5 -27.5 c 128,-1,11
 142 3 142 3 119 49.5 c 128,-1,12
 96 96 96 96 96 160 c 0,13,14
 96 201 96 201 109.5 249.5 c 128,-1,15
 123 298 123 298 139.5 340 c 128,-1,16
 156 382 156 382 170.5 410 c 128,-1,17
 185 438 185 438 188 438 c 0,18,19
 193 438 193 438 197 436 c 128,-1,20
 201 434 201 434 201 426 c 0,21,22
 201 424 201 424 192.5 407 c 128,-1,23
 184 390 184 390 174 363 c 128,-1,24
 164 336 164 336 155.5 302.5 c 128,-1,25
 147 269 147 269 147 233 c 0,26,27
 147 188 147 188 169.5 154.5 c 128,-1,28
 192 121 192 121 226.5 99 c 128,-1,29
 261 77 261 77 302.5 66 c 128,-1,30
 344 55 344 55 383 55 c 0,31,32
 418 55 418 55 458.5 62.5 c 128,-1,33
 499 70 499 70 539 82.5 c 128,-1,34
 579 95 579 95 615 112.5 c 128,-1,35
 651 130 651 130 675 151 c 0,36,37
 699 171 699 171 707 196.5 c 128,-1,38
 715 222 715 222 715 236 c 0,39,40
 715 261 715 261 709 289.5 c 128,-1,41
 703 318 703 318 693 347.5 c 128,-1,42
 683 377 683 377 670.5 406.5 c 128,-1,43
 658 436 658 436 645 463 c 0,44,45
 625 505 625 505 606.5 537.5 c 128,-1,46
 588 570 588 570 588 590 c 0,47,48
 588 597 588 597 594 613.5 c 128,-1,49
 600 630 600 630 607.5 648 c 128,-1,50
 615 666 615 666 622.5 680.5 c 128,-1,51
 630 695 630 695 633 698 c 1,52,53
 661 654 661 654 683.5 601 c 128,-1,54
 706 548 706 548 722 494 c 128,-1,55
 738 440 738 440 747 388.5 c 128,-1,56
 756 337 756 337 756 295 c 0,0,1
EndSplineSet
Substitution2: "'medi' Medial Forms in Arabic lookup 3 subtable" uni06BA.medi
Substitution2: "'fina' Terminal Forms in Arabic lookup 2 subtable" uni06BA.fina
Substitution2: "'init' Initial Forms in Arabic lookup 1 subtable" uni06BA.init
EndChar
StartChar: uni06CD
Encoding: 1741 1741 318
Width: 1130
GlyphClass: 2
Flags: W
AnchorPoint: "Anchor-4" 400 -400 basechar 0
AnchorPoint: "Anchor-1" 389 739 basechar 0
LayerCount: 2
Fore
SplineSet
1022 477 m 1,0,1
 1005 493 1005 493 988.5 502.5 c 128,-1,2
 972 512 972 512 938 512 c 0,3,4
 902 512 902 512 854 493 c 128,-1,5
 806 474 806 474 762.5 442.5 c 128,-1,6
 719 411 719 411 689 370 c 128,-1,7
 659 329 659 329 659 285 c 0,8,9
 659 263 659 263 681 247.5 c 128,-1,10
 703 232 703 232 732.5 221.5 c 128,-1,11
 762 211 762 211 793 205.5 c 128,-1,12
 824 200 824 200 842 197 c 0,13,14
 868 193 868 193 890.5 191 c 128,-1,15
 913 189 913 189 931.5 186 c 128,-1,16
 950 183 950 183 964 178 c 128,-1,17
 978 173 978 173 987 162 c 0,18,19
 998 151 998 151 999.5 129 c 128,-1,20
 1001 107 1001 107 1001 78 c 0,21,22
 1001 46 1001 46 978 10 c 128,-1,23
 955 -26 955 -26 918 -55 c 0,24,25
 871 -92 871 -92 812 -125.5 c 128,-1,26
 753 -159 753 -159 685 -184 c 128,-1,27
 617 -209 617 -209 542 -223.5 c 128,-1,28
 467 -238 467 -238 389 -238 c 0,29,30
 314 -238 314 -238 252 -220 c 128,-1,31
 190 -202 190 -202 145.5 -168 c 128,-1,32
 101 -134 101 -134 77 -84 c 128,-1,33
 53 -34 53 -34 53 31 c 0,34,35
 53 65 53 65 62.5 105 c 128,-1,36
 72 145 72 145 86 184.5 c 128,-1,37
 100 224 100 224 116.5 259.5 c 128,-1,38
 133 295 133 295 147 319 c 1,39,40
 113 298 113 298 74 286.5 c 128,-1,41
 35 275 35 275 -13 274 c 0,42,43
 -24 274 -24 274 -24 282 c 0,44,45
 -24 294 -24 294 -10 297 c 0,46,47
 49 309 49 309 100.5 338.5 c 128,-1,48
 152 368 152 368 205 416 c 0,49,50
 207 418 207 418 210 418 c 0,51,52
 215 418 215 418 219 414.5 c 128,-1,53
 223 411 223 411 223 406 c 256,54,55
 223 401 223 401 208 372 c 128,-1,56
 193 343 193 343 175 301.5 c 128,-1,57
 157 260 157 260 142 211.5 c 128,-1,58
 127 163 127 163 127 119 c 0,59,60
 127 54 127 54 156.5 10.5 c 128,-1,61
 186 -33 186 -33 231.5 -59 c 128,-1,62
 277 -85 277 -85 333 -95.5 c 128,-1,63
 389 -106 389 -106 442 -106 c 0,64,65
 487 -106 487 -106 541 -96 c 128,-1,66
 595 -86 595 -86 650 -70.5 c 128,-1,67
 705 -55 705 -55 756 -35.5 c 128,-1,68
 807 -16 807 -16 846.5 2 c 128,-1,69
 886 20 886 20 910 35.5 c 128,-1,70
 934 51 934 51 934 59 c 0,71,72
 934 68 934 68 927 74 c 128,-1,73
 920 80 920 80 900 85 c 128,-1,74
 880 90 880 90 842.5 96 c 128,-1,75
 805 102 805 102 743 110 c 0,76,77
 717 113 717 113 689 120.5 c 128,-1,78
 661 128 661 128 637.5 142.5 c 128,-1,79
 614 157 614 157 599 179.5 c 128,-1,80
 584 202 584 202 584 236 c 0,81,82
 584 263 584 263 595 294.5 c 128,-1,83
 606 326 606 326 624.5 359.5 c 128,-1,84
 643 393 643 393 668.5 426.5 c 128,-1,85
 694 460 694 460 724 490 c 0,86,87
 755 521 755 521 788.5 547.5 c 128,-1,88
 822 574 822 574 857 593.5 c 128,-1,89
 892 613 892 613 927.5 624 c 128,-1,90
 963 635 963 635 997 635 c 0,91,92
 1002 635 1002 635 1011 633.5 c 128,-1,93
 1020 632 1020 632 1028.5 628.5 c 128,-1,94
 1037 625 1037 625 1043.5 620 c 128,-1,95
 1050 615 1050 615 1050 608 c 2,96,-1
 1022 477 l 1,0,1
EndSplineSet
Substitution2: "'fina' Terminal Forms in Arabic lookup 2 subtable" uni06CD.fina
EndChar
StartChar: uni06D4
Encoding: 1748 1748 969
Width: 641
GlyphClass: 2
Flags: W
AnchorPoint: "Anchor-4" 250 -120 basechar 0
AnchorPoint: "Anchor-1" 350 790 basechar 0
LayerCount: 2
Fore
SplineSet
174 0 m 1,0,-1
 205 125 l 1,1,-1
 455 125 l 1,2,-1
 426 0 l 1,3,-1
 174 0 l 1,0,-1
EndSplineSet
EndChar
StartChar: uni06D5
Encoding: 1749 1749 435
Width: 502
GlyphClass: 2
Flags: W
AnchorPoint: "Anchor-4" 200 -180 basechar 0
AnchorPoint: "Anchor-1" 261 769 basechar 0
LayerCount: 2
Fore
SplineSet
436 233 m 256,0,1
 436 180 436 180 421 135.5 c 128,-1,2
 406 91 406 91 378 58.5 c 128,-1,3
 350 26 350 26 310 8 c 128,-1,4
 270 -10 270 -10 219 -10 c 0,5,6
 184 -10 184 -10 157 3.5 c 128,-1,7
 130 17 130 17 112 40.5 c 128,-1,8
 94 64 94 64 85 95.5 c 128,-1,9
 76 127 76 127 76 164 c 0,10,11
 76 193 76 193 93.5 242 c 128,-1,12
 111 291 111 291 139 354 c 0,13,14
 153 385 153 385 166.5 413 c 128,-1,15
 180 441 180 441 193 462.5 c 128,-1,16
 206 484 206 484 218 497 c 128,-1,17
 230 510 230 510 240 510 c 0,18,19
 276 510 276 510 311 486.5 c 128,-1,20
 346 463 346 463 374 424 c 128,-1,21
 402 385 402 385 419 335.5 c 128,-1,22
 436 286 436 286 436 233 c 256,0,1
377 207 m 256,23,24
 377 223 377 223 358 243 c 128,-1,25
 339 263 339 263 312 280.5 c 128,-1,26
 285 298 285 298 255.5 310 c 128,-1,27
 226 322 226 322 205 322 c 0,28,29
 191 322 191 322 178 309.5 c 128,-1,30
 165 297 165 297 155 278 c 128,-1,31
 145 259 145 259 139 237 c 128,-1,32
 133 215 133 215 133 197 c 0,33,34
 133 184 133 184 143 173 c 128,-1,35
 153 162 153 162 169 154.5 c 128,-1,36
 185 147 185 147 204.5 143 c 128,-1,37
 224 139 224 139 242 139 c 0,38,39
 261 139 261 139 284.5 143.5 c 128,-1,40
 308 148 308 148 328.5 157 c 128,-1,41
 349 166 349 166 363 178.5 c 128,-1,42
 377 191 377 191 377 207 c 256,23,24
EndSplineSet
Substitution2: "'fina' Terminal Forms in Arabic lookup 2 subtable" uni06D5.fina
EndChar
StartChar: uni06D6
Encoding: 1750 1750 926
Width: 0
GlyphClass: 4
Flags: W
AnchorPoint: "Anchor-3" -15 915 mark 0
AnchorPoint: "Anchor-1" -15 915 mark 0
LayerCount: 2
Fore
SplineSet
422 1337 m 0,0,1
 422 1350 422 1350 402 1363 c 128,-1,2
 382 1376 382 1376 354 1376 c 0,3,4
 330 1376 330 1376 304 1367.5 c 128,-1,5
 278 1359 278 1359 253.5 1344 c 128,-1,6
 229 1329 229 1329 207.5 1308.5 c 128,-1,7
 186 1288 186 1288 172 1264 c 1,8,9
 214 1264 214 1264 258 1272.5 c 128,-1,10
 302 1281 302 1281 338.5 1293 c 128,-1,11
 375 1305 375 1305 398.5 1317.5 c 128,-1,12
 422 1330 422 1330 422 1337 c 0,0,1
-14 1200 m 0,13,14
 -53 1200 -53 1200 -71 1224 c 128,-1,15
 -89 1248 -89 1248 -102 1292 c 1,16,17
 -114 1265 -114 1265 -127 1247 c 128,-1,18
 -140 1229 -140 1229 -154.5 1218 c 128,-1,19
 -169 1207 -169 1207 -184.5 1201.5 c 128,-1,20
 -200 1196 -200 1196 -215 1192 c 0,21,22
 -225 1189 -225 1189 -243 1184.5 c 128,-1,23
 -261 1180 -261 1180 -278.5 1173.5 c 128,-1,24
 -296 1167 -296 1167 -309 1158.5 c 128,-1,25
 -322 1150 -322 1150 -322 1139 c 0,26,27
 -322 1125 -322 1125 -308.5 1119.5 c 128,-1,28
 -295 1114 -295 1114 -281 1112 c 0,29,30
 -242 1108 -242 1108 -203.5 1104.5 c 128,-1,31
 -165 1101 -165 1101 -123 1098.5 c 128,-1,32
 -81 1096 -81 1096 -32.5 1095 c 128,-1,33
 16 1094 16 1094 74 1094 c 0,34,35
 99 1094 99 1094 133 1095 c 128,-1,36
 167 1096 167 1096 198.5 1097 c 128,-1,37
 230 1098 230 1098 253.5 1099 c 128,-1,38
 277 1100 277 1100 281 1100 c 0,39,40
 286 1100 286 1100 286.5 1098.5 c 128,-1,41
 287 1097 287 1097 287 1092 c 0,42,43
 287 1090 287 1090 272 1084 c 128,-1,44
 257 1078 257 1078 235 1070 c 128,-1,45
 213 1062 213 1062 187.5 1054 c 128,-1,46
 162 1046 162 1046 141 1040 c 0,47,48
 126 1036 126 1036 101 1033.5 c 128,-1,49
 76 1031 76 1031 47 1029.5 c 128,-1,50
 18 1028 18 1028 -11 1027 c 128,-1,51
 -40 1026 -40 1026 -61 1026 c 0,52,53
 -89 1026 -89 1026 -128.5 1027.5 c 128,-1,54
 -168 1029 -168 1029 -208 1033 c 128,-1,55
 -248 1037 -248 1037 -283.5 1043.5 c 128,-1,56
 -319 1050 -319 1050 -338 1059 c 0,57,58
 -349 1064 -349 1064 -351.5 1080.5 c 128,-1,59
 -354 1097 -354 1097 -354 1108 c 0,60,61
 -354 1120 -354 1120 -351.5 1131 c 128,-1,62
 -349 1142 -349 1142 -341.5 1154.5 c 128,-1,63
 -334 1167 -334 1167 -320 1181 c 128,-1,64
 -306 1195 -306 1195 -283 1212 c 0,65,66
 -251 1235 -251 1235 -218.5 1245.5 c 128,-1,67
 -186 1256 -186 1256 -152 1270 c 0,68,69
 -133 1276 -133 1276 -122 1298 c 128,-1,70
 -111 1320 -111 1320 -111 1346 c 0,71,72
 -111 1443 -111 1443 -120 1525 c 128,-1,73
 -129 1607 -129 1607 -129 1667 c 0,74,75
 -129 1670 -129 1670 -128.5 1677.5 c 128,-1,76
 -128 1685 -128 1685 -126.5 1693.5 c 128,-1,77
 -125 1702 -125 1702 -123 1708 c 128,-1,78
 -121 1714 -121 1714 -117 1714 c 0,79,80
 -98 1714 -98 1714 -98 1677 c 0,81,82
 -97 1647 -97 1647 -94 1602.5 c 128,-1,83
 -91 1558 -91 1558 -88 1511.5 c 128,-1,84
 -85 1465 -85 1465 -81.5 1423.5 c 128,-1,85
 -78 1382 -78 1382 -76 1358 c 0,86,87
 -74 1335 -74 1335 -72 1317.5 c 128,-1,88
 -70 1300 -70 1300 -64.5 1288 c 128,-1,89
 -59 1276 -59 1276 -47.5 1270 c 128,-1,90
 -36 1264 -36 1264 -14 1264 c 0,91,92
 4 1264 4 1264 17 1273 c 128,-1,93
 30 1282 30 1282 38 1292.5 c 128,-1,94
 46 1303 46 1303 51 1312 c 128,-1,95
 56 1321 56 1321 59 1321 c 256,96,97
 62 1321 62 1321 63 1308.5 c 128,-1,98
 64 1296 64 1296 68 1288 c 0,99,100
 77 1273 77 1273 96.5 1267.5 c 128,-1,101
 116 1262 116 1262 145 1262 c 1,102,103
 164 1289 164 1289 191.5 1321 c 128,-1,104
 219 1353 219 1353 251.5 1381.5 c 128,-1,105
 284 1410 284 1410 319.5 1429 c 128,-1,106
 355 1448 355 1448 389 1448 c 0,107,108
 407 1448 407 1448 420.5 1440 c 128,-1,109
 434 1432 434 1432 442.5 1420 c 128,-1,110
 451 1408 451 1408 455 1394 c 128,-1,111
 459 1380 459 1380 459 1368 c 0,112,113
 459 1337 459 1337 441.5 1312.5 c 128,-1,114
 424 1288 424 1288 396.5 1270 c 128,-1,115
 369 1252 369 1252 333.5 1239.5 c 128,-1,116
 298 1227 298 1227 262.5 1219.5 c 128,-1,117
 227 1212 227 1212 194.5 1208.5 c 128,-1,118
 162 1205 162 1205 139 1204 c 0,119,120
 137 1200 137 1200 133.5 1190.5 c 128,-1,121
 130 1181 130 1181 127 1171 c 128,-1,122
 124 1161 124 1161 121.5 1151 c 128,-1,123
 119 1141 119 1141 117 1135 c 0,124,125
 115 1135 115 1135 109.5 1142 c 128,-1,126
 104 1149 104 1149 104 1155 c 0,127,128
 104 1160 104 1160 110 1176 c 128,-1,129
 116 1192 116 1192 119 1204 c 1,130,131
 94 1204 94 1204 73 1212 c 128,-1,132
 52 1220 52 1220 41 1245 c 1,133,134
 35 1225 35 1225 19.5 1212.5 c 128,-1,135
 4 1200 4 1200 -14 1200 c 0,13,14
EndSplineSet
EndChar
StartChar: uni06D8
Encoding: 1752 1752 928
Width: 0
GlyphClass: 4
Flags: W
AnchorPoint: "Anchor-3" -15 915 mark 0
AnchorPoint: "Anchor-1" -15 915 mark 0
LayerCount: 2
Fore
SplineSet
-6 1077 m 1,0,1
 -19 1060 -19 1060 -30 1043.5 c 128,-1,2
 -41 1027 -41 1027 -53.5 1014 c 128,-1,3
 -66 1001 -66 1001 -82.5 993 c 128,-1,4
 -99 985 -99 985 -123 985 c 0,5,6
 -128 985 -128 985 -137 986 c 128,-1,7
 -146 987 -146 987 -154.5 990 c 128,-1,8
 -163 993 -163 993 -169.5 998 c 128,-1,9
 -176 1003 -176 1003 -176 1010 c 0,10,11
 -176 1018 -176 1018 -165 1021 c 128,-1,12
 -154 1024 -154 1024 -147 1024 c 0,13,14
 -125 1024 -125 1024 -101.5 1037.5 c 128,-1,15
 -78 1051 -78 1051 -57 1071 c 128,-1,16
 -36 1091 -36 1091 -19 1113 c 128,-1,17
 -2 1135 -2 1135 8 1153 c 0,18,19
 13 1162 13 1162 19 1172.5 c 128,-1,20
 25 1183 25 1183 32.5 1192 c 128,-1,21
 40 1201 40 1201 49.5 1207.5 c 128,-1,22
 59 1214 59 1214 70 1214 c 0,23,24
 86 1214 86 1214 98 1201 c 128,-1,25
 110 1188 110 1188 117.5 1169.5 c 128,-1,26
 125 1151 125 1151 129 1131 c 128,-1,27
 133 1111 133 1111 133 1098 c 0,28,29
 133 1092 133 1092 129.5 1081 c 128,-1,30
 126 1070 126 1070 120 1059.5 c 128,-1,31
 114 1049 114 1049 106.5 1041.5 c 128,-1,32
 99 1034 99 1034 92 1034 c 0,33,34
 80 1034 80 1034 63.5 1040 c 128,-1,35
 47 1046 47 1046 30 1056 c 2,36,-1
 -6 1077 l 1,0,1
82 1120 m 1,37,38
 82 1133 82 1133 72 1145 c 128,-1,39
 62 1157 62 1157 49 1157 c 0,40,41
 40 1157 40 1157 32.5 1150.5 c 128,-1,42
 25 1144 25 1144 25 1135 c 0,43,44
 25 1131 25 1131 31.5 1127.5 c 128,-1,45
 38 1124 38 1124 47 1121 c 128,-1,46
 56 1118 56 1118 64.5 1116 c 128,-1,47
 73 1114 73 1114 76 1114 c 2,48,-1
 82 1120 l 1,37,38
EndSplineSet
EndChar
StartChar: uni06DB
Encoding: 1755 1755 931
Width: 0
GlyphClass: 4
Flags: W
AnchorPoint: "Anchor-3" -15 915 mark 0
AnchorPoint: "Anchor-1" -15 915 mark 0
LayerCount: 2
Fore
SplineSet
27 1161 m 0,0,1
 27 1159 27 1159 22.5 1151 c 128,-1,2
 18 1143 18 1143 12 1134.5 c 128,-1,3
 6 1126 6 1126 0 1119 c 128,-1,4
 -6 1112 -6 1112 -8 1112 c 0,5,6
 -9 1112 -9 1112 -16 1116.5 c 128,-1,7
 -23 1121 -23 1121 -31.5 1127 c 128,-1,8
 -40 1133 -40 1133 -46.5 1138.5 c 128,-1,9
 -53 1144 -53 1144 -53 1145 c 0,10,11
 -53 1147 -53 1147 -48 1155 c 128,-1,12
 -43 1163 -43 1163 -37 1171.5 c 128,-1,13
 -31 1180 -31 1180 -25.5 1187 c 128,-1,14
 -20 1194 -20 1194 -18 1194 c 0,15,16
 -17 1194 -17 1194 -9.5 1189 c 128,-1,17
 -2 1184 -2 1184 6 1178 c 128,-1,18
 14 1172 14 1172 20.5 1167 c 128,-1,19
 27 1162 27 1162 27 1161 c 0,0,1
78 1073 m 256,20,21
 78 1071 78 1071 73.5 1063 c 128,-1,22
 69 1055 69 1055 63 1046.5 c 128,-1,23
 57 1038 57 1038 51 1031 c 128,-1,24
 45 1024 45 1024 43 1024 c 0,25,26
 42 1024 42 1024 36 1029 c 128,-1,27
 30 1034 30 1034 22 1040 c 0,28,29
 13 1047 13 1047 2 1055 c 0,30,31
 -3 1058 -3 1058 -6 1055 c 0,32,33
 -14 1045 -14 1045 -20 1036 c 0,34,35
 -25 1028 -25 1028 -30 1022 c 128,-1,36
 -35 1016 -35 1016 -37 1016 c 256,37,38
 -39 1016 -39 1016 -46 1020.5 c 128,-1,39
 -53 1025 -53 1025 -61 1030.5 c 128,-1,40
 -69 1036 -69 1036 -75.5 1041.5 c 128,-1,41
 -82 1047 -82 1047 -82 1049 c 256,42,43
 -82 1051 -82 1051 -77 1059 c 128,-1,44
 -72 1067 -72 1067 -66 1075.5 c 128,-1,45
 -60 1084 -60 1084 -55 1091 c 128,-1,46
 -50 1098 -50 1098 -49 1098 c 0,47,48
 -47 1098 -47 1098 -40.5 1093.5 c 128,-1,49
 -34 1089 -34 1089 -26 1083 c 0,50,51
 -17 1076 -17 1076 -8 1067 c 0,52,53
 -3 1065 -3 1065 -2 1064.5 c 128,-1,54
 -1 1064 -1 1064 2 1069 c 2,55,-1
 16 1089 l 2,56,57
 21 1097 21 1097 26 1102.5 c 128,-1,58
 31 1108 31 1108 33 1108 c 0,59,60
 34 1108 34 1108 41 1103 c 128,-1,61
 48 1098 48 1098 56.5 1092 c 128,-1,62
 65 1086 65 1086 71.5 1080.5 c 128,-1,63
 78 1075 78 1075 78 1073 c 256,20,21
EndSplineSet
EndChar
StartChar: uni06DC
Encoding: 1756 1756 932
Width: 0
GlyphClass: 4
Flags: W
AnchorPoint: "Anchor-3" -15 915 mark 0
AnchorPoint: "Anchor-1" -15 915 mark 0
LayerCount: 2
Fore
SplineSet
260 1389 m 0,0,1
 260 1374 260 1374 256 1354 c 128,-1,2
 252 1334 252 1334 244 1317 c 128,-1,3
 236 1300 236 1300 224 1288 c 128,-1,4
 212 1276 212 1276 195 1276 c 0,5,6
 181 1276 181 1276 170 1281 c 128,-1,7
 159 1286 159 1286 150.5 1293 c 128,-1,8
 142 1300 142 1300 136 1306.5 c 128,-1,9
 130 1313 130 1313 125 1317 c 1,10,11
 120 1307 120 1307 111 1294 c 128,-1,12
 102 1281 102 1281 90.5 1270 c 128,-1,13
 79 1259 79 1259 64.5 1251 c 128,-1,14
 50 1243 50 1243 33 1243 c 2,15,-1
 31 1243 l 1,16,17
 31 1226 31 1226 30.5 1215 c 128,-1,18
 30 1204 30 1204 29 1195 c 128,-1,19
 28 1186 28 1186 26.5 1177 c 128,-1,20
 25 1168 25 1168 23 1155 c 0,21,22
 12 1103 12 1103 -14 1070 c 128,-1,23
 -40 1037 -40 1037 -73.5 1018.5 c 128,-1,24
 -107 1000 -107 1000 -145.5 993.5 c 128,-1,25
 -184 987 -184 987 -219 987 c 0,26,27
 -248 987 -248 987 -271.5 997 c 128,-1,28
 -295 1007 -295 1007 -311 1024 c 128,-1,29
 -327 1041 -327 1041 -335.5 1064 c 128,-1,30
 -344 1087 -344 1087 -344 1112 c 0,31,32
 -344 1136 -344 1136 -336 1160 c 128,-1,33
 -328 1184 -328 1184 -318.5 1203.5 c 128,-1,34
 -309 1223 -309 1223 -299.5 1235 c 128,-1,35
 -290 1247 -290 1247 -287 1247 c 0,36,37
 -285 1247 -285 1247 -283 1246 c 128,-1,38
 -281 1245 -281 1245 -281 1243 c 0,39,40
 -281 1240 -281 1240 -286.5 1231 c 128,-1,41
 -292 1222 -292 1222 -298 1208.5 c 128,-1,42
 -304 1195 -304 1195 -309.5 1177.5 c 128,-1,43
 -315 1160 -315 1160 -315 1139 c 0,44,45
 -315 1114 -315 1114 -302.5 1097.5 c 128,-1,46
 -290 1081 -290 1081 -272 1070.5 c 128,-1,47
 -254 1060 -254 1060 -233.5 1055.5 c 128,-1,48
 -213 1051 -213 1051 -197 1051 c 0,49,50
 -175 1051 -175 1051 -152.5 1053 c 128,-1,51
 -130 1055 -130 1055 -109 1059.5 c 128,-1,52
 -88 1064 -88 1064 -70.5 1070.5 c 128,-1,53
 -53 1077 -53 1077 -41 1085 c 0,54,55
 -15 1104 -15 1104 -5.5 1128 c 128,-1,56
 4 1152 4 1152 4 1190 c 0,57,58
 4 1213 4 1213 0 1229.5 c 128,-1,59
 -4 1246 -4 1246 -9.5 1257 c 128,-1,60
 -15 1268 -15 1268 -19 1274.5 c 128,-1,61
 -23 1281 -23 1281 -23 1284 c 256,62,63
 -23 1287 -23 1287 -19.5 1296 c 128,-1,64
 -16 1305 -16 1305 -11 1314.5 c 128,-1,65
 -6 1324 -6 1324 -1.5 1331.5 c 128,-1,66
 3 1339 3 1339 4 1339 c 0,67,68
 15 1323 15 1323 23 1298 c 1,69,70
 42 1298 42 1298 61 1306.5 c 128,-1,71
 80 1315 80 1315 96 1328.5 c 128,-1,72
 112 1342 112 1342 122.5 1360 c 128,-1,73
 133 1378 133 1378 135 1397 c 0,74,75
 135 1407 135 1407 143 1407 c 0,76,77
 144 1406 144 1406 145 1404 c 256,78,79
 146 1402 146 1402 147.5 1400 c 128,-1,80
 149 1398 149 1398 150 1395 c 0,81,82
 152 1380 152 1380 160.5 1370 c 128,-1,83
 169 1360 169 1360 180 1354 c 128,-1,84
 191 1348 191 1348 201.5 1345.5 c 128,-1,85
 212 1343 212 1343 219 1343 c 0,86,87
 222 1343 222 1343 229 1347 c 128,-1,88
 236 1351 236 1351 236 1354 c 0,89,90
 236 1358 236 1358 232.5 1362 c 128,-1,91
 229 1366 229 1366 224.5 1369.5 c 128,-1,92
 220 1373 220 1373 216.5 1376 c 128,-1,93
 213 1379 213 1379 213 1380 c 256,94,95
 213 1381 213 1381 215.5 1390.5 c 128,-1,96
 218 1400 218 1400 221 1411 c 128,-1,97
 224 1422 224 1422 227.5 1431 c 128,-1,98
 231 1440 231 1440 233 1440 c 0,99,100
 238 1440 238 1440 243 1434 c 128,-1,101
 248 1428 248 1428 251.5 1420 c 128,-1,102
 255 1412 255 1412 257.5 1403 c 128,-1,103
 260 1394 260 1394 260 1389 c 0,0,1
EndSplineSet
EndChar
